<?xml version="1.0" encoding="UTF-8" standalone="no"?>
<!DOCTYPE svg PUBLIC "-//W3C//DTD SVG 1.1//EN"
 "http://www.w3.org/Graphics/SVG/1.1/DTD/svg11.dtd">
<!-- Generated by graphviz version 12.1.2 (20240928.0832)
 -->
<!-- Title: src/app/app.hpp Pages: 1 -->
<svg width="182pt" height="83pt"
 viewBox="0.00 0.00 182.25 82.50" xmlns="http://www.w3.org/2000/svg" xmlns:xlink="http://www.w3.org/1999/xlink">
<g id="graph0" class="graph" transform="scale(1 1) rotate(0) translate(4 78.5)">
<title>src/app/app.hpp</title>
<!-- Node1 -->
<g id="Node000001" class="node">
<title>Node1</title>
<g id="a_Node000001"><a xlink:title="Plik nagłówkowy aplikacji obsługującej listę elementów z różnymi operacjami na tablicy.">
<polygon fill="#999999" stroke="#666666" points="133,-74.5 48,-74.5 48,-55.25 133,-55.25 133,-74.5"/>
<text text-anchor="middle" x="90.5" y="-61" font-family="Helvetica,sans-Serif" font-size="10.00">src/app/app.hpp</text>
</a>
</g>
</g>
<!-- Node2 -->
<g id="Node000002" class="node">
<title>Node2</title>
<g id="a_Node000002"><a xlink:href="app_8cpp.html" target="_top" xlink:title="Implementacja klasy App obsługującej operacje na liście liczb całkowitych poprzez interaktywne menu.">
<polygon fill="white" stroke="#666666" points="85,-19.25 0,-19.25 0,0 85,0 85,-19.25"/>
<text text-anchor="middle" x="42.5" y="-5.75" font-family="Helvetica,sans-Serif" font-size="10.00">src/app/app.cpp</text>
</a>
</g>
</g>
<!-- Node1&#45;&gt;Node2 -->
<g id="edge1_Node000001_Node000002" class="edge">
<title>Node1&#45;&gt;Node2</title>
<g id="a_edge1_Node000001_Node000002"><a xlink:title=" ">
<path fill="none" stroke="#63b8ff" d="M75.1,-46.79C66.95,-37.75 57.28,-27.02 50.6,-19.61"/>
<polygon fill="#63b8ff" stroke="#63b8ff" points="72.27,-48.87 81.56,-53.96 77.46,-44.19 72.27,-48.87"/>
</a>
</g>
</g>
<!-- Node3 -->
<g id="Node000003" class="node">
<title>Node3</title>
<g id="a_Node000003"><a xlink:href="src_2main_8cpp.html" target="_top" xlink:title="Punkt wejścia do aplikacji.">
<polygon fill="white" stroke="#666666" points="174.25,-19.25 102.75,-19.25 102.75,0 174.25,0 174.25,-19.25"/>
<text text-anchor="middle" x="138.5" y="-5.75" font-family="Helvetica,sans-Serif" font-size="10.00">src/main.cpp</text>
</a>
</g>
</g>
<!-- Node1&#45;&gt;Node3 -->
<g id="edge2_Node000001_Node000003" class="edge">
<title>Node1&#45;&gt;Node3</title>
<g id="a_edge2_Node000001_Node000003"><a xlink:title=" ">
<path fill="none" stroke="#63b8ff" d="M105.9,-46.79C114.05,-37.75 123.72,-27.02 130.4,-19.61"/>
<polygon fill="#63b8ff" stroke="#63b8ff" points="103.54,-44.19 99.44,-53.96 108.73,-48.87 103.54,-44.19"/>
</a>
</g>
</g>
</g>
</svg>
