<?xml version="1.0" encoding="UTF-8" standalone="no"?>
<!DOCTYPE svg PUBLIC "-//W3C//DTD SVG 1.1//EN"
 "http://www.w3.org/Graphics/SVG/1.1/DTD/svg11.dtd">
<!-- Generated by graphviz version 12.1.2 (20240928.0832)
 -->
<!-- Title: src/app/app.cpp Pages: 1 -->
<svg width="188pt" height="149pt"
 viewBox="0.00 0.00 188.00 149.00" xmlns="http://www.w3.org/2000/svg" xmlns:xlink="http://www.w3.org/1999/xlink">
<g id="graph0" class="graph" transform="scale(1 1) rotate(0) translate(4 145)">
<title>src/app/app.cpp</title>
<!-- Node1 -->
<g id="Node000001" class="node">
<title>Node1</title>
<g id="a_Node000001"><a xlink:title=" ">
<polygon fill="#999999" stroke="#666666" points="118.25,-141 33.25,-141 33.25,-121.75 118.25,-121.75 118.25,-141"/>
<text text-anchor="middle" x="75.75" y="-127.5" font-family="Helvetica,sans-Serif" font-size="10.00">src/app/app.cpp</text>
</a>
</g>
</g>
<!-- Node2 -->
<g id="Node000002" class="node">
<title>Node2</title>
<g id="a_Node000002"><a xlink:href="app_8hpp.html" target="_top" xlink:title=" ">
<polygon fill="white" stroke="#666666" points="51.62,-80.12 1.88,-80.12 1.88,-60.88 51.62,-60.88 51.62,-80.12"/>
<text text-anchor="middle" x="26.75" y="-66.62" font-family="Helvetica,sans-Serif" font-size="10.00">app.hpp</text>
</a>
</g>
</g>
<!-- Node1&#45;&gt;Node2 -->
<g id="edge1_Node000001_Node000002" class="edge">
<title>Node1&#45;&gt;Node2</title>
<g id="a_edge1_Node000001_Node000002"><a xlink:title=" ">
<path fill="none" stroke="#63b8ff" d="M68.31,-121.43C61.18,-112.87 50.24,-99.73 41.37,-89.07"/>
<polygon fill="#63b8ff" stroke="#63b8ff" points="44.32,-87.14 35.23,-81.69 38.94,-91.61 44.32,-87.14"/>
</a>
</g>
</g>
<!-- Node5 -->
<g id="Node000005" class="node">
<title>Node5</title>
<g id="a_Node000005"><a xlink:href="merge__sorter_8hpp_source.html" target="_top" xlink:title=" ">
<polygon fill="white" stroke="#666666" points="180,-85.75 69.5,-85.75 69.5,-55.25 180,-55.25 180,-85.75"/>
<text text-anchor="start" x="77.5" y="-72.25" font-family="Helvetica,sans-Serif" font-size="10.00">../merge_sorter/merge</text>
<text text-anchor="middle" x="124.75" y="-61" font-family="Helvetica,sans-Serif" font-size="10.00">_sorter.hpp</text>
</a>
</g>
</g>
<!-- Node1&#45;&gt;Node5 -->
<g id="edge4_Node000001_Node000005" class="edge">
<title>Node1&#45;&gt;Node5</title>
<g id="a_edge4_Node000001_Node000005"><a xlink:title=" ">
<path fill="none" stroke="#63b8ff" d="M83.19,-121.43C89.12,-114.31 97.68,-104.02 105.5,-94.63"/>
<polygon fill="#63b8ff" stroke="#63b8ff" points="107.98,-97.12 111.69,-87.2 102.6,-92.64 107.98,-97.12"/>
</a>
</g>
</g>
<!-- Node3 -->
<g id="Node000003" class="node">
<title>Node3</title>
<g id="a_Node000003"><a xlink:title=" ">
<polygon fill="#e0e0e0" stroke="#999999" points="53.5,-19.25 0,-19.25 0,0 53.5,0 53.5,-19.25"/>
<text text-anchor="middle" x="26.75" y="-5.75" font-family="Helvetica,sans-Serif" font-size="10.00">iostream</text>
</a>
</g>
</g>
<!-- Node2&#45;&gt;Node3 -->
<g id="edge2_Node000002_Node000003" class="edge">
<title>Node2&#45;&gt;Node3</title>
<g id="a_edge2_Node000002_Node000003"><a xlink:title=" ">
<path fill="none" stroke="#63b8ff" d="M26.75,-60.56C26.75,-52.78 26.75,-41.2 26.75,-31.16"/>
<polygon fill="#63b8ff" stroke="#63b8ff" points="30.25,-31.16 26.75,-21.16 23.25,-31.16 30.25,-31.16"/>
</a>
</g>
</g>
<!-- Node4 -->
<g id="Node000004" class="node">
<title>Node4</title>
<g id="a_Node000004"><a xlink:title=" ">
<polygon fill="#e0e0e0" stroke="#999999" points="130.25,-19.25 87.25,-19.25 87.25,0 130.25,0 130.25,-19.25"/>
<text text-anchor="middle" x="108.75" y="-5.75" font-family="Helvetica,sans-Serif" font-size="10.00">vector</text>
</a>
</g>
</g>
<!-- Node2&#45;&gt;Node4 -->
<g id="edge3_Node000002_Node000004" class="edge">
<title>Node2&#45;&gt;Node4</title>
<g id="a_edge3_Node000002_Node000004"><a xlink:title=" ">
<path fill="none" stroke="#63b8ff" d="M39.2,-60.56C51.85,-51.48 71.68,-37.24 86.94,-26.29"/>
<polygon fill="#63b8ff" stroke="#63b8ff" points="88.87,-29.21 94.95,-20.53 84.78,-23.52 88.87,-29.21"/>
</a>
</g>
</g>
<!-- Node5&#45;&gt;Node4 -->
<g id="edge5_Node000005_Node000004" class="edge">
<title>Node5&#45;&gt;Node4</title>
<g id="a_edge5_Node000005_Node000004"><a xlink:title=" ">
<path fill="none" stroke="#63b8ff" d="M120.79,-54.95C118.8,-47.62 116.36,-38.62 114.19,-30.66"/>
<polygon fill="#63b8ff" stroke="#63b8ff" points="117.61,-29.89 111.61,-21.16 110.86,-31.73 117.61,-29.89"/>
</a>
</g>
</g>
</g>
</svg>
