<?xml version="1.0" encoding="UTF-8" standalone="no"?>
<!DOCTYPE svg PUBLIC "-//W3C//DTD SVG 1.1//EN"
 "http://www.w3.org/Graphics/SVG/1.1/DTD/svg11.dtd">
<!-- Generated by graphviz version 12.1.2 (20240928.0832)
 -->
<!-- Title: src/app/app.cpp Pages: 1 -->
<svg width="502pt" height="149pt"
 viewBox="0.00 0.00 502.00 149.00" xmlns="http://www.w3.org/2000/svg" xmlns:xlink="http://www.w3.org/1999/xlink">
<g id="graph0" class="graph" transform="scale(1 1) rotate(0) translate(4 145)">
<title>src/app/app.cpp</title>
<!-- Node1 -->
<g id="Node000001" class="node">
<title>Node1</title>
<g id="a_Node000001"><a xlink:title=" ">
<polygon fill="#999999" stroke="#666666" points="235.25,-141 150.25,-141 150.25,-121.75 235.25,-121.75 235.25,-141"/>
<text text-anchor="middle" x="192.75" y="-127.5" font-family="Helvetica,sans-Serif" font-size="10.00">src/app/app.cpp</text>
</a>
</g>
</g>
<!-- Node2 -->
<g id="Node000002" class="node">
<title>Node2</title>
<g id="a_Node000002"><a xlink:href="app_8hpp.html" target="_top" xlink:title=" ">
<polygon fill="white" stroke="#666666" points="51.62,-80.12 1.88,-80.12 1.88,-60.88 51.62,-60.88 51.62,-80.12"/>
<text text-anchor="middle" x="26.75" y="-66.62" font-family="Helvetica,sans-Serif" font-size="10.00">app.hpp</text>
</a>
</g>
</g>
<!-- Node1&#45;&gt;Node2 -->
<g id="edge1_Node000001_Node000002" class="edge">
<title>Node1&#45;&gt;Node2</title>
<g id="a_edge1_Node000001_Node000002"><a xlink:title=" ">
<path fill="none" stroke="#63b8ff" d="M163.96,-121.29C137.08,-112.66 95.94,-99.05 60.75,-85.75 59.81,-85.39 58.85,-85.03 57.89,-84.65"/>
<polygon fill="#63b8ff" stroke="#63b8ff" points="59.5,-81.53 48.92,-81.04 56.89,-88.02 59.5,-81.53"/>
</a>
</g>
</g>
<!-- Node5 -->
<g id="Node000005" class="node">
<title>Node5</title>
<g id="a_Node000005"><a xlink:href="merge__sorter_8hpp.html" target="_top" xlink:title=" ">
<polygon fill="white" stroke="#666666" points="180,-85.75 69.5,-85.75 69.5,-55.25 180,-55.25 180,-85.75"/>
<text text-anchor="start" x="77.5" y="-72.25" font-family="Helvetica,sans-Serif" font-size="10.00">../merge_sorter/merge</text>
<text text-anchor="middle" x="124.75" y="-61" font-family="Helvetica,sans-Serif" font-size="10.00">_sorter.hpp</text>
</a>
</g>
</g>
<!-- Node1&#45;&gt;Node5 -->
<g id="edge4_Node000001_Node000005" class="edge">
<title>Node1&#45;&gt;Node5</title>
<g id="a_edge4_Node000001_Node000005"><a xlink:title=" ">
<path fill="none" stroke="#63b8ff" d="M182.42,-121.43C173.86,-114.02 161.33,-103.17 150.13,-93.47"/>
<polygon fill="#63b8ff" stroke="#63b8ff" points="152.53,-90.92 142.68,-87.02 147.95,-96.21 152.53,-90.92"/>
</a>
</g>
</g>
<!-- Node6 -->
<g id="Node000006" class="node">
<title>Node6</title>
<g id="a_Node000006"><a xlink:href="array__utils_8hpp.html" target="_top" xlink:title=" ">
<polygon fill="white" stroke="#666666" points="323.5,-80.12 198,-80.12 198,-60.88 323.5,-60.88 323.5,-80.12"/>
<text text-anchor="middle" x="260.75" y="-66.62" font-family="Helvetica,sans-Serif" font-size="10.00">array_utils/array_utils.hpp</text>
</a>
</g>
</g>
<!-- Node1&#45;&gt;Node6 -->
<g id="edge6_Node000001_Node000006" class="edge">
<title>Node1&#45;&gt;Node6</title>
<g id="a_edge6_Node000001_Node000006"><a xlink:title=" ">
<path fill="none" stroke="#63b8ff" d="M203.08,-121.43C213.36,-112.53 229.38,-98.66 241.93,-87.79"/>
<polygon fill="#63b8ff" stroke="#63b8ff" points="243.91,-90.71 249.18,-81.52 239.33,-85.42 243.91,-90.71"/>
</a>
</g>
</g>
<!-- Node7 -->
<g id="Node000007" class="node">
<title>Node7</title>
<g id="a_Node000007"><a xlink:href="random__number__generator_8hpp.html" target="_top" xlink:title=" ">
<polygon fill="white" stroke="#666666" points="494,-85.75 341.5,-85.75 341.5,-55.25 494,-55.25 494,-85.75"/>
<text text-anchor="start" x="349.5" y="-72.25" font-family="Helvetica,sans-Serif" font-size="10.00">random_number_generator</text>
<text text-anchor="middle" x="417.75" y="-61" font-family="Helvetica,sans-Serif" font-size="10.00">/random_number_generator.hpp</text>
</a>
</g>
</g>
<!-- Node1&#45;&gt;Node7 -->
<g id="edge8_Node000001_Node000007" class="edge">
<title>Node1&#45;&gt;Node7</title>
<g id="a_edge8_Node000001_Node000007"><a xlink:title=" ">
<path fill="none" stroke="#63b8ff" d="M227.41,-121.3C260.16,-112.74 310.16,-99.65 350.7,-89.04"/>
<polygon fill="#63b8ff" stroke="#63b8ff" points="351.34,-92.5 360.13,-86.58 349.57,-85.72 351.34,-92.5"/>
</a>
</g>
</g>
<!-- Node3 -->
<g id="Node000003" class="node">
<title>Node3</title>
<g id="a_Node000003"><a xlink:title=" ">
<polygon fill="#e0e0e0" stroke="#999999" points="53.5,-19.25 0,-19.25 0,0 53.5,0 53.5,-19.25"/>
<text text-anchor="middle" x="26.75" y="-5.75" font-family="Helvetica,sans-Serif" font-size="10.00">iostream</text>
</a>
</g>
</g>
<!-- Node2&#45;&gt;Node3 -->
<g id="edge2_Node000002_Node000003" class="edge">
<title>Node2&#45;&gt;Node3</title>
<g id="a_edge2_Node000002_Node000003"><a xlink:title=" ">
<path fill="none" stroke="#63b8ff" d="M26.75,-60.56C26.75,-52.78 26.75,-41.2 26.75,-31.16"/>
<polygon fill="#63b8ff" stroke="#63b8ff" points="30.25,-31.16 26.75,-21.16 23.25,-31.16 30.25,-31.16"/>
</a>
</g>
</g>
<!-- Node4 -->
<g id="Node000004" class="node">
<title>Node4</title>
<g id="a_Node000004"><a xlink:title=" ">
<polygon fill="#e0e0e0" stroke="#999999" points="146.25,-19.25 103.25,-19.25 103.25,0 146.25,0 146.25,-19.25"/>
<text text-anchor="middle" x="124.75" y="-5.75" font-family="Helvetica,sans-Serif" font-size="10.00">vector</text>
</a>
</g>
</g>
<!-- Node2&#45;&gt;Node4 -->
<g id="edge3_Node000002_Node000004" class="edge">
<title>Node2&#45;&gt;Node4</title>
<g id="a_edge3_Node000002_Node000004"><a xlink:title=" ">
<path fill="none" stroke="#63b8ff" d="M41.63,-60.56C57.1,-51.26 81.58,-36.56 99.97,-25.51"/>
<polygon fill="#63b8ff" stroke="#63b8ff" points="101.66,-28.58 108.43,-20.43 98.05,-22.58 101.66,-28.58"/>
</a>
</g>
</g>
<!-- Node5&#45;&gt;Node4 -->
<g id="edge5_Node000005_Node000004" class="edge">
<title>Node5&#45;&gt;Node4</title>
<g id="a_edge5_Node000005_Node000004"><a xlink:title=" ">
<path fill="none" stroke="#63b8ff" d="M124.75,-54.95C124.75,-47.71 124.75,-38.84 124.75,-30.94"/>
<polygon fill="#63b8ff" stroke="#63b8ff" points="128.25,-31.21 124.75,-21.21 121.25,-31.21 128.25,-31.21"/>
</a>
</g>
</g>
<!-- Node6&#45;&gt;Node4 -->
<g id="edge7_Node000006_Node000004" class="edge">
<title>Node6&#45;&gt;Node4</title>
<g id="a_edge7_Node000006_Node000004"><a xlink:title=" ">
<path fill="none" stroke="#63b8ff" d="M239.8,-60.43C217.37,-50.72 181.55,-35.21 155.84,-24.08"/>
<polygon fill="#63b8ff" stroke="#63b8ff" points="157.46,-20.97 146.89,-20.21 154.68,-27.39 157.46,-20.97"/>
</a>
</g>
</g>
</g>
</svg>
