<?xml version="1.0" encoding="UTF-8" standalone="no"?>
<!DOCTYPE svg PUBLIC "-//W3C//DTD SVG 1.1//EN"
 "http://www.w3.org/Graphics/SVG/1.1/DTD/svg11.dtd">
<!-- Generated by graphviz version 12.1.2 (20240928.0832)
 -->
<!-- Title: src/utils/array_utils/array_utils.cpp Pages: 1 -->
<svg width="263pt" height="94pt"
 viewBox="0.00 0.00 263.25 93.75" xmlns="http://www.w3.org/2000/svg" xmlns:xlink="http://www.w3.org/1999/xlink">
<g id="graph0" class="graph" transform="scale(1 1) rotate(0) translate(4 89.75)">
<title>src/utils/array_utils/array_utils.cpp</title>
<!-- Node1 -->
<g id="Node000001" class="node">
<title>Node1</title>
<g id="a_Node000001"><a xlink:title=" ">
<polygon fill="#999999" stroke="#666666" points="169.38,-85.75 71.62,-85.75 71.62,-55.25 169.38,-55.25 169.38,-85.75"/>
<text text-anchor="start" x="79.62" y="-72.25" font-family="Helvetica,sans-Serif" font-size="10.00">src/utils/array_utils</text>
<text text-anchor="middle" x="120.5" y="-61" font-family="Helvetica,sans-Serif" font-size="10.00">/array_utils.cpp</text>
</a>
</g>
</g>
<!-- Node2 -->
<g id="Node000002" class="node">
<title>Node2</title>
<g id="a_Node000002"><a xlink:title=" ">
<polygon fill="#e0e0e0" stroke="#999999" points="43,-19.25 0,-19.25 0,0 43,0 43,-19.25"/>
<text text-anchor="middle" x="21.5" y="-5.75" font-family="Helvetica,sans-Serif" font-size="10.00">vector</text>
</a>
</g>
</g>
<!-- Node1&#45;&gt;Node2 -->
<g id="edge1_Node000001_Node000002" class="edge">
<title>Node1&#45;&gt;Node2</title>
<g id="a_edge1_Node000001_Node000002"><a xlink:title=" ">
<path fill="none" stroke="#63b8ff" d="M95.77,-54.8C80.7,-45.83 61.49,-34.41 46.38,-25.42"/>
<polygon fill="#63b8ff" stroke="#63b8ff" points="48.37,-22.53 37.98,-20.43 44.79,-28.55 48.37,-22.53"/>
</a>
</g>
</g>
<!-- Node3 -->
<g id="Node000003" class="node">
<title>Node3</title>
<g id="a_Node000003"><a xlink:title=" ">
<polygon fill="#e0e0e0" stroke="#999999" points="109.62,-19.25 61.38,-19.25 61.38,0 109.62,0 109.62,-19.25"/>
<text text-anchor="middle" x="85.5" y="-5.75" font-family="Helvetica,sans-Serif" font-size="10.00">random</text>
</a>
</g>
</g>
<!-- Node1&#45;&gt;Node3 -->
<g id="edge2_Node000001_Node000003" class="edge">
<title>Node1&#45;&gt;Node3</title>
<g id="a_edge2_Node000001_Node000003"><a xlink:title=" ">
<path fill="none" stroke="#63b8ff" d="M111.85,-54.95C107.29,-47.28 101.64,-37.77 96.74,-29.54"/>
<polygon fill="#63b8ff" stroke="#63b8ff" points="99.79,-27.81 91.67,-21 93.77,-31.39 99.79,-27.81"/>
</a>
</g>
</g>
<!-- Node4 -->
<g id="Node000004" class="node">
<title>Node4</title>
<g id="a_Node000004"><a xlink:title=" ">
<polygon fill="#e0e0e0" stroke="#999999" points="183.38,-19.25 127.62,-19.25 127.62,0 183.38,0 183.38,-19.25"/>
<text text-anchor="middle" x="155.5" y="-5.75" font-family="Helvetica,sans-Serif" font-size="10.00">algorithm</text>
</a>
</g>
</g>
<!-- Node1&#45;&gt;Node4 -->
<g id="edge3_Node000001_Node000004" class="edge">
<title>Node1&#45;&gt;Node4</title>
<g id="a_edge3_Node000001_Node000004"><a xlink:title=" ">
<path fill="none" stroke="#63b8ff" d="M129.15,-54.95C133.71,-47.28 139.36,-37.77 144.26,-29.54"/>
<polygon fill="#63b8ff" stroke="#63b8ff" points="147.23,-31.39 149.33,-21 141.21,-27.81 147.23,-31.39"/>
</a>
</g>
</g>
<!-- Node5 -->
<g id="Node000005" class="node">
<title>Node5</title>
<g id="a_Node000005"><a xlink:title=" ">
<polygon fill="#e0e0e0" stroke="#999999" points="255.25,-19.25 201.75,-19.25 201.75,0 255.25,0 255.25,-19.25"/>
<text text-anchor="middle" x="228.5" y="-5.75" font-family="Helvetica,sans-Serif" font-size="10.00">iostream</text>
</a>
</g>
</g>
<!-- Node1&#45;&gt;Node5 -->
<g id="edge4_Node000001_Node000005" class="edge">
<title>Node1&#45;&gt;Node5</title>
<g id="a_edge4_Node000001_Node000005"><a xlink:title=" ">
<path fill="none" stroke="#63b8ff" d="M147.47,-54.8C164.08,-45.74 185.28,-34.19 201.83,-25.16"/>
<polygon fill="#63b8ff" stroke="#63b8ff" points="203.5,-28.24 210.61,-20.38 200.15,-22.09 203.5,-28.24"/>
</a>
</g>
</g>
</g>
</svg>
