<?xml version="1.0" encoding="UTF-8" standalone="no"?>
<!DOCTYPE svg PUBLIC "-//W3C//DTD SVG 1.1//EN"
 "http://www.w3.org/Graphics/SVG/1.1/DTD/svg11.dtd">
<!-- Generated by graphviz version 12.1.2 (20240928.0832)
 -->
<!-- Title: TypeParameterizedTestSuite&lt; T &gt; Pages: 1 -->
<svg width="172pt" height="83pt"
 viewBox="0.00 0.00 171.75 82.50" xmlns="http://www.w3.org/2000/svg" xmlns:xlink="http://www.w3.org/1999/xlink">
<g id="graph0" class="graph" transform="scale(1 1) rotate(0) translate(4 78.5)">
<title>TypeParameterizedTestSuite&lt; T &gt;</title>
<!-- Node1 -->
<g id="Node000001" class="node">
<title>Node1</title>
<g id="a_Node000001"><a xlink:title=" ">
<polygon fill="#999999" stroke="#666666" points="163.75,-19.25 0,-19.25 0,0 163.75,0 163.75,-19.25"/>
<text text-anchor="middle" x="81.88" y="-5.75" font-family="Helvetica,sans-Serif" font-size="10.00">TypeParameterizedTestSuite&lt; T &gt;</text>
</a>
</g>
</g>
<!-- Node2 -->
<g id="Node000002" class="node">
<title>Node2</title>
<g id="a_Node000002"><a xlink:href="classtesting_1_1Test.html" target="_top" xlink:title=" ">
<polygon fill="white" stroke="#bfbfbf" points="81.5,-74.5 12.25,-74.5 12.25,-55.25 81.5,-55.25 81.5,-74.5"/>
<text text-anchor="middle" x="46.88" y="-61" font-family="Helvetica,sans-Serif" font-size="10.00">testing::Test</text>
</a>
</g>
</g>
<!-- Node2&#45;&gt;Node1 -->
<g id="edge1_Node000001_Node000002" class="edge">
<title>Node2&#45;&gt;Node1</title>
<g id="a_edge1_Node000001_Node000002"><a xlink:title=" ">
<path fill="none" stroke="#63b8ff" d="M58.85,-45.65C64.63,-36.86 71.3,-26.71 75.97,-19.61"/>
<polygon fill="#63b8ff" stroke="#63b8ff" points="56.05,-43.54 53.49,-53.82 61.9,-47.38 56.05,-43.54"/>
</a>
</g>
</g>
<!-- Node3 -->
<g id="Node000003" class="node">
<title>Node3</title>
<g id="a_Node000003"><a xlink:title=" ">
<polygon fill="white" stroke="#bfbfbf" points="134.62,-74.5 99.12,-74.5 99.12,-55.25 134.62,-55.25 134.62,-74.5"/>
<text text-anchor="middle" x="116.88" y="-61" font-family="Helvetica,sans-Serif" font-size="10.00">Test</text>
</a>
</g>
</g>
<!-- Node3&#45;&gt;Node1 -->
<g id="edge2_Node000001_Node000003" class="edge">
<title>Node3&#45;&gt;Node1</title>
<g id="a_edge2_Node000001_Node000003"><a xlink:title=" ">
<path fill="none" stroke="#63b8ff" d="M104.9,-45.65C99.12,-36.86 92.45,-26.71 87.78,-19.61"/>
<polygon fill="#63b8ff" stroke="#63b8ff" points="101.85,-47.38 110.26,-53.82 107.7,-43.54 101.85,-47.38"/>
</a>
</g>
</g>
</g>
</svg>
