<?xml version="1.0" encoding="UTF-8" standalone="no"?>
<!DOCTYPE svg PUBLIC "-//W3C//DTD SVG 1.1//EN"
 "http://www.w3.org/Graphics/SVG/1.1/DTD/svg11.dtd">
<!-- Generated by graphviz version 12.1.2 (20240928.0832)
 -->
<!-- Title: GMockOutputTest Pages: 1 -->
<svg width="242pt" height="173pt"
 viewBox="0.00 0.00 241.50 172.50" xmlns="http://www.w3.org/2000/svg" xmlns:xlink="http://www.w3.org/1999/xlink">
<g id="graph0" class="graph" transform="scale(1 1) rotate(0) translate(4 168.5)">
<title>GMockOutputTest</title>
<!-- Node1 -->
<g id="Node000001" class="node">
<title>Node1</title>
<g id="a_Node000001"><a xlink:title=" ">
<polygon fill="#999999" stroke="#666666" points="98.75,-19.25 2.5,-19.25 2.5,0 98.75,0 98.75,-19.25"/>
<text text-anchor="middle" x="50.62" y="-5.75" font-family="Helvetica,sans-Serif" font-size="10.00">GMockOutputTest</text>
</a>
</g>
</g>
<!-- Node2 -->
<g id="Node000002" class="node">
<title>Node2</title>
<g id="a_Node000002"><a xlink:href="classtesting_1_1Test.html" target="_top" xlink:title=" ">
<polygon fill="white" stroke="#bfbfbf" points="69.25,-91.38 0,-91.38 0,-72.12 69.25,-72.12 69.25,-91.38"/>
<text text-anchor="middle" x="34.62" y="-77.88" font-family="Helvetica,sans-Serif" font-size="10.00">testing::Test</text>
</a>
</g>
</g>
<!-- Node2&#45;&gt;Node1 -->
<g id="edge1_Node000001_Node000002" class="edge">
<title>Node2&#45;&gt;Node1</title>
<g id="a_edge1_Node000001_Node000002"><a xlink:title=" ">
<path fill="none" stroke="#63b8ff" d="M39.18,-60.78C42.27,-47.24 46.21,-29.99 48.56,-19.66"/>
<polygon fill="#63b8ff" stroke="#63b8ff" points="35.8,-59.86 36.99,-70.39 42.62,-61.42 35.8,-59.86"/>
</a>
</g>
</g>
<!-- Node3 -->
<g id="Node000003" class="node">
<title>Node3</title>
<g id="a_Node000003"><a xlink:href="classtesting_1_1NaggyMock.html" target="_top" xlink:title=" ">
<polygon fill="white" stroke="#bfbfbf" points="188.38,-97 86.88,-97 86.88,-66.5 188.38,-66.5 188.38,-97"/>
<text text-anchor="start" x="94.88" y="-83.5" font-family="Helvetica,sans-Serif" font-size="10.00">testing::NaggyMock</text>
<text text-anchor="middle" x="137.62" y="-72.25" font-family="Helvetica,sans-Serif" font-size="10.00">&lt; MockFoo &gt;</text>
</a>
</g>
</g>
<!-- Node3&#45;&gt;Node1 -->
<g id="edge2_Node000001_Node000003" class="edge">
<title>Node3&#45;&gt;Node1</title>
<g id="a_edge2_Node000001_Node000003"><a xlink:title=" ">
<path fill="none" stroke="#9a32cd" stroke-dasharray="5,2" d="M110.89,-59.2C94.38,-45.89 74.06,-29.52 61.74,-19.58"/>
<polygon fill="#9a32cd" stroke="#9a32cd" points="108.44,-61.72 118.42,-65.27 112.83,-56.27 108.44,-61.72"/>
</a>
</g>
<text text-anchor="middle" x="107.23" y="-39" font-family="Helvetica,sans-Serif" font-size="10.00" fill="grey"> foo_</text>
</g>
<!-- Node4 -->
<g id="Node000004" class="node">
<title>Node4</title>
<g id="a_Node000004"><a xlink:href="classtesting_1_1internal_1_1NaggyMockImpl.html" target="_top" xlink:title=" ">
<polygon fill="white" stroke="#bfbfbf" points="147.38,-164.5 3.88,-164.5 3.88,-134 147.38,-134 147.38,-164.5"/>
<text text-anchor="start" x="11.88" y="-151" font-family="Helvetica,sans-Serif" font-size="10.00">testing::internal::</text>
<text text-anchor="middle" x="75.62" y="-139.75" font-family="Helvetica,sans-Serif" font-size="10.00">NaggyMockImpl&lt; MockFoo &gt;</text>
</a>
</g>
</g>
<!-- Node4&#45;&gt;Node3 -->
<g id="edge3_Node000003_Node000004" class="edge">
<title>Node4&#45;&gt;Node3</title>
<g id="a_edge3_Node000003_Node000004"><a xlink:title=" ">
<path fill="none" stroke="#8b1a1a" d="M97.12,-125.54C106.01,-116.15 116.04,-105.55 123.9,-97.25"/>
<polygon fill="#8b1a1a" stroke="#8b1a1a" points="94.76,-122.95 90.43,-132.61 99.84,-127.76 94.76,-122.95"/>
</a>
</g>
</g>
<!-- Node5 -->
<g id="Node000005" class="node">
<title>Node5</title>
<g id="a_Node000005"><a xlink:title=" ">
<polygon fill="white" stroke="#bfbfbf" points="233.5,-158.88 165.75,-158.88 165.75,-139.62 233.5,-139.62 233.5,-158.88"/>
<text text-anchor="middle" x="199.62" y="-145.38" font-family="Helvetica,sans-Serif" font-size="10.00">anonymous:</text>
</a>
</g>
</g>
<!-- Node5&#45;&gt;Node3 -->
<g id="edge4_Node000003_Node000005" class="edge">
<title>Node5&#45;&gt;Node3</title>
<g id="a_edge4_Node000003_Node000005"><a xlink:title=" ">
<path fill="none" stroke="#63b8ff" d="M183.1,-130.8C173.21,-120.34 160.78,-107.21 151.41,-97.32"/>
<polygon fill="#63b8ff" stroke="#63b8ff" points="180.55,-133.19 189.96,-138.04 185.63,-128.37 180.55,-133.19"/>
</a>
</g>
</g>
</g>
</svg>
