<?xml version="1.0" encoding="UTF-8" standalone="no"?>
<!DOCTYPE svg PUBLIC "-//W3C//DTD SVG 1.1//EN"
 "http://www.w3.org/Graphics/SVG/1.1/DTD/svg11.dtd">
<!-- Generated by graphviz version 12.1.2 (20240928.0832)
 -->
<!-- Title: TypedTestSuitePStateTest Pages: 1 -->
<svg width="210pt" height="94pt"
 viewBox="0.00 0.00 209.75 93.75" xmlns="http://www.w3.org/2000/svg" xmlns:xlink="http://www.w3.org/1999/xlink">
<g id="graph0" class="graph" transform="scale(1 1) rotate(0) translate(4 89.75)">
<title>TypedTestSuitePStateTest</title>
<!-- Node1 -->
<g id="Node000001" class="node">
<title>Node1</title>
<g id="a_Node000001"><a xlink:title=" ">
<polygon fill="#999999" stroke="#666666" points="156.5,-19.25 22.75,-19.25 22.75,0 156.5,0 156.5,-19.25"/>
<text text-anchor="middle" x="89.62" y="-5.75" font-family="Helvetica,sans-Serif" font-size="10.00">TypedTestSuitePStateTest</text>
</a>
</g>
</g>
<!-- Node2 -->
<g id="Node000002" class="node">
<title>Node2</title>
<g id="a_Node000002"><a xlink:href="classtesting_1_1Test.html" target="_top" xlink:title=" ">
<polygon fill="white" stroke="#bfbfbf" points="69.25,-85.75 0,-85.75 0,-66.5 69.25,-66.5 69.25,-85.75"/>
<text text-anchor="middle" x="34.62" y="-72.25" font-family="Helvetica,sans-Serif" font-size="10.00">testing::Test</text>
</a>
</g>
</g>
<!-- Node2&#45;&gt;Node1 -->
<g id="edge1_Node000001_Node000002" class="edge">
<title>Node2&#45;&gt;Node1</title>
<g id="a_edge1_Node000001_Node000002"><a xlink:title=" ">
<path fill="none" stroke="#63b8ff" d="M49.56,-57.61C60.07,-45.28 73.7,-29.31 82.04,-19.52"/>
<polygon fill="#63b8ff" stroke="#63b8ff" points="47.08,-55.12 43.25,-65 52.41,-59.67 47.08,-55.12"/>
</a>
</g>
</g>
<!-- Node3 -->
<g id="Node000003" class="node">
<title>Node3</title>
<g id="a_Node000003"><a xlink:title=" ">
<polygon fill="white" stroke="#bfbfbf" points="201.75,-85.75 87.5,-85.75 87.5,-66.5 201.75,-66.5 201.75,-85.75"/>
<text text-anchor="middle" x="144.62" y="-72.25" font-family="Helvetica,sans-Serif" font-size="10.00">TypedTestSuitePState</text>
</a>
</g>
</g>
<!-- Node3&#45;&gt;Node1 -->
<g id="edge2_Node000001_Node000003" class="edge">
<title>Node3&#45;&gt;Node1</title>
<g id="a_edge2_Node000001_Node000003"><a xlink:title=" ">
<path fill="none" stroke="#9a32cd" stroke-dasharray="5,2" d="M129.69,-57.61C119.18,-45.28 105.55,-29.31 97.21,-19.52"/>
<polygon fill="#9a32cd" stroke="#9a32cd" points="126.84,-59.67 136,-65 132.17,-55.12 126.84,-59.67"/>
</a>
</g>
<text text-anchor="middle" x="135.04" y="-39" font-family="Helvetica,sans-Serif" font-size="10.00" fill="grey"> state_</text>
</g>
</g>
</svg>
