<?xml version="1.0" encoding="UTF-8" standalone="no"?>
<!DOCTYPE svg PUBLIC "-//W3C//DTD SVG 1.1//EN"
 "http://www.w3.org/Graphics/SVG/1.1/DTD/svg11.dtd">
<!-- Generated by graphviz version 12.1.2 (20240928.0832)
 -->
<!-- Title: testing::EmptyTestEventListener Pages: 1 -->
<svg width="321pt" height="138pt"
 viewBox="0.00 0.00 320.62 137.75" xmlns="http://www.w3.org/2000/svg" xmlns:xlink="http://www.w3.org/1999/xlink">
<g id="graph0" class="graph" transform="scale(1 1) rotate(0) translate(4 133.75)">
<title>testing::EmptyTestEventListener</title>
<!-- Node1 -->
<g id="Node000001" class="node">
<title>Node1</title>
<g id="a_Node000001"><a xlink:title=" ">
<polygon fill="#999999" stroke="#666666" points="258.62,-74.5 102.38,-74.5 102.38,-55.25 258.62,-55.25 258.62,-74.5"/>
<text text-anchor="middle" x="180.5" y="-61" font-family="Helvetica,sans-Serif" font-size="10.00">testing::EmptyTestEventListener</text>
</a>
</g>
</g>
<!-- Node3 -->
<g id="Node000003" class="node">
<title>Node3</title>
<g id="a_Node000003"><a xlink:href="classSequenceTestingListener.html" target="_top" xlink:title=" ">
<polygon fill="white" stroke="#bfbfbf" points="127,-19.25 0,-19.25 0,0 127,0 127,-19.25"/>
<text text-anchor="middle" x="63.5" y="-5.75" font-family="Helvetica,sans-Serif" font-size="10.00">SequenceTestingListener</text>
</a>
</g>
</g>
<!-- Node1&#45;&gt;Node3 -->
<g id="edge2_Node000001_Node000003" class="edge">
<title>Node1&#45;&gt;Node3</title>
<g id="a_edge2_Node000001_Node000003"><a xlink:title=" ">
<path fill="none" stroke="#63b8ff" d="M150.32,-50.14C129.28,-40.56 101.8,-28.06 83.44,-19.7"/>
<polygon fill="#63b8ff" stroke="#63b8ff" points="148.72,-53.26 159.27,-54.21 151.62,-46.89 148.72,-53.26"/>
</a>
</g>
</g>
<!-- Node4 -->
<g id="Node000004" class="node">
<title>Node4</title>
<g id="a_Node000004"><a xlink:href="classTestListener.html" target="_top" xlink:title=" ">
<polygon fill="white" stroke="#bfbfbf" points="215.88,-19.25 145.12,-19.25 145.12,0 215.88,0 215.88,-19.25"/>
<text text-anchor="middle" x="180.5" y="-5.75" font-family="Helvetica,sans-Serif" font-size="10.00">TestListener</text>
</a>
</g>
</g>
<!-- Node1&#45;&gt;Node4 -->
<g id="edge3_Node000001_Node000004" class="edge">
<title>Node1&#45;&gt;Node4</title>
<g id="a_edge3_Node000001_Node000004"><a xlink:title=" ">
<path fill="none" stroke="#63b8ff" d="M180.5,-43.63C180.5,-35.34 180.5,-26.17 180.5,-19.61"/>
<polygon fill="#63b8ff" stroke="#63b8ff" points="177,-43.57 180.5,-53.57 184,-43.57 177,-43.57"/>
</a>
</g>
</g>
<!-- Node5 -->
<g id="Node000005" class="node">
<title>Node5</title>
<g id="a_Node000005"><a xlink:href="classThrowListener.html" target="_top" xlink:title=" ">
<polygon fill="white" stroke="#bfbfbf" points="312.62,-19.25 234.38,-19.25 234.38,0 312.62,0 312.62,-19.25"/>
<text text-anchor="middle" x="273.5" y="-5.75" font-family="Helvetica,sans-Serif" font-size="10.00">ThrowListener</text>
</a>
</g>
</g>
<!-- Node1&#45;&gt;Node5 -->
<g id="edge4_Node000001_Node000005" class="edge">
<title>Node1&#45;&gt;Node5</title>
<g id="a_edge4_Node000001_Node000005"><a xlink:title=" ">
<path fill="none" stroke="#63b8ff" d="M205.88,-49.34C222.41,-39.88 243.46,-27.83 257.65,-19.7"/>
<polygon fill="#63b8ff" stroke="#63b8ff" points="204.53,-46.08 197.59,-54.09 208.01,-52.16 204.53,-46.08"/>
</a>
</g>
</g>
<!-- Node2 -->
<g id="Node000002" class="node">
<title>Node2</title>
<g id="a_Node000002"><a xlink:href="classtesting_1_1TestEventListener.html" target="_top" xlink:title=" ">
<polygon fill="white" stroke="#bfbfbf" points="245.12,-129.75 115.88,-129.75 115.88,-110.5 245.12,-110.5 245.12,-129.75"/>
<text text-anchor="middle" x="180.5" y="-116.25" font-family="Helvetica,sans-Serif" font-size="10.00">testing::TestEventListener</text>
</a>
</g>
</g>
<!-- Node2&#45;&gt;Node1 -->
<g id="edge1_Node000001_Node000002" class="edge">
<title>Node2&#45;&gt;Node1</title>
<g id="a_edge1_Node000001_Node000002"><a xlink:title=" ">
<path fill="none" stroke="#63b8ff" d="M180.5,-98.88C180.5,-90.59 180.5,-81.42 180.5,-74.86"/>
<polygon fill="#63b8ff" stroke="#63b8ff" points="177,-98.82 180.5,-108.82 184,-98.82 177,-98.82"/>
</a>
</g>
</g>
</g>
</svg>
