<?xml version="1.0" encoding="UTF-8" standalone="no"?>
<!DOCTYPE svg PUBLIC "-//W3C//DTD SVG 1.1//EN"
 "http://www.w3.org/Graphics/SVG/1.1/DTD/svg11.dtd">
<!-- Generated by graphviz version 12.1.2 (20240928.0832)
 -->
<!-- Title: ParameterizedDerivedTest Pages: 1 -->
<svg width="300pt" height="149pt"
 viewBox="0.00 0.00 300.12 149.00" xmlns="http://www.w3.org/2000/svg" xmlns:xlink="http://www.w3.org/1999/xlink">
<g id="graph0" class="graph" transform="scale(1 1) rotate(0) translate(4 145)">
<title>ParameterizedDerivedTest</title>
<!-- Node1 -->
<g id="Node000001" class="node">
<title>Node1</title>
<g id="a_Node000001"><a xlink:title=" ">
<polygon fill="#999999" stroke="#666666" points="211.5,-19.25 80.75,-19.25 80.75,0 211.5,0 211.5,-19.25"/>
<text text-anchor="middle" x="146.12" y="-5.75" font-family="Helvetica,sans-Serif" font-size="10.00">ParameterizedDerivedTest</text>
</a>
</g>
</g>
<!-- Node2 -->
<g id="Node000002" class="node">
<title>Node2</title>
<g id="a_Node000002"><a xlink:href="classNonParameterizedBaseTest.html" target="_top" xlink:title=" ">
<polygon fill="white" stroke="#bfbfbf" points="138.25,-80.12 0,-80.12 0,-60.88 138.25,-60.88 138.25,-80.12"/>
<text text-anchor="middle" x="69.12" y="-66.62" font-family="Helvetica,sans-Serif" font-size="10.00">NonParameterizedBaseTest</text>
</a>
</g>
</g>
<!-- Node2&#45;&gt;Node1 -->
<g id="edge1_Node000001_Node000002" class="edge">
<title>Node2&#45;&gt;Node1</title>
<g id="a_edge1_Node000001_Node000002"><a xlink:title=" ">
<path fill="none" stroke="#63b8ff" d="M89.89,-53.63C104.13,-42.73 122.52,-28.67 134.32,-19.65"/>
<polygon fill="#63b8ff" stroke="#63b8ff" points="87.84,-50.78 82.02,-59.64 92.09,-56.35 87.84,-50.78"/>
</a>
</g>
</g>
<!-- Node3 -->
<g id="Node000003" class="node">
<title>Node3</title>
<g id="a_Node000003"><a xlink:href="classtesting_1_1Test.html" target="_top" xlink:title=" ">
<polygon fill="white" stroke="#bfbfbf" points="103.75,-141 34.5,-141 34.5,-121.75 103.75,-121.75 103.75,-141"/>
<text text-anchor="middle" x="69.12" y="-127.5" font-family="Helvetica,sans-Serif" font-size="10.00">testing::Test</text>
</a>
</g>
</g>
<!-- Node3&#45;&gt;Node2 -->
<g id="edge2_Node000002_Node000003" class="edge">
<title>Node3&#45;&gt;Node2</title>
<g id="a_edge2_Node000002_Node000003"><a xlink:title=" ">
<path fill="none" stroke="#63b8ff" d="M69.12,-109.95C69.12,-99.92 69.12,-88.33 69.12,-80.53"/>
<polygon fill="#63b8ff" stroke="#63b8ff" points="65.63,-109.92 69.13,-119.92 72.63,-109.92 65.63,-109.92"/>
</a>
</g>
</g>
<!-- Node4 -->
<g id="Node000004" class="node">
<title>Node4</title>
<g id="a_Node000004"><a xlink:href="classtesting_1_1WithParamInterface.html" target="_top" xlink:title=" ">
<polygon fill="white" stroke="#bfbfbf" points="292.12,-85.75 156.12,-85.75 156.12,-55.25 292.12,-55.25 292.12,-85.75"/>
<text text-anchor="start" x="164.12" y="-72.25" font-family="Helvetica,sans-Serif" font-size="10.00">testing::WithParamInterface</text>
<text text-anchor="middle" x="224.12" y="-61" font-family="Helvetica,sans-Serif" font-size="10.00">&lt; int &gt;</text>
</a>
</g>
</g>
<!-- Node4&#45;&gt;Node1 -->
<g id="edge3_Node000001_Node000004" class="edge">
<title>Node4&#45;&gt;Node1</title>
<g id="a_edge3_Node000001_Node000004"><a xlink:title=" ">
<path fill="none" stroke="#63b8ff" d="M195.8,-48.12C182.83,-38.33 168.16,-27.26 158.15,-19.7"/>
<polygon fill="#63b8ff" stroke="#63b8ff" points="193.55,-50.8 203.64,-54.03 197.76,-45.22 193.55,-50.8"/>
</a>
</g>
</g>
</g>
</svg>
