<?xml version="1.0" encoding="UTF-8" standalone="no"?>
<!DOCTYPE svg PUBLIC "-//W3C//DTD SVG 1.1//EN"
 "http://www.w3.org/Graphics/SVG/1.1/DTD/svg11.dtd">
<!-- Generated by graphviz version 12.1.2 (20240928.0832)
 -->
<!-- Title: ParamTest Pages: 1 -->
<svg width="397pt" height="125pt"
 viewBox="0.00 0.00 397.25 124.50" xmlns="http://www.w3.org/2000/svg" xmlns:xlink="http://www.w3.org/1999/xlink">
<g id="graph0" class="graph" transform="scale(1 1) rotate(0) translate(4 120.5)">
<title>ParamTest</title>
<!-- Node1 -->
<g id="Node000001" class="node">
<title>Node1</title>
<g id="a_Node000001"><a xlink:title=" ">
<polygon fill="#999999" stroke="#666666" points="389.25,-66.88 325.25,-66.88 325.25,-47.62 389.25,-47.62 389.25,-66.88"/>
<text text-anchor="middle" x="357.25" y="-53.38" font-family="Helvetica,sans-Serif" font-size="10.00">ParamTest</text>
</a>
</g>
</g>
<!-- Node2 -->
<g id="Node000002" class="node">
<title>Node2</title>
<g id="a_Node000002"><a xlink:href="classtesting_1_1TestWithParam.html" target="_top" xlink:title=" ">
<polygon fill="white" stroke="#bfbfbf" points="289.25,-97.5 172,-97.5 172,-67 289.25,-67 289.25,-97.5"/>
<text text-anchor="start" x="180" y="-84" font-family="Helvetica,sans-Serif" font-size="10.00">testing::TestWithParam</text>
<text text-anchor="middle" x="230.62" y="-72.75" font-family="Helvetica,sans-Serif" font-size="10.00">&lt; int &gt;</text>
</a>
</g>
</g>
<!-- Node2&#45;&gt;Node1 -->
<g id="edge1_Node000001_Node000002" class="edge">
<title>Node2&#45;&gt;Node1</title>
<g id="a_edge1_Node000001_Node000002"><a xlink:title=" ">
<path fill="none" stroke="#63b8ff" d="M300.72,-68.39C309.18,-66.69 317.47,-65.03 324.96,-63.53"/>
<polygon fill="#63b8ff" stroke="#63b8ff" points="300.16,-64.93 291.04,-70.33 301.54,-71.8 300.16,-64.93"/>
</a>
</g>
</g>
<!-- Node3 -->
<g id="Node000003" class="node">
<title>Node3</title>
<g id="a_Node000003"><a xlink:href="classtesting_1_1Test.html" target="_top" xlink:title=" ">
<polygon fill="white" stroke="#bfbfbf" points="102.62,-67.88 33.38,-67.88 33.38,-48.62 102.62,-48.62 102.62,-67.88"/>
<text text-anchor="middle" x="68" y="-54.38" font-family="Helvetica,sans-Serif" font-size="10.00">testing::Test</text>
</a>
</g>
</g>
<!-- Node3&#45;&gt;Node2 -->
<g id="edge2_Node000002_Node000003" class="edge">
<title>Node3&#45;&gt;Node2</title>
<g id="a_edge2_Node000002_Node000003"><a xlink:title=" ">
<path fill="none" stroke="#63b8ff" d="M114.29,-65.02C132.08,-67.68 152.72,-70.76 171.58,-73.58"/>
<polygon fill="#63b8ff" stroke="#63b8ff" points="114.97,-61.58 104.56,-63.56 113.93,-68.5 114.97,-61.58"/>
</a>
</g>
</g>
<!-- Node5 -->
<g id="Node000005" class="node">
<title>Node5</title>
<g id="a_Node000005"><a xlink:href="classtesting_1_1TestWithParam.html" target="_top" xlink:title=" ">
<polygon fill="white" stroke="#bfbfbf" points="289.25,-48.5 172,-48.5 172,-18 289.25,-18 289.25,-48.5"/>
<text text-anchor="start" x="180" y="-35" font-family="Helvetica,sans-Serif" font-size="10.00">testing::TestWithParam</text>
<text text-anchor="middle" x="230.62" y="-23.75" font-family="Helvetica,sans-Serif" font-size="10.00">&lt; std::string &gt;</text>
</a>
</g>
</g>
<!-- Node3&#45;&gt;Node5 -->
<g id="edge5_Node000005_Node000003" class="edge">
<title>Node3&#45;&gt;Node5</title>
<g id="a_edge5_Node000005_Node000003"><a xlink:title=" ">
<path fill="none" stroke="#63b8ff" d="M114.29,-51.2C132.08,-48.43 152.72,-45.22 171.58,-42.28"/>
<polygon fill="#63b8ff" stroke="#63b8ff" points="113.9,-47.72 104.56,-52.72 114.98,-54.64 113.9,-47.72"/>
</a>
</g>
</g>
<!-- Node4 -->
<g id="Node000004" class="node">
<title>Node4</title>
<g id="a_Node000004"><a xlink:href="classtesting_1_1WithParamInterface.html" target="_top" xlink:title=" ">
<polygon fill="white" stroke="#bfbfbf" points="136,-116.5 0,-116.5 0,-86 136,-86 136,-116.5"/>
<text text-anchor="start" x="8" y="-103" font-family="Helvetica,sans-Serif" font-size="10.00">testing::WithParamInterface</text>
<text text-anchor="middle" x="68" y="-91.75" font-family="Helvetica,sans-Serif" font-size="10.00">&lt; int &gt;</text>
</a>
</g>
</g>
<!-- Node4&#45;&gt;Node2 -->
<g id="edge3_Node000002_Node000004" class="edge">
<title>Node4&#45;&gt;Node2</title>
<g id="a_edge3_Node000002_Node000004"><a xlink:title=" ">
<path fill="none" stroke="#63b8ff" d="M147.59,-91.95C155.69,-91 163.81,-90.03 171.63,-89.11"/>
<polygon fill="#63b8ff" stroke="#63b8ff" points="147.21,-88.47 137.69,-93.12 148.03,-95.43 147.21,-88.47"/>
</a>
</g>
</g>
<!-- Node5&#45;&gt;Node1 -->
<g id="edge4_Node000001_Node000005" class="edge">
<title>Node5&#45;&gt;Node1</title>
<g id="a_edge4_Node000001_Node000005"><a xlink:title=" ">
<path fill="none" stroke="#63b8ff" d="M300.72,-46.56C309.18,-48.19 317.47,-49.78 324.96,-51.22"/>
<polygon fill="#63b8ff" stroke="#63b8ff" points="301.53,-43.15 291.05,-44.69 300.2,-50.02 301.53,-43.15"/>
</a>
</g>
</g>
<!-- Node6 -->
<g id="Node000006" class="node">
<title>Node6</title>
<g id="a_Node000006"><a xlink:href="classtesting_1_1WithParamInterface.html" target="_top" xlink:title=" ">
<polygon fill="white" stroke="#bfbfbf" points="136,-30.5 0,-30.5 0,0 136,0 136,-30.5"/>
<text text-anchor="start" x="8" y="-17" font-family="Helvetica,sans-Serif" font-size="10.00">testing::WithParamInterface</text>
<text text-anchor="middle" x="68" y="-5.75" font-family="Helvetica,sans-Serif" font-size="10.00">&lt; std::string &gt;</text>
</a>
</g>
</g>
<!-- Node6&#45;&gt;Node5 -->
<g id="edge6_Node000005_Node000006" class="edge">
<title>Node6&#45;&gt;Node5</title>
<g id="a_edge6_Node000005_Node000006"><a xlink:title=" ">
<path fill="none" stroke="#63b8ff" d="M147.59,-24.06C155.69,-24.96 163.81,-25.88 171.63,-26.75"/>
<polygon fill="#63b8ff" stroke="#63b8ff" points="148.02,-20.58 137.69,-22.95 147.24,-27.54 148.02,-20.58"/>
</a>
</g>
</g>
</g>
</svg>
