<?xml version="1.0" encoding="UTF-8" standalone="no"?>
<!DOCTYPE svg PUBLIC "-//W3C//DTD SVG 1.1//EN"
 "http://www.w3.org/Graphics/SVG/1.1/DTD/svg11.dtd">
<!-- Generated by graphviz version 12.1.2 (20240928.0832)
 -->
<!-- Title: testing::StrictMock&lt; MockClass &gt; Pages: 1 -->
<svg width="242pt" height="105pt"
 viewBox="0.00 0.00 241.50 105.00" xmlns="http://www.w3.org/2000/svg" xmlns:xlink="http://www.w3.org/1999/xlink">
<g id="graph0" class="graph" transform="scale(1 1) rotate(0) translate(4 101)">
<title>testing::StrictMock&lt; MockClass &gt;</title>
<!-- Node1 -->
<g id="Node000001" class="node">
<title>Node1</title>
<g id="a_Node000001"><a xlink:title=" ">
<polygon fill="#999999" stroke="#666666" points="185.12,-30.5 88.12,-30.5 88.12,0 185.12,0 185.12,-30.5"/>
<text text-anchor="start" x="96.12" y="-17" font-family="Helvetica,sans-Serif" font-size="10.00">testing::StrictMock</text>
<text text-anchor="middle" x="136.62" y="-5.75" font-family="Helvetica,sans-Serif" font-size="10.00">&lt; MockClass &gt;</text>
</a>
</g>
</g>
<!-- Node2 -->
<g id="Node000002" class="node">
<title>Node2</title>
<g id="a_Node000002"><a xlink:href="classtesting_1_1internal_1_1StrictMockImpl.html" target="_top" xlink:title=" ">
<polygon fill="white" stroke="#bfbfbf" points="147.25,-97 0,-97 0,-66.5 147.25,-66.5 147.25,-97"/>
<text text-anchor="start" x="8" y="-83.5" font-family="Helvetica,sans-Serif" font-size="10.00">testing::internal::</text>
<text text-anchor="middle" x="73.62" y="-72.25" font-family="Helvetica,sans-Serif" font-size="10.00">StrictMockImpl&lt; MockClass &gt;</text>
</a>
</g>
</g>
<!-- Node2&#45;&gt;Node1 -->
<g id="edge1_Node000001_Node000002" class="edge">
<title>Node2&#45;&gt;Node1</title>
<g id="a_edge1_Node000001_Node000002"><a xlink:title=" ">
<path fill="none" stroke="#8b1a1a" d="M95.93,-57.91C104.73,-48.9 114.58,-38.82 122.39,-30.83"/>
<polygon fill="#8b1a1a" stroke="#8b1a1a" points="93.46,-55.43 88.98,-65.03 98.47,-60.32 93.46,-55.43"/>
</a>
</g>
</g>
<!-- Node3 -->
<g id="Node000003" class="node">
<title>Node3</title>
<g id="a_Node000003"><a xlink:title=" ">
<polygon fill="white" stroke="#bfbfbf" points="233.5,-91.38 165.75,-91.38 165.75,-72.12 233.5,-72.12 233.5,-91.38"/>
<text text-anchor="middle" x="199.62" y="-77.88" font-family="Helvetica,sans-Serif" font-size="10.00">anonymous:</text>
</a>
</g>
</g>
<!-- Node3&#45;&gt;Node1 -->
<g id="edge2_Node000001_Node000003" class="edge">
<title>Node3&#45;&gt;Node1</title>
<g id="a_edge2_Node000001_Node000003"><a xlink:title=" ">
<path fill="none" stroke="#63b8ff" d="M182.84,-63.56C172.78,-53.27 160.15,-40.34 150.64,-30.59"/>
<polygon fill="#63b8ff" stroke="#63b8ff" points="180.32,-65.99 189.81,-70.7 185.32,-61.1 180.32,-65.99"/>
</a>
</g>
</g>
</g>
</svg>
