<?xml version="1.0" encoding="UTF-8" standalone="no"?>
<!DOCTYPE svg PUBLIC "-//W3C//DTD SVG 1.1//EN"
 "http://www.w3.org/Graphics/SVG/1.1/DTD/svg11.dtd">
<!-- Generated by graphviz version 12.1.2 (20240928.0832)
 -->
<!-- Title: testing::NaggyMock&lt; MockClass &gt; Pages: 1 -->
<svg width="246pt" height="105pt"
 viewBox="0.00 0.00 245.75 105.00" xmlns="http://www.w3.org/2000/svg" xmlns:xlink="http://www.w3.org/1999/xlink">
<g id="graph0" class="graph" transform="scale(1 1) rotate(0) translate(4 101)">
<title>testing::NaggyMock&lt; MockClass &gt;</title>
<!-- Node1 -->
<g id="Node000001" class="node">
<title>Node1</title>
<g id="a_Node000001"><a xlink:title=" ">
<polygon fill="#999999" stroke="#666666" points="190.62,-30.5 89.12,-30.5 89.12,0 190.62,0 190.62,-30.5"/>
<text text-anchor="start" x="97.12" y="-17" font-family="Helvetica,sans-Serif" font-size="10.00">testing::NaggyMock</text>
<text text-anchor="middle" x="139.88" y="-5.75" font-family="Helvetica,sans-Serif" font-size="10.00">&lt; MockClass &gt;</text>
</a>
</g>
</g>
<!-- Node2 -->
<g id="Node000002" class="node">
<title>Node2</title>
<g id="a_Node000002"><a xlink:href="classtesting_1_1internal_1_1NaggyMockImpl.html" target="_top" xlink:title=" ">
<polygon fill="white" stroke="#bfbfbf" points="151.75,-97 0,-97 0,-66.5 151.75,-66.5 151.75,-97"/>
<text text-anchor="start" x="8" y="-83.5" font-family="Helvetica,sans-Serif" font-size="10.00">testing::internal::</text>
<text text-anchor="middle" x="75.88" y="-72.25" font-family="Helvetica,sans-Serif" font-size="10.00">NaggyMockImpl&lt; MockClass &gt;</text>
</a>
</g>
</g>
<!-- Node2&#45;&gt;Node1 -->
<g id="edge1_Node000001_Node000002" class="edge">
<title>Node2&#45;&gt;Node1</title>
<g id="a_edge1_Node000001_Node000002"><a xlink:title=" ">
<path fill="none" stroke="#8b1a1a" d="M98.26,-58.19C107.27,-49.11 117.4,-38.9 125.41,-30.83"/>
<polygon fill="#8b1a1a" stroke="#8b1a1a" points="96.02,-55.48 91.46,-65.04 100.99,-60.41 96.02,-55.48"/>
</a>
</g>
</g>
<!-- Node3 -->
<g id="Node000003" class="node">
<title>Node3</title>
<g id="a_Node000003"><a xlink:title=" ">
<polygon fill="white" stroke="#bfbfbf" points="237.75,-91.38 170,-91.38 170,-72.12 237.75,-72.12 237.75,-91.38"/>
<text text-anchor="middle" x="203.88" y="-77.88" font-family="Helvetica,sans-Serif" font-size="10.00">anonymous:</text>
</a>
</g>
</g>
<!-- Node3&#45;&gt;Node1 -->
<g id="edge2_Node000001_Node000003" class="edge">
<title>Node3&#45;&gt;Node1</title>
<g id="a_edge2_Node000001_Node000003"><a xlink:title=" ">
<path fill="none" stroke="#63b8ff" d="M187.13,-63.87C176.87,-53.53 163.87,-40.43 154.11,-30.59"/>
<polygon fill="#63b8ff" stroke="#63b8ff" points="184.38,-66.07 193.91,-70.71 189.35,-61.14 184.38,-66.07"/>
</a>
</g>
</g>
</g>
</svg>
