<?xml version="1.0" encoding="UTF-8" standalone="no"?>
<!DOCTYPE svg PUBLIC "-//W3C//DTD SVG 1.1//EN"
 "http://www.w3.org/Graphics/SVG/1.1/DTD/svg11.dtd">
<!-- Generated by graphviz version 12.1.2 (20240928.0832)
 -->
<!-- Title: testing::TestEventListener Pages: 1 -->
<svg width="493pt" height="309pt"
 viewBox="0.00 0.00 492.50 308.88" xmlns="http://www.w3.org/2000/svg" xmlns:xlink="http://www.w3.org/1999/xlink">
<g id="graph0" class="graph" transform="scale(1 1) rotate(0) translate(4 304.88)">
<title>testing::TestEventListener</title>
<!-- Node1 -->
<g id="Node000001" class="node">
<title>Node1</title>
<g id="a_Node000001"><a xlink:title=" ">
<polygon fill="#999999" stroke="#666666" points="129.25,-146.88 0,-146.88 0,-127.62 129.25,-127.62 129.25,-146.88"/>
<text text-anchor="middle" x="64.62" y="-133.38" font-family="Helvetica,sans-Serif" font-size="10.00">testing::TestEventListener</text>
</a>
</g>
</g>
<!-- Node2 -->
<g id="Node000002" class="node">
<title>Node2</title>
<g id="a_Node000002"><a xlink:href="classtesting_1_1EmptyTestEventListener.html" target="_top" xlink:title=" ">
<polygon fill="white" stroke="#bfbfbf" points="321.5,-263.88 165.25,-263.88 165.25,-244.62 321.5,-244.62 321.5,-263.88"/>
<text text-anchor="middle" x="243.38" y="-250.38" font-family="Helvetica,sans-Serif" font-size="10.00">testing::EmptyTestEventListener</text>
</a>
</g>
</g>
<!-- Node1&#45;&gt;Node2 -->
<g id="edge1_Node000001_Node000002" class="edge">
<title>Node1&#45;&gt;Node2</title>
<g id="a_edge1_Node000001_Node000002"><a xlink:title=" ">
<path fill="none" stroke="#63b8ff" d="M79.65,-156.24C97.18,-178.58 129.27,-215.15 165.25,-235.25 171.75,-238.88 178.94,-241.83 186.24,-244.21"/>
<polygon fill="#63b8ff" stroke="#63b8ff" points="82.64,-154.38 73.78,-148.56 77.07,-158.63 82.64,-154.38"/>
</a>
</g>
</g>
<!-- Node6 -->
<g id="Node000006" class="node">
<title>Node6</title>
<g id="a_Node000006"><a xlink:href="classtesting_1_1internal_1_1BriefUnitTestResultPrinter.html" target="_top" xlink:title=" ">
<polygon fill="white" stroke="#bfbfbf" points="308.38,-226.5 178.38,-226.5 178.38,-196 308.38,-196 308.38,-226.5"/>
<text text-anchor="start" x="186.38" y="-213" font-family="Helvetica,sans-Serif" font-size="10.00">testing::internal::</text>
<text text-anchor="middle" x="243.38" y="-201.75" font-family="Helvetica,sans-Serif" font-size="10.00">BriefUnitTestResultPrinter</text>
</a>
</g>
</g>
<!-- Node1&#45;&gt;Node6 -->
<g id="edge5_Node000001_Node000006" class="edge">
<title>Node1&#45;&gt;Node6</title>
<g id="a_edge5_Node000001_Node000006"><a xlink:title=" ">
<path fill="none" stroke="#63b8ff" d="M94.1,-152.62C113.76,-162.89 140.68,-176.29 165.25,-186.25 173.34,-189.53 182.03,-192.69 190.56,-195.59"/>
<polygon fill="#63b8ff" stroke="#63b8ff" points="95.8,-149.56 85.33,-147.98 92.53,-155.75 95.8,-149.56"/>
</a>
</g>
</g>
<!-- Node7 -->
<g id="Node000007" class="node">
<title>Node7</title>
<g id="a_Node000007"><a xlink:href="classtesting_1_1internal_1_1EventRecordingListener.html" target="_top" xlink:title=" ">
<polygon fill="white" stroke="#bfbfbf" points="303.12,-177.5 183.62,-177.5 183.62,-147 303.12,-147 303.12,-177.5"/>
<text text-anchor="start" x="191.62" y="-164" font-family="Helvetica,sans-Serif" font-size="10.00">testing::internal::</text>
<text text-anchor="middle" x="243.38" y="-152.75" font-family="Helvetica,sans-Serif" font-size="10.00">EventRecordingListener</text>
</a>
</g>
</g>
<!-- Node1&#45;&gt;Node7 -->
<g id="edge6_Node000001_Node000007" class="edge">
<title>Node1&#45;&gt;Node7</title>
<g id="a_edge6_Node000001_Node000007"><a xlink:title=" ">
<path fill="none" stroke="#63b8ff" d="M140.91,-147.9C155.06,-149.9 169.66,-151.97 183.24,-153.89"/>
<polygon fill="#63b8ff" stroke="#63b8ff" points="141.58,-144.46 131.18,-146.52 140.6,-151.39 141.58,-144.46"/>
</a>
</g>
</g>
<!-- Node8 -->
<g id="Node000008" class="node">
<title>Node8</title>
<g id="a_Node000008"><a xlink:href="classtesting_1_1internal_1_1EventRecordingListener2.html" target="_top" xlink:title=" ">
<polygon fill="white" stroke="#bfbfbf" points="305.75,-128.5 181,-128.5 181,-98 305.75,-98 305.75,-128.5"/>
<text text-anchor="start" x="189" y="-115" font-family="Helvetica,sans-Serif" font-size="10.00">testing::internal::</text>
<text text-anchor="middle" x="243.38" y="-103.75" font-family="Helvetica,sans-Serif" font-size="10.00">EventRecordingListener2</text>
</a>
</g>
</g>
<!-- Node1&#45;&gt;Node8 -->
<g id="edge7_Node000001_Node000008" class="edge">
<title>Node1&#45;&gt;Node8</title>
<g id="a_edge7_Node000001_Node000008"><a xlink:title=" ">
<path fill="none" stroke="#63b8ff" d="M140.73,-127.05C154.02,-125.25 167.73,-123.39 180.6,-121.64"/>
<polygon fill="#63b8ff" stroke="#63b8ff" points="140.62,-123.53 131.19,-128.35 141.57,-130.47 140.62,-123.53"/>
</a>
</g>
</g>
<!-- Node9 -->
<g id="Node000009" class="node">
<title>Node9</title>
<g id="a_Node000009"><a xlink:href="classtesting_1_1internal_1_1PrettyUnitTestResultPrinter.html" target="_top" xlink:title=" ">
<polygon fill="white" stroke="#bfbfbf" points="311,-79.5 175.75,-79.5 175.75,-49 311,-49 311,-79.5"/>
<text text-anchor="start" x="183.75" y="-66" font-family="Helvetica,sans-Serif" font-size="10.00">testing::internal::</text>
<text text-anchor="middle" x="243.38" y="-54.75" font-family="Helvetica,sans-Serif" font-size="10.00">PrettyUnitTestResultPrinter</text>
</a>
</g>
</g>
<!-- Node1&#45;&gt;Node9 -->
<g id="edge8_Node000001_Node000009" class="edge">
<title>Node1&#45;&gt;Node9</title>
<g id="a_edge8_Node000001_Node000009"><a xlink:title=" ">
<path fill="none" stroke="#63b8ff" d="M94.5,-122.05C114.14,-112.04 140.89,-99.01 165.25,-89.25 173.35,-86 182.05,-82.86 190.59,-79.97"/>
<polygon fill="#63b8ff" stroke="#63b8ff" points="93.01,-118.88 85.73,-126.57 96.22,-125.1 93.01,-118.88"/>
</a>
</g>
</g>
<!-- Node10 -->
<g id="Node000010" class="node">
<title>Node10</title>
<g id="a_Node000010"><a xlink:href="classtesting_1_1internal_1_1TestEventRepeater.html" target="_top" xlink:title=" ">
<polygon fill="white" stroke="#bfbfbf" points="293,-30.5 193.75,-30.5 193.75,0 293,0 293,-30.5"/>
<text text-anchor="start" x="201.75" y="-17" font-family="Helvetica,sans-Serif" font-size="10.00">testing::internal::</text>
<text text-anchor="middle" x="243.38" y="-5.75" font-family="Helvetica,sans-Serif" font-size="10.00">TestEventRepeater</text>
</a>
</g>
</g>
<!-- Node1&#45;&gt;Node10 -->
<g id="edge9_Node000001_Node000010" class="edge">
<title>Node1&#45;&gt;Node10</title>
<g id="a_edge9_Node000001_Node000010"><a xlink:title=" ">
<path fill="none" stroke="#63b8ff" d="M80.46,-118.26C98.38,-96.52 130.47,-61.23 165.25,-40.25 173.93,-35.02 183.83,-30.75 193.57,-27.32"/>
<polygon fill="#63b8ff" stroke="#63b8ff" points="77.76,-116.03 74.22,-126.01 83.22,-120.42 77.76,-116.03"/>
</a>
</g>
</g>
<!-- Node3 -->
<g id="Node000003" class="node">
<title>Node3</title>
<g id="a_Node000003"><a xlink:href="classSequenceTestingListener.html" target="_top" xlink:title=" ">
<polygon fill="white" stroke="#bfbfbf" points="484.5,-300.88 357.5,-300.88 357.5,-281.62 484.5,-281.62 484.5,-300.88"/>
<text text-anchor="middle" x="421" y="-287.38" font-family="Helvetica,sans-Serif" font-size="10.00">SequenceTestingListener</text>
</a>
</g>
</g>
<!-- Node2&#45;&gt;Node3 -->
<g id="edge2_Node000002_Node000003" class="edge">
<title>Node2&#45;&gt;Node3</title>
<g id="a_edge2_Node000002_Node000003"><a xlink:title=" ">
<path fill="none" stroke="#63b8ff" d="M303.41,-266.69C325.75,-271.39 350.88,-276.69 372.07,-281.15"/>
<polygon fill="#63b8ff" stroke="#63b8ff" points="304.35,-263.31 293.85,-264.67 302.91,-270.16 304.35,-263.31"/>
</a>
</g>
</g>
<!-- Node4 -->
<g id="Node000004" class="node">
<title>Node4</title>
<g id="a_Node000004"><a xlink:href="classTestListener.html" target="_top" xlink:title=" ">
<polygon fill="white" stroke="#bfbfbf" points="456.38,-263.88 385.62,-263.88 385.62,-244.62 456.38,-244.62 456.38,-263.88"/>
<text text-anchor="middle" x="421" y="-250.38" font-family="Helvetica,sans-Serif" font-size="10.00">TestListener</text>
</a>
</g>
</g>
<!-- Node2&#45;&gt;Node4 -->
<g id="edge3_Node000002_Node000004" class="edge">
<title>Node2&#45;&gt;Node4</title>
<g id="a_edge3_Node000002_Node000004"><a xlink:title=" ">
<path fill="none" stroke="#63b8ff" d="M333.17,-254.25C351.79,-254.25 370.34,-254.25 385.49,-254.25"/>
<polygon fill="#63b8ff" stroke="#63b8ff" points="333.43,-250.75 323.43,-254.25 333.43,-257.75 333.43,-250.75"/>
</a>
</g>
</g>
<!-- Node5 -->
<g id="Node000005" class="node">
<title>Node5</title>
<g id="a_Node000005"><a xlink:href="classThrowListener.html" target="_top" xlink:title=" ">
<polygon fill="white" stroke="#bfbfbf" points="460.12,-226.88 381.88,-226.88 381.88,-207.62 460.12,-207.62 460.12,-226.88"/>
<text text-anchor="middle" x="421" y="-213.38" font-family="Helvetica,sans-Serif" font-size="10.00">ThrowListener</text>
</a>
</g>
</g>
<!-- Node2&#45;&gt;Node5 -->
<g id="edge4_Node000002_Node000005" class="edge">
<title>Node2&#45;&gt;Node5</title>
<g id="a_edge4_Node000002_Node000005"><a xlink:title=" ">
<path fill="none" stroke="#63b8ff" d="M303.51,-241.79C329.25,-236.37 358.67,-230.17 381.51,-225.36"/>
<polygon fill="#63b8ff" stroke="#63b8ff" points="302.91,-238.34 293.85,-243.83 304.35,-245.19 302.91,-238.34"/>
</a>
</g>
</g>
</g>
</svg>
