<?xml version="1.0" encoding="UTF-8" standalone="no"?>
<!DOCTYPE svg PUBLIC "-//W3C//DTD SVG 1.1//EN"
 "http://www.w3.org/Graphics/SVG/1.1/DTD/svg11.dtd">
<!-- Generated by graphviz version 12.1.2 (20240928.0832)
 -->
<!-- Title: TypedTestP&lt; T &gt; Pages: 1 -->
<svg width="130pt" height="83pt"
 viewBox="0.00 0.00 130.38 82.50" xmlns="http://www.w3.org/2000/svg" xmlns:xlink="http://www.w3.org/1999/xlink">
<g id="graph0" class="graph" transform="scale(1 1) rotate(0) translate(4 78.5)">
<title>TypedTestP&lt; T &gt;</title>
<!-- Node1 -->
<g id="Node000001" class="node">
<title>Node1</title>
<g id="a_Node000001"><a xlink:title=" ">
<polygon fill="#999999" stroke="#666666" points="98.25,-19.25 7.25,-19.25 7.25,0 98.25,0 98.25,-19.25"/>
<text text-anchor="middle" x="52.75" y="-5.75" font-family="Helvetica,sans-Serif" font-size="10.00">TypedTestP&lt; T &gt;</text>
</a>
</g>
</g>
<!-- Node2 -->
<g id="Node000002" class="node">
<title>Node2</title>
<g id="a_Node000002"><a xlink:title=" ">
<polygon fill="white" stroke="#bfbfbf" points="35.5,-74.5 0,-74.5 0,-55.25 35.5,-55.25 35.5,-74.5"/>
<text text-anchor="middle" x="17.75" y="-61" font-family="Helvetica,sans-Serif" font-size="10.00">Test</text>
</a>
</g>
</g>
<!-- Node2&#45;&gt;Node1 -->
<g id="edge1_Node000001_Node000002" class="edge">
<title>Node2&#45;&gt;Node1</title>
<g id="a_edge1_Node000001_Node000002"><a xlink:title=" ">
<path fill="none" stroke="#63b8ff" d="M29.73,-45.65C35.5,-36.86 42.18,-26.71 46.84,-19.61"/>
<polygon fill="#63b8ff" stroke="#63b8ff" points="26.93,-43.54 24.36,-53.82 32.78,-47.38 26.93,-43.54"/>
</a>
</g>
</g>
<!-- Node3 -->
<g id="Node000003" class="node">
<title>Node3</title>
<g id="a_Node000003"><a xlink:href="classtesting_1_1Test.html" target="_top" xlink:title=" ">
<polygon fill="white" stroke="#bfbfbf" points="122.38,-74.5 53.12,-74.5 53.12,-55.25 122.38,-55.25 122.38,-74.5"/>
<text text-anchor="middle" x="87.75" y="-61" font-family="Helvetica,sans-Serif" font-size="10.00">testing::Test</text>
</a>
</g>
</g>
<!-- Node3&#45;&gt;Node1 -->
<g id="edge2_Node000001_Node000003" class="edge">
<title>Node3&#45;&gt;Node1</title>
<g id="a_edge2_Node000001_Node000003"><a xlink:title=" ">
<path fill="none" stroke="#63b8ff" d="M75.77,-45.65C70,-36.86 63.32,-26.71 58.66,-19.61"/>
<polygon fill="#63b8ff" stroke="#63b8ff" points="72.72,-47.38 81.14,-53.82 78.57,-43.54 72.72,-47.38"/>
</a>
</g>
</g>
</g>
</svg>
