<?xml version="1.0" encoding="UTF-8" standalone="no"?>
<!DOCTYPE svg PUBLIC "-//W3C//DTD SVG 1.1//EN"
 "http://www.w3.org/Graphics/SVG/1.1/DTD/svg11.dtd">
<!-- Generated by graphviz version 12.1.2 (20240928.0832)
 -->
<!-- Title: DynamicTest&lt; Pass &gt; Pages: 1 -->
<svg width="230pt" height="138pt"
 viewBox="0.00 0.00 229.50 137.75" xmlns="http://www.w3.org/2000/svg" xmlns:xlink="http://www.w3.org/1999/xlink">
<g id="graph0" class="graph" transform="scale(1 1) rotate(0) translate(4 133.75)">
<title>DynamicTest&lt; Pass &gt;</title>
<!-- Node1 -->
<g id="Node000001" class="node">
<title>Node1</title>
<g id="a_Node000001"><a xlink:title=" ">
<polygon fill="#999999" stroke="#666666" points="157.38,-19.25 45.38,-19.25 45.38,0 157.38,0 157.38,-19.25"/>
<text text-anchor="middle" x="101.38" y="-5.75" font-family="Helvetica,sans-Serif" font-size="10.00">DynamicTest&lt; Pass &gt;</text>
</a>
</g>
</g>
<!-- Node2 -->
<g id="Node000002" class="node">
<title>Node2</title>
<g id="a_Node000002"><a xlink:href="classDynamicFixture.html" target="_top" xlink:title=" ">
<polygon fill="white" stroke="#bfbfbf" points="82.75,-74.5 0,-74.5 0,-55.25 82.75,-55.25 82.75,-74.5"/>
<text text-anchor="middle" x="41.38" y="-61" font-family="Helvetica,sans-Serif" font-size="10.00">DynamicFixture</text>
</a>
</g>
</g>
<!-- Node2&#45;&gt;Node1 -->
<g id="edge1_Node000001_Node000002" class="edge">
<title>Node2&#45;&gt;Node1</title>
<g id="a_edge1_Node000001_Node000002"><a xlink:title=" ">
<path fill="none" stroke="#63b8ff" d="M59.95,-47.39C70.31,-38.19 82.81,-27.1 91.35,-19.52"/>
<polygon fill="#63b8ff" stroke="#63b8ff" points="57.84,-44.58 52.69,-53.84 62.49,-49.82 57.84,-44.58"/>
</a>
</g>
</g>
<!-- Node3 -->
<g id="Node000003" class="node">
<title>Node3</title>
<g id="a_Node000003"><a xlink:href="classtesting_1_1Test.html" target="_top" xlink:title=" ">
<polygon fill="white" stroke="#bfbfbf" points="136,-129.75 66.75,-129.75 66.75,-110.5 136,-110.5 136,-129.75"/>
<text text-anchor="middle" x="101.38" y="-116.25" font-family="Helvetica,sans-Serif" font-size="10.00">testing::Test</text>
</a>
</g>
</g>
<!-- Node3&#45;&gt;Node2 -->
<g id="edge2_Node000002_Node000003" class="edge">
<title>Node3&#45;&gt;Node2</title>
<g id="a_edge2_Node000002_Node000003"><a xlink:title=" ">
<path fill="none" stroke="#63b8ff" d="M82.8,-102.64C72.44,-93.44 59.94,-82.35 51.4,-74.77"/>
<polygon fill="#63b8ff" stroke="#63b8ff" points="80.26,-105.07 90.06,-109.09 84.91,-99.83 80.26,-105.07"/>
</a>
</g>
</g>
<!-- Node4 -->
<g id="Node000004" class="node">
<title>Node4</title>
<g id="a_Node000004"><a xlink:href="classDynamicUnitTestFixture.html" target="_top" xlink:title=" ">
<polygon fill="white" stroke="#bfbfbf" points="221.5,-74.5 101.25,-74.5 101.25,-55.25 221.5,-55.25 221.5,-74.5"/>
<text text-anchor="middle" x="161.38" y="-61" font-family="Helvetica,sans-Serif" font-size="10.00">DynamicUnitTestFixture</text>
</a>
</g>
</g>
<!-- Node3&#45;&gt;Node4 -->
<g id="edge4_Node000004_Node000003" class="edge">
<title>Node3&#45;&gt;Node4</title>
<g id="a_edge4_Node000004_Node000003"><a xlink:title=" ">
<path fill="none" stroke="#63b8ff" d="M119.95,-102.64C130.31,-93.44 142.81,-82.35 151.35,-74.77"/>
<polygon fill="#63b8ff" stroke="#63b8ff" points="117.84,-99.83 112.69,-109.09 122.49,-105.07 117.84,-99.83"/>
</a>
</g>
</g>
<!-- Node4&#45;&gt;Node1 -->
<g id="edge3_Node000001_Node000004" class="edge">
<title>Node4&#45;&gt;Node1</title>
<g id="a_edge3_Node000001_Node000004"><a xlink:title=" ">
<path fill="none" stroke="#63b8ff" d="M142.8,-47.39C132.44,-38.19 119.94,-27.1 111.4,-19.52"/>
<polygon fill="#63b8ff" stroke="#63b8ff" points="140.26,-49.82 150.06,-53.84 144.91,-44.58 140.26,-49.82"/>
</a>
</g>
</g>
</g>
</svg>
