<?xml version="1.0" encoding="UTF-8" standalone="no"?>
<!DOCTYPE svg PUBLIC "-//W3C//DTD SVG 1.1//EN"
 "http://www.w3.org/Graphics/SVG/1.1/DTD/svg11.dtd">
<!-- Generated by graphviz version 12.1.2 (20240928.0832)
 -->
<!-- Title: TypedTest&lt; T &gt; Pages: 1 -->
<svg width="138pt" height="83pt"
 viewBox="0.00 0.00 137.88 82.50" xmlns="http://www.w3.org/2000/svg" xmlns:xlink="http://www.w3.org/1999/xlink">
<g id="graph0" class="graph" transform="scale(1 1) rotate(0) translate(4 78.5)">
<title>TypedTest&lt; T &gt;</title>
<!-- Node1 -->
<g id="Node000001" class="node">
<title>Node1</title>
<g id="a_Node000001"><a xlink:title=" ">
<polygon fill="#999999" stroke="#666666" points="129.88,-19.25 45.62,-19.25 45.62,0 129.88,0 129.88,-19.25"/>
<text text-anchor="middle" x="87.75" y="-5.75" font-family="Helvetica,sans-Serif" font-size="10.00">TypedTest&lt; T &gt;</text>
</a>
</g>
</g>
<!-- Node2 -->
<g id="Node000002" class="node">
<title>Node2</title>
<g id="a_Node000002"><a xlink:title=" ">
<polygon fill="white" stroke="#bfbfbf" points="35.5,-74.5 0,-74.5 0,-55.25 35.5,-55.25 35.5,-74.5"/>
<text text-anchor="middle" x="17.75" y="-61" font-family="Helvetica,sans-Serif" font-size="10.00">Test</text>
</a>
</g>
</g>
<!-- Node2&#45;&gt;Node1 -->
<g id="edge1_Node000001_Node000002" class="edge">
<title>Node2&#45;&gt;Node1</title>
<g id="a_edge1_Node000001_Node000002"><a xlink:title=" ">
<path fill="none" stroke="#63b8ff" d="M33.07,-47.43C44.21,-38.3 59.04,-27.29 70.59,-19.7"/>
<polygon fill="#63b8ff" stroke="#63b8ff" points="30.88,-44.7 25.56,-53.86 35.43,-50.02 30.88,-44.7"/>
</a>
</g>
</g>
<!-- Node2&#45;&gt;Node1 -->
<g id="edge5_Node000001_Node000002" class="edge">
<title>Node2&#45;&gt;Node1</title>
<g id="a_edge5_Node000001_Node000002"><a xlink:title=" ">
<path fill="none" stroke="#63b8ff" d="M44.16,-48.49C57.51,-39.09 72.54,-27.41 81.24,-19.52"/>
<polygon fill="#63b8ff" stroke="#63b8ff" points="42.38,-45.46 36.09,-53.99 46.33,-51.25 42.38,-45.46"/>
</a>
</g>
</g>
<!-- Node3 -->
<g id="Node000003" class="node">
<title>Node3</title>
<g id="a_Node000003"><a xlink:href="classtesting_1_1Test.html" target="_top" xlink:title=" ">
<polygon fill="white" stroke="#bfbfbf" points="122.38,-74.5 53.12,-74.5 53.12,-55.25 122.38,-55.25 122.38,-74.5"/>
<text text-anchor="middle" x="87.75" y="-61" font-family="Helvetica,sans-Serif" font-size="10.00">testing::Test</text>
</a>
</g>
</g>
<!-- Node3&#45;&gt;Node1 -->
<g id="edge2_Node000001_Node000003" class="edge">
<title>Node3&#45;&gt;Node1</title>
<g id="a_edge2_Node000001_Node000003"><a xlink:title=" ">
<path fill="none" stroke="#63b8ff" d="M74.63,-43.92C73.65,-35.55 74.55,-26.25 77.34,-19.61"/>
<polygon fill="#63b8ff" stroke="#63b8ff" points="71.24,-44.76 77.05,-53.61 78.03,-43.06 71.24,-44.76"/>
</a>
</g>
</g>
<!-- Node3&#45;&gt;Node1 -->
<g id="edge3_Node000001_Node000003" class="edge">
<title>Node3&#45;&gt;Node1</title>
<g id="a_edge3_Node000001_Node000003"><a xlink:title=" ">
<path fill="none" stroke="#63b8ff" d="M87.75,-43.63C87.75,-35.34 87.75,-26.17 87.75,-19.61"/>
<polygon fill="#63b8ff" stroke="#63b8ff" points="84.25,-43.57 87.75,-53.57 91.25,-43.57 84.25,-43.57"/>
</a>
</g>
</g>
<!-- Node3&#45;&gt;Node1 -->
<g id="edge4_Node000001_Node000003" class="edge">
<title>Node3&#45;&gt;Node1</title>
<g id="a_edge4_Node000001_Node000003"><a xlink:title=" ">
<path fill="none" stroke="#63b8ff" d="M100.87,-43.92C101.85,-35.55 100.95,-26.25 98.16,-19.61"/>
<polygon fill="#63b8ff" stroke="#63b8ff" points="97.47,-43.06 98.45,-53.61 104.26,-44.76 97.47,-43.06"/>
</a>
</g>
</g>
</g>
</svg>
