<?xml version="1.0" encoding="UTF-8" standalone="no"?>
<!DOCTYPE svg PUBLIC "-//W3C//DTD SVG 1.1//EN"
 "http://www.w3.org/Graphics/SVG/1.1/DTD/svg11.dtd">
<!-- Generated by graphviz version 12.1.2 (20240928.0832)
 -->
<!-- Title: testing::internal::TestFactoryBase Pages: 1 -->
<svg width="282pt" height="98pt"
 viewBox="0.00 0.00 281.50 98.12" xmlns="http://www.w3.org/2000/svg" xmlns:xlink="http://www.w3.org/1999/xlink">
<g id="graph0" class="graph" transform="scale(1 1) rotate(0) translate(4 94.12)">
<title>testing::internal::TestFactoryBase</title>
<!-- Node1 -->
<g id="Node000001" class="node">
<title>Node1</title>
<g id="a_Node000001"><a xlink:title=" ">
<polygon fill="#999999" stroke="#666666" points="90.25,-57.5 0,-57.5 0,-27 90.25,-27 90.25,-57.5"/>
<text text-anchor="start" x="8" y="-44" font-family="Helvetica,sans-Serif" font-size="10.00">testing::internal::</text>
<text text-anchor="middle" x="45.12" y="-32.75" font-family="Helvetica,sans-Serif" font-size="10.00">TestFactoryBase</text>
</a>
</g>
</g>
<!-- Node2 -->
<g id="Node000002" class="node">
<title>Node2</title>
<g id="a_Node000002"><a xlink:href="classtesting_1_1internal_1_1ParameterizedTestFactory.html" target="_top" xlink:title=" ">
<polygon fill="white" stroke="#bfbfbf" points="264.88,-90.12 134.88,-90.12 134.88,-48.38 264.88,-48.38 264.88,-90.12"/>
<text text-anchor="start" x="142.88" y="-76.62" font-family="Helvetica,sans-Serif" font-size="10.00">testing::internal::</text>
<text text-anchor="start" x="142.88" y="-65.38" font-family="Helvetica,sans-Serif" font-size="10.00">ParameterizedTestFactory</text>
<text text-anchor="middle" x="199.88" y="-54.12" font-family="Helvetica,sans-Serif" font-size="10.00">&lt; TestClass &gt;</text>
</a>
</g>
</g>
<!-- Node1&#45;&gt;Node2 -->
<g id="edge1_Node000001_Node000002" class="edge">
<title>Node1&#45;&gt;Node2</title>
<g id="a_edge1_Node000001_Node000002"><a xlink:title=" ">
<path fill="none" stroke="#63b8ff" d="M101.97,-52.12C112.6,-54 123.79,-55.98 134.65,-57.9"/>
<polygon fill="#63b8ff" stroke="#63b8ff" points="102.66,-48.69 92.21,-50.4 101.45,-55.58 102.66,-48.69"/>
</a>
</g>
</g>
<!-- Node3 -->
<g id="Node000003" class="node">
<title>Node3</title>
<g id="a_Node000003"><a xlink:href="classtesting_1_1internal_1_1TestFactoryImpl.html" target="_top" xlink:title=" ">
<polygon fill="white" stroke="#bfbfbf" points="273.5,-30.5 126.25,-30.5 126.25,0 273.5,0 273.5,-30.5"/>
<text text-anchor="start" x="134.25" y="-17" font-family="Helvetica,sans-Serif" font-size="10.00">testing::internal::</text>
<text text-anchor="middle" x="199.88" y="-5.75" font-family="Helvetica,sans-Serif" font-size="10.00">TestFactoryImpl&lt; TestClass &gt;</text>
</a>
</g>
</g>
<!-- Node1&#45;&gt;Node3 -->
<g id="edge2_Node000001_Node000003" class="edge">
<title>Node1&#45;&gt;Node3</title>
<g id="a_edge2_Node000001_Node000003"><a xlink:title=" ">
<path fill="none" stroke="#63b8ff" d="M101.86,-32.4C109.64,-31.02 117.73,-29.59 125.78,-28.17"/>
<polygon fill="#63b8ff" stroke="#63b8ff" points="101.45,-28.92 92.21,-34.1 102.66,-35.81 101.45,-28.92"/>
</a>
</g>
</g>
</g>
</svg>
