<?xml version="1.0" encoding="UTF-8" standalone="no"?>
<!DOCTYPE svg PUBLIC "-//W3C//DTD SVG 1.1//EN"
 "http://www.w3.org/Graphics/SVG/1.1/DTD/svg11.dtd">
<!-- Generated by graphviz version 12.1.2 (20240928.0832)
 -->
<!-- Title: testing::TestWithParam&lt; T &gt; Pages: 1 -->
<svg width="254pt" height="83pt"
 viewBox="0.00 0.00 253.88 82.50" xmlns="http://www.w3.org/2000/svg" xmlns:xlink="http://www.w3.org/1999/xlink">
<g id="graph0" class="graph" transform="scale(1 1) rotate(0) translate(4 78.5)">
<title>testing::TestWithParam&lt; T &gt;</title>
<!-- Node1 -->
<g id="Node000001" class="node">
<title>Node1</title>
<g id="a_Node000001"><a xlink:title=" ">
<polygon fill="#999999" stroke="#666666" points="170.5,-19.25 30.75,-19.25 30.75,0 170.5,0 170.5,-19.25"/>
<text text-anchor="middle" x="100.62" y="-5.75" font-family="Helvetica,sans-Serif" font-size="10.00">testing::TestWithParam&lt; T &gt;</text>
</a>
</g>
</g>
<!-- Node2 -->
<g id="Node000002" class="node">
<title>Node2</title>
<g id="a_Node000002"><a xlink:href="classtesting_1_1Test.html" target="_top" xlink:title=" ">
<polygon fill="white" stroke="#bfbfbf" points="69.25,-74.5 0,-74.5 0,-55.25 69.25,-55.25 69.25,-74.5"/>
<text text-anchor="middle" x="34.62" y="-61" font-family="Helvetica,sans-Serif" font-size="10.00">testing::Test</text>
</a>
</g>
</g>
<!-- Node2&#45;&gt;Node1 -->
<g id="edge1_Node000001_Node000002" class="edge">
<title>Node2&#45;&gt;Node1</title>
<g id="a_edge1_Node000001_Node000002"><a xlink:title=" ">
<path fill="none" stroke="#63b8ff" d="M54.72,-47.66C66.18,-38.42 80.11,-27.18 89.59,-19.52"/>
<polygon fill="#63b8ff" stroke="#63b8ff" points="52.58,-44.89 47,-53.89 56.98,-50.34 52.58,-44.89"/>
</a>
</g>
</g>
<!-- Node3 -->
<g id="Node000003" class="node">
<title>Node3</title>
<g id="a_Node000003"><a xlink:href="classtesting_1_1WithParamInterface.html" target="_top" xlink:title=" ">
<polygon fill="white" stroke="#bfbfbf" points="245.88,-74.5 87.38,-74.5 87.38,-55.25 245.88,-55.25 245.88,-74.5"/>
<text text-anchor="middle" x="166.62" y="-61" font-family="Helvetica,sans-Serif" font-size="10.00">testing::WithParamInterface&lt; T &gt;</text>
</a>
</g>
</g>
<!-- Node3&#45;&gt;Node1 -->
<g id="edge2_Node000001_Node000003" class="edge">
<title>Node3&#45;&gt;Node1</title>
<g id="a_edge2_Node000001_Node000003"><a xlink:title=" ">
<path fill="none" stroke="#63b8ff" d="M146.53,-47.66C135.07,-38.42 121.14,-27.18 111.66,-19.52"/>
<polygon fill="#63b8ff" stroke="#63b8ff" points="144.27,-50.34 154.25,-53.89 148.67,-44.89 144.27,-50.34"/>
</a>
</g>
</g>
</g>
</svg>
