<?xml version="1.0" encoding="UTF-8" standalone="no"?>
<!DOCTYPE svg PUBLIC "-//W3C//DTD SVG 1.1//EN"
 "http://www.w3.org/Graphics/SVG/1.1/DTD/svg11.dtd">
<!-- Generated by graphviz version 12.1.2 (20240928.0832)
 -->
<!-- Title: ExternalInstantiationTest Pages: 1 -->
<svg width="232pt" height="160pt"
 viewBox="0.00 0.00 231.62 160.25" xmlns="http://www.w3.org/2000/svg" xmlns:xlink="http://www.w3.org/1999/xlink">
<g id="graph0" class="graph" transform="scale(1 1) rotate(0) translate(4 156.25)">
<title>ExternalInstantiationTest</title>
<!-- Node1 -->
<g id="Node000001" class="node">
<title>Node1</title>
<g id="a_Node000001"><a xlink:title=" ">
<polygon fill="#999999" stroke="#666666" points="156.25,-19.25 33,-19.25 33,0 156.25,0 156.25,-19.25"/>
<text text-anchor="middle" x="94.62" y="-5.75" font-family="Helvetica,sans-Serif" font-size="10.00">ExternalInstantiationTest</text>
</a>
</g>
</g>
<!-- Node2 -->
<g id="Node000002" class="node">
<title>Node2</title>
<g id="a_Node000002"><a xlink:href="classtesting_1_1TestWithParam.html" target="_top" xlink:title=" ">
<polygon fill="white" stroke="#bfbfbf" points="153.25,-85.75 36,-85.75 36,-55.25 153.25,-55.25 153.25,-85.75"/>
<text text-anchor="start" x="44" y="-72.25" font-family="Helvetica,sans-Serif" font-size="10.00">testing::TestWithParam</text>
<text text-anchor="middle" x="94.62" y="-61" font-family="Helvetica,sans-Serif" font-size="10.00">&lt; int &gt;</text>
</a>
</g>
</g>
<!-- Node2&#45;&gt;Node1 -->
<g id="edge1_Node000001_Node000002" class="edge">
<title>Node2&#45;&gt;Node1</title>
<g id="a_edge1_Node000001_Node000002"><a xlink:title=" ">
<path fill="none" stroke="#63b8ff" d="M94.62,-43.48C94.62,-34.98 94.62,-26.09 94.62,-19.7"/>
<polygon fill="#63b8ff" stroke="#63b8ff" points="91.13,-43.43 94.63,-53.43 98.13,-43.43 91.13,-43.43"/>
</a>
</g>
</g>
<!-- Node3 -->
<g id="Node000003" class="node">
<title>Node3</title>
<g id="a_Node000003"><a xlink:href="classtesting_1_1Test.html" target="_top" xlink:title=" ">
<polygon fill="white" stroke="#bfbfbf" points="69.25,-146.62 0,-146.62 0,-127.38 69.25,-127.38 69.25,-146.62"/>
<text text-anchor="middle" x="34.62" y="-133.12" font-family="Helvetica,sans-Serif" font-size="10.00">testing::Test</text>
</a>
</g>
</g>
<!-- Node3&#45;&gt;Node2 -->
<g id="edge2_Node000002_Node000003" class="edge">
<title>Node3&#45;&gt;Node2</title>
<g id="a_edge2_Node000002_Node000003"><a xlink:title=" ">
<path fill="none" stroke="#63b8ff" d="M50.61,-118.81C60.19,-108.52 72.22,-95.59 81.28,-85.84"/>
<polygon fill="#63b8ff" stroke="#63b8ff" points="48.25,-116.22 44,-125.92 53.37,-120.99 48.25,-116.22"/>
</a>
</g>
</g>
<!-- Node4 -->
<g id="Node000004" class="node">
<title>Node4</title>
<g id="a_Node000004"><a xlink:href="classtesting_1_1WithParamInterface.html" target="_top" xlink:title=" ">
<polygon fill="white" stroke="#bfbfbf" points="223.62,-152.25 87.62,-152.25 87.62,-121.75 223.62,-121.75 223.62,-152.25"/>
<text text-anchor="start" x="95.62" y="-138.75" font-family="Helvetica,sans-Serif" font-size="10.00">testing::WithParamInterface</text>
<text text-anchor="middle" x="155.62" y="-127.5" font-family="Helvetica,sans-Serif" font-size="10.00">&lt; int &gt;</text>
</a>
</g>
</g>
<!-- Node4&#45;&gt;Node2 -->
<g id="edge3_Node000002_Node000004" class="edge">
<title>Node4&#45;&gt;Node2</title>
<g id="a_edge3_Node000002_Node000004"><a xlink:title=" ">
<path fill="none" stroke="#63b8ff" d="M134.02,-113.16C125.5,-104.15 115.97,-94.07 108.41,-86.08"/>
<polygon fill="#63b8ff" stroke="#63b8ff" points="131.33,-115.4 140.74,-120.26 136.41,-110.59 131.33,-115.4"/>
</a>
</g>
</g>
</g>
</svg>
