<?xml version="1.0" encoding="UTF-8" standalone="no"?>
<!DOCTYPE svg PUBLIC "-//W3C//DTD SVG 1.1//EN"
 "http://www.w3.org/Graphics/SVG/1.1/DTD/svg11.dtd">
<!-- Generated by graphviz version 12.1.2 (20240928.0832)
 -->
<!-- Title: testing::NiceMock&lt; MockClass &gt; Pages: 1 -->
<svg width="238pt" height="105pt"
 viewBox="0.00 0.00 238.00 105.00" xmlns="http://www.w3.org/2000/svg" xmlns:xlink="http://www.w3.org/1999/xlink">
<g id="graph0" class="graph" transform="scale(1 1) rotate(0) translate(4 101)">
<title>testing::NiceMock&lt; MockClass &gt;</title>
<!-- Node1 -->
<g id="Node000001" class="node">
<title>Node1</title>
<g id="a_Node000001"><a xlink:title=" ">
<polygon fill="#999999" stroke="#666666" points="184.12,-30.5 84.12,-30.5 84.12,0 184.12,0 184.12,-30.5"/>
<text text-anchor="start" x="92.12" y="-17" font-family="Helvetica,sans-Serif" font-size="10.00">testing::NiceMock&lt;</text>
<text text-anchor="middle" x="134.12" y="-5.75" font-family="Helvetica,sans-Serif" font-size="10.00"> MockClass &gt;</text>
</a>
</g>
</g>
<!-- Node2 -->
<g id="Node000002" class="node">
<title>Node2</title>
<g id="a_Node000002"><a xlink:href="classtesting_1_1internal_1_1NiceMockImpl.html" target="_top" xlink:title=" ">
<polygon fill="white" stroke="#bfbfbf" points="144.25,-97 0,-97 0,-66.5 144.25,-66.5 144.25,-97"/>
<text text-anchor="start" x="8" y="-83.5" font-family="Helvetica,sans-Serif" font-size="10.00">testing::internal::</text>
<text text-anchor="middle" x="72.12" y="-72.25" font-family="Helvetica,sans-Serif" font-size="10.00">NiceMockImpl&lt; MockClass &gt;</text>
</a>
</g>
</g>
<!-- Node2&#45;&gt;Node1 -->
<g id="edge1_Node000001_Node000002" class="edge">
<title>Node2&#45;&gt;Node1</title>
<g id="a_edge1_Node000001_Node000002"><a xlink:title=" ">
<path fill="none" stroke="#8b1a1a" d="M94.08,-57.91C102.74,-48.9 112.43,-38.82 120.11,-30.83"/>
<polygon fill="#8b1a1a" stroke="#8b1a1a" points="91.65,-55.39 87.24,-65.02 96.7,-60.24 91.65,-55.39"/>
</a>
</g>
</g>
<!-- Node3 -->
<g id="Node000003" class="node">
<title>Node3</title>
<g id="a_Node000003"><a xlink:title=" ">
<polygon fill="white" stroke="#bfbfbf" points="230,-91.38 162.25,-91.38 162.25,-72.12 230,-72.12 230,-91.38"/>
<text text-anchor="middle" x="196.12" y="-77.88" font-family="Helvetica,sans-Serif" font-size="10.00">anonymous:</text>
</a>
</g>
</g>
<!-- Node3&#45;&gt;Node1 -->
<g id="edge2_Node000001_Node000003" class="edge">
<title>Node3&#45;&gt;Node1</title>
<g id="a_edge2_Node000001_Node000003"><a xlink:title=" ">
<path fill="none" stroke="#63b8ff" d="M179.6,-63.56C169.71,-53.27 157.28,-40.34 147.91,-30.59"/>
<polygon fill="#63b8ff" stroke="#63b8ff" points="177,-65.91 186.46,-70.69 182.05,-61.06 177,-65.91"/>
</a>
</g>
</g>
</g>
</svg>
