<?xml version="1.0" encoding="UTF-8" standalone="no"?>
<!DOCTYPE svg PUBLIC "-//W3C//DTD SVG 1.1//EN"
 "http://www.w3.org/Graphics/SVG/1.1/DTD/svg11.dtd">
<!-- Generated by graphviz version 12.1.2 (20240928.0832)
 -->
<!-- Title: testing::CodeLocationForTESTP Pages: 1 -->
<svg width="232pt" height="172pt"
 viewBox="0.00 0.00 231.62 171.50" xmlns="http://www.w3.org/2000/svg" xmlns:xlink="http://www.w3.org/1999/xlink">
<g id="graph0" class="graph" transform="scale(1 1) rotate(0) translate(4 167.5)">
<title>testing::CodeLocationForTESTP</title>
<!-- Node1 -->
<g id="Node000001" class="node">
<title>Node1</title>
<g id="a_Node000001"><a xlink:title=" ">
<polygon fill="#999999" stroke="#666666" points="156.62,-30.5 32.62,-30.5 32.62,0 156.62,0 156.62,-30.5"/>
<text text-anchor="start" x="40.62" y="-17" font-family="Helvetica,sans-Serif" font-size="10.00">testing::CodeLocationFor</text>
<text text-anchor="middle" x="94.62" y="-5.75" font-family="Helvetica,sans-Serif" font-size="10.00">TESTP</text>
</a>
</g>
</g>
<!-- Node2 -->
<g id="Node000002" class="node">
<title>Node2</title>
<g id="a_Node000002"><a xlink:href="classtesting_1_1TestWithParam.html" target="_top" xlink:title=" ">
<polygon fill="white" stroke="#bfbfbf" points="153.25,-97 36,-97 36,-66.5 153.25,-66.5 153.25,-97"/>
<text text-anchor="start" x="44" y="-83.5" font-family="Helvetica,sans-Serif" font-size="10.00">testing::TestWithParam</text>
<text text-anchor="middle" x="94.62" y="-72.25" font-family="Helvetica,sans-Serif" font-size="10.00">&lt; int &gt;</text>
</a>
</g>
</g>
<!-- Node2&#45;&gt;Node1 -->
<g id="edge1_Node000001_Node000002" class="edge">
<title>Node2&#45;&gt;Node1</title>
<g id="a_edge1_Node000001_Node000002"><a xlink:title=" ">
<path fill="none" stroke="#63b8ff" d="M94.62,-54.81C94.62,-46.64 94.62,-37.91 94.62,-30.83"/>
<polygon fill="#63b8ff" stroke="#63b8ff" points="91.13,-54.6 94.63,-64.6 98.13,-54.6 91.13,-54.6"/>
</a>
</g>
</g>
<!-- Node3 -->
<g id="Node000003" class="node">
<title>Node3</title>
<g id="a_Node000003"><a xlink:href="classtesting_1_1Test.html" target="_top" xlink:title=" ">
<polygon fill="white" stroke="#bfbfbf" points="69.25,-157.88 0,-157.88 0,-138.62 69.25,-138.62 69.25,-157.88"/>
<text text-anchor="middle" x="34.62" y="-144.38" font-family="Helvetica,sans-Serif" font-size="10.00">testing::Test</text>
</a>
</g>
</g>
<!-- Node3&#45;&gt;Node2 -->
<g id="edge2_Node000002_Node000003" class="edge">
<title>Node3&#45;&gt;Node2</title>
<g id="a_edge2_Node000002_Node000003"><a xlink:title=" ">
<path fill="none" stroke="#63b8ff" d="M50.61,-130.06C60.19,-119.77 72.22,-106.84 81.28,-97.09"/>
<polygon fill="#63b8ff" stroke="#63b8ff" points="48.25,-127.47 44,-137.17 53.37,-132.24 48.25,-127.47"/>
</a>
</g>
</g>
<!-- Node4 -->
<g id="Node000004" class="node">
<title>Node4</title>
<g id="a_Node000004"><a xlink:href="classtesting_1_1WithParamInterface.html" target="_top" xlink:title=" ">
<polygon fill="white" stroke="#bfbfbf" points="223.62,-163.5 87.62,-163.5 87.62,-133 223.62,-133 223.62,-163.5"/>
<text text-anchor="start" x="95.62" y="-150" font-family="Helvetica,sans-Serif" font-size="10.00">testing::WithParamInterface</text>
<text text-anchor="middle" x="155.62" y="-138.75" font-family="Helvetica,sans-Serif" font-size="10.00">&lt; int &gt;</text>
</a>
</g>
</g>
<!-- Node4&#45;&gt;Node2 -->
<g id="edge3_Node000002_Node000004" class="edge">
<title>Node4&#45;&gt;Node2</title>
<g id="a_edge3_Node000002_Node000004"><a xlink:title=" ">
<path fill="none" stroke="#63b8ff" d="M134.02,-124.41C125.5,-115.4 115.97,-105.32 108.41,-97.33"/>
<polygon fill="#63b8ff" stroke="#63b8ff" points="131.33,-126.65 140.74,-131.51 136.41,-121.84 131.33,-126.65"/>
</a>
</g>
</g>
</g>
</svg>
