<?xml version="1.0" encoding="UTF-8" standalone="no"?>
<!DOCTYPE svg PUBLIC "-//W3C//DTD SVG 1.1//EN"
 "http://www.w3.org/Graphics/SVG/1.1/DTD/svg11.dtd">
<!-- Generated by graphviz version 12.1.2 (20240928.0832)
 -->
<!-- Title: ValueParamTest Pages: 1 -->
<svg width="422pt" height="143pt"
 viewBox="0.00 0.00 422.00 142.88" xmlns="http://www.w3.org/2000/svg" xmlns:xlink="http://www.w3.org/1999/xlink">
<g id="graph0" class="graph" transform="scale(1 1) rotate(0) translate(4 138.88)">
<title>ValueParamTest</title>
<!-- Node1 -->
<g id="Node000001" class="node">
<title>Node1</title>
<g id="a_Node000001"><a xlink:title=" ">
<polygon fill="#999999" stroke="#666666" points="414,-62.25 325.25,-62.25 325.25,-43 414,-43 414,-62.25"/>
<text text-anchor="middle" x="369.62" y="-48.75" font-family="Helvetica,sans-Serif" font-size="10.00">ValueParamTest</text>
</a>
</g>
</g>
<!-- Node2 -->
<g id="Node000002" class="node">
<title>Node2</title>
<g id="a_Node000002"><a xlink:href="classtesting_1_1TestWithParam.html" target="_top" xlink:title=" ">
<polygon fill="white" stroke="#bfbfbf" points="289.25,-116.88 172,-116.88 172,-86.38 289.25,-86.38 289.25,-116.88"/>
<text text-anchor="start" x="180" y="-103.38" font-family="Helvetica,sans-Serif" font-size="10.00">testing::TestWithParam</text>
<text text-anchor="middle" x="230.62" y="-92.12" font-family="Helvetica,sans-Serif" font-size="10.00">&lt; MyType &gt;</text>
</a>
</g>
</g>
<!-- Node2&#45;&gt;Node1 -->
<g id="edge1_Node000001_Node000002" class="edge">
<title>Node2&#45;&gt;Node1</title>
<g id="a_edge1_Node000001_Node000002"><a xlink:title=" ">
<path fill="none" stroke="#63b8ff" d="M286.09,-82.15C304.68,-75.5 324.72,-68.33 340.39,-62.72"/>
<polygon fill="#63b8ff" stroke="#63b8ff" points="285.01,-78.81 276.77,-85.48 287.37,-85.4 285.01,-78.81"/>
</a>
</g>
</g>
<!-- Node3 -->
<g id="Node000003" class="node">
<title>Node3</title>
<g id="a_Node000003"><a xlink:href="classtesting_1_1Test.html" target="_top" xlink:title=" ">
<polygon fill="white" stroke="#bfbfbf" points="102.62,-86.25 33.38,-86.25 33.38,-67 102.62,-67 102.62,-86.25"/>
<text text-anchor="middle" x="68" y="-72.75" font-family="Helvetica,sans-Serif" font-size="10.00">testing::Test</text>
</a>
</g>
</g>
<!-- Node3&#45;&gt;Node2 -->
<g id="edge2_Node000002_Node000003" class="edge">
<title>Node3&#45;&gt;Node2</title>
<g id="a_edge2_Node000002_Node000003"><a xlink:title=" ">
<path fill="none" stroke="#63b8ff" d="M114.29,-83.67C132.08,-86.44 152.72,-89.66 171.58,-92.59"/>
<polygon fill="#63b8ff" stroke="#63b8ff" points="114.98,-80.24 104.56,-82.16 113.9,-87.16 114.98,-80.24"/>
</a>
</g>
</g>
<!-- Node5 -->
<g id="Node000005" class="node">
<title>Node5</title>
<g id="a_Node000005"><a xlink:href="classtesting_1_1TestWithParam.html" target="_top" xlink:title=" ">
<polygon fill="white" stroke="#bfbfbf" points="289.25,-67.88 172,-67.88 172,-37.38 289.25,-37.38 289.25,-67.88"/>
<text text-anchor="start" x="180" y="-54.38" font-family="Helvetica,sans-Serif" font-size="10.00">testing::TestWithParam</text>
<text text-anchor="middle" x="230.62" y="-43.12" font-family="Helvetica,sans-Serif" font-size="10.00">&lt; int &gt;</text>
</a>
</g>
</g>
<!-- Node3&#45;&gt;Node5 -->
<g id="edge5_Node000005_Node000003" class="edge">
<title>Node3&#45;&gt;Node5</title>
<g id="a_edge5_Node000005_Node000003"><a xlink:title=" ">
<path fill="none" stroke="#63b8ff" d="M114.29,-69.86C132.08,-67.2 152.72,-64.12 171.58,-61.3"/>
<polygon fill="#63b8ff" stroke="#63b8ff" points="113.93,-66.37 104.56,-71.31 114.97,-73.3 113.93,-66.37"/>
</a>
</g>
</g>
<!-- Node4 -->
<g id="Node000004" class="node">
<title>Node4</title>
<g id="a_Node000004"><a xlink:href="classtesting_1_1WithParamInterface.html" target="_top" xlink:title=" ">
<polygon fill="white" stroke="#bfbfbf" points="136,-134.88 0,-134.88 0,-104.38 136,-104.38 136,-134.88"/>
<text text-anchor="start" x="8" y="-121.38" font-family="Helvetica,sans-Serif" font-size="10.00">testing::WithParamInterface</text>
<text text-anchor="middle" x="68" y="-110.12" font-family="Helvetica,sans-Serif" font-size="10.00">&lt; MyType &gt;</text>
</a>
</g>
</g>
<!-- Node4&#45;&gt;Node2 -->
<g id="edge3_Node000002_Node000004" class="edge">
<title>Node4&#45;&gt;Node2</title>
<g id="a_edge3_Node000002_Node000004"><a xlink:title=" ">
<path fill="none" stroke="#63b8ff" d="M147.59,-110.82C155.69,-109.91 163.81,-109 171.63,-108.12"/>
<polygon fill="#63b8ff" stroke="#63b8ff" points="147.24,-107.34 137.69,-111.93 148.02,-114.29 147.24,-107.34"/>
</a>
</g>
</g>
<!-- Node5&#45;&gt;Node1 -->
<g id="edge4_Node000001_Node000005" class="edge">
<title>Node5&#45;&gt;Node1</title>
<g id="a_edge4_Node000001_Node000005"><a xlink:title=" ">
<path fill="none" stroke="#63b8ff" d="M301.16,-52.62C309.27,-52.62 317.37,-52.62 324.99,-52.62"/>
<polygon fill="#63b8ff" stroke="#63b8ff" points="301.24,-49.13 291.24,-52.63 301.24,-56.13 301.24,-49.13"/>
</a>
</g>
</g>
<!-- Node6 -->
<g id="Node000006" class="node">
<title>Node6</title>
<g id="a_Node000006"><a xlink:href="classtesting_1_1WithParamInterface.html" target="_top" xlink:title=" ">
<polygon fill="white" stroke="#bfbfbf" points="136,-48.88 0,-48.88 0,-18.38 136,-18.38 136,-48.88"/>
<text text-anchor="start" x="8" y="-35.38" font-family="Helvetica,sans-Serif" font-size="10.00">testing::WithParamInterface</text>
<text text-anchor="middle" x="68" y="-24.12" font-family="Helvetica,sans-Serif" font-size="10.00">&lt; int &gt;</text>
</a>
</g>
</g>
<!-- Node6&#45;&gt;Node5 -->
<g id="edge6_Node000005_Node000006" class="edge">
<title>Node6&#45;&gt;Node5</title>
<g id="a_edge6_Node000005_Node000006"><a xlink:title=" ">
<path fill="none" stroke="#63b8ff" d="M147.59,-42.92C155.69,-43.88 163.81,-44.84 171.63,-45.77"/>
<polygon fill="#63b8ff" stroke="#63b8ff" points="148.03,-39.45 137.69,-41.75 147.21,-46.4 148.03,-39.45"/>
</a>
</g>
</g>
<!-- Node7 -->
<g id="Node000007" class="node">
<title>Node7</title>
<g id="a_Node000007"><a xlink:title=" ">
<polygon fill="white" stroke="#bfbfbf" points="285.88,-19.25 175.38,-19.25 175.38,0 285.88,0 285.88,-19.25"/>
<text text-anchor="middle" x="230.62" y="-5.75" font-family="Helvetica,sans-Serif" font-size="10.00">TestWithParam&lt; int &gt;</text>
</a>
</g>
</g>
<!-- Node7&#45;&gt;Node1 -->
<g id="edge7_Node000001_Node000007" class="edge">
<title>Node7&#45;&gt;Node1</title>
<g id="a_edge7_Node000001_Node000007"><a xlink:title=" ">
<path fill="none" stroke="#63b8ff" d="M274.51,-23.09C294.63,-29.4 318.19,-36.8 336.71,-42.61"/>
<polygon fill="#63b8ff" stroke="#63b8ff" points="275.78,-19.82 265.19,-20.16 273.68,-26.49 275.78,-19.82"/>
</a>
</g>
</g>
</g>
</svg>
