<?xml version="1.0" encoding="UTF-8" standalone="no"?>
<!DOCTYPE svg PUBLIC "-//W3C//DTD SVG 1.1//EN"
 "http://www.w3.org/Graphics/SVG/1.1/DTD/svg11.dtd">
<!-- Generated by graphviz version 12.1.2 (20240928.0832)
 -->
<!-- Title: Base Pages: 1 -->
<svg width="314pt" height="94pt"
 viewBox="0.00 0.00 314.25 93.75" xmlns="http://www.w3.org/2000/svg" xmlns:xlink="http://www.w3.org/1999/xlink">
<g id="graph0" class="graph" transform="scale(1 1) rotate(0) translate(4 89.75)">
<title>Base</title>
<!-- Node1 -->
<g id="Node000001" class="node">
<title>Node1</title>
<g id="a_Node000001"><a xlink:title=" ">
<polygon fill="#999999" stroke="#666666" points="172.38,-85.75 133.88,-85.75 133.88,-66.5 172.38,-66.5 172.38,-85.75"/>
<text text-anchor="middle" x="153.12" y="-72.25" font-family="Helvetica,sans-Serif" font-size="10.00">Base</text>
</a>
</g>
</g>
<!-- Node2 -->
<g id="Node000002" class="node">
<title>Node2</title>
<g id="a_Node000002"><a xlink:href="classnamespace1_1_1MyTypeInNameSpace1.html" target="_top" xlink:title=" ">
<polygon fill="white" stroke="#bfbfbf" points="144.25,-30.5 0,-30.5 0,0 144.25,0 144.25,-30.5"/>
<text text-anchor="start" x="8" y="-17" font-family="Helvetica,sans-Serif" font-size="10.00">namespace1::MyTypeInName</text>
<text text-anchor="middle" x="72.12" y="-5.75" font-family="Helvetica,sans-Serif" font-size="10.00">Space1</text>
</a>
</g>
</g>
<!-- Node1&#45;&gt;Node2 -->
<g id="edge1_Node000001_Node000002" class="edge">
<title>Node1&#45;&gt;Node2</title>
<g id="a_edge1_Node000001_Node000002"><a xlink:title=" ">
<path fill="none" stroke="#63b8ff" d="M131.75,-59.59C119.47,-50.67 104.15,-39.53 92.12,-30.78"/>
<polygon fill="#63b8ff" stroke="#63b8ff" points="129.45,-62.24 139.6,-65.29 133.57,-56.58 129.45,-62.24"/>
</a>
</g>
</g>
<!-- Node3 -->
<g id="Node000003" class="node">
<title>Node3</title>
<g id="a_Node000003"><a xlink:href="classnamespace2_1_1MyTypeInNameSpace2.html" target="_top" xlink:title=" ">
<polygon fill="white" stroke="#bfbfbf" points="306.25,-30.5 162,-30.5 162,0 306.25,0 306.25,-30.5"/>
<text text-anchor="start" x="170" y="-17" font-family="Helvetica,sans-Serif" font-size="10.00">namespace2::MyTypeInName</text>
<text text-anchor="middle" x="234.12" y="-5.75" font-family="Helvetica,sans-Serif" font-size="10.00">Space2</text>
</a>
</g>
</g>
<!-- Node1&#45;&gt;Node3 -->
<g id="edge2_Node000001_Node000003" class="edge">
<title>Node1&#45;&gt;Node3</title>
<g id="a_edge2_Node000001_Node000003"><a xlink:title=" ">
<path fill="none" stroke="#63b8ff" d="M174.5,-59.59C186.78,-50.67 202.1,-39.53 214.13,-30.78"/>
<polygon fill="#63b8ff" stroke="#63b8ff" points="172.68,-56.58 166.65,-65.29 176.8,-62.24 172.68,-56.58"/>
</a>
</g>
</g>
</g>
</svg>
