<?xml version="1.0" encoding="UTF-8" standalone="no"?>
<!DOCTYPE svg PUBLIC "-//W3C//DTD SVG 1.1//EN"
 "http://www.w3.org/Graphics/SVG/1.1/DTD/svg11.dtd">
<!-- Generated by graphviz version 12.1.2 (20240928.0832)
 -->
<!-- Title: TestGenerationTest Pages: 1 -->
<svg width="248pt" height="94pt"
 viewBox="0.00 0.00 247.98 93.75" xmlns="http://www.w3.org/2000/svg" xmlns:xlink="http://www.w3.org/1999/xlink">
<g id="graph0" class="graph" transform="scale(1 1) rotate(0) translate(4 89.75)">
<title>TestGenerationTest</title>
<!-- Node1 -->
<g id="Node000001" class="node">
<title>Node1</title>
<g id="a_Node000001"><a xlink:title=" ">
<polygon fill="#999999" stroke="#666666" points="160.38,-19.25 58.12,-19.25 58.12,0 160.38,0 160.38,-19.25"/>
<text text-anchor="middle" x="109.25" y="-5.75" font-family="Helvetica,sans-Serif" font-size="10.00">TestGenerationTest</text>
</a>
</g>
</g>
<!-- Node2 -->
<g id="Node000002" class="node">
<title>Node2</title>
<g id="a_Node000002"><a xlink:title=" ">
<polygon fill="white" stroke="#bfbfbf" points="110.5,-85.75 0,-85.75 0,-66.5 110.5,-66.5 110.5,-85.75"/>
<text text-anchor="middle" x="55.25" y="-72.25" font-family="Helvetica,sans-Serif" font-size="10.00">TestWithParam&lt; int &gt;</text>
</a>
</g>
</g>
<!-- Node2&#45;&gt;Node1 -->
<g id="edge1_Node000001_Node000002" class="edge">
<title>Node2&#45;&gt;Node1</title>
<g id="a_edge1_Node000001_Node000002"><a xlink:title=" ">
<path fill="none" stroke="#63b8ff" d="M69.92,-57.61C80.23,-45.28 93.61,-29.31 101.81,-19.52"/>
<polygon fill="#63b8ff" stroke="#63b8ff" points="67.47,-55.08 63.73,-65 72.83,-59.58 67.47,-55.08"/>
</a>
</g>
</g>
<!-- Node3 -->
<g id="Node000003" class="node">
<title>Node3</title>
<g id="a_Node000003"><a xlink:title=" ">
<polygon fill="white" stroke="#bfbfbf" points="198.25,-85.75 128.25,-85.75 128.25,-66.5 198.25,-66.5 198.25,-85.75"/>
<text text-anchor="middle" x="163.25" y="-72.25" font-family="Helvetica,sans-Serif" font-size="10.00">vector&lt; int &gt;</text>
</a>
</g>
</g>
<!-- Node3&#45;&gt;Node1 -->
<g id="edge2_Node000001_Node000003" class="edge">
<title>Node3&#45;&gt;Node1</title>
<g id="a_edge2_Node000001_Node000003"><a xlink:title=" ">
<path fill="none" stroke="#9a32cd" stroke-dasharray="5,2" d="M148.58,-57.61C138.27,-45.28 124.89,-29.31 116.69,-19.52"/>
<polygon fill="#9a32cd" stroke="#9a32cd" points="145.67,-59.58 154.77,-65 151.03,-55.08 145.67,-59.58"/>
</a>
</g>
<text text-anchor="middle" x="189.73" y="-39" font-family="Helvetica,sans-Serif" font-size="10.00" fill="grey"> collected_parameters_</text>
</g>
</g>
</svg>
