<?xml version="1.0" encoding="UTF-8" standalone="no"?>
<!DOCTYPE svg PUBLIC "-//W3C//DTD SVG 1.1//EN"
 "http://www.w3.org/Graphics/SVG/1.1/DTD/svg11.dtd">
<!-- Generated by graphviz version 12.1.2 (20240928.0832)
 -->
<!-- Title: testing::internal::ParamGeneratorInterface&lt; T &gt; Pages: 1 -->
<svg width="370pt" height="88pt"
 viewBox="0.00 0.00 370.00 87.50" xmlns="http://www.w3.org/2000/svg" xmlns:xlink="http://www.w3.org/1999/xlink">
<g id="graph0" class="graph" transform="scale(1 1) rotate(0) translate(4 83.5)">
<title>testing::internal::ParamGeneratorInterface&lt; T &gt;</title>
<!-- Node1 -->
<g id="Node000001" class="node">
<title>Node1</title>
<g id="a_Node000001"><a xlink:title=" ">
<polygon fill="#999999" stroke="#666666" points="148,-54.5 0,-54.5 0,-24 148,-24 148,-54.5"/>
<text text-anchor="start" x="8" y="-41" font-family="Helvetica,sans-Serif" font-size="10.00">testing::internal::</text>
<text text-anchor="middle" x="74" y="-29.75" font-family="Helvetica,sans-Serif" font-size="10.00">ParamGeneratorInterface&lt; T &gt;</text>
</a>
</g>
</g>
<!-- Node2 -->
<g id="Node000002" class="node">
<title>Node2</title>
<g id="a_Node000002"><a xlink:href="classtesting_1_1internal_1_1RangeGenerator.html" target="_top" xlink:title=" ">
<polygon fill="white" stroke="#bfbfbf" points="354.88,-79.5 191.12,-79.5 191.12,-49 354.88,-49 354.88,-79.5"/>
<text text-anchor="start" x="199.12" y="-66" font-family="Helvetica,sans-Serif" font-size="10.00">testing::internal::</text>
<text text-anchor="middle" x="273" y="-54.75" font-family="Helvetica,sans-Serif" font-size="10.00">RangeGenerator&lt; T, IncrementT &gt;</text>
</a>
</g>
</g>
<!-- Node1&#45;&gt;Node2 -->
<g id="edge1_Node000001_Node000002" class="edge">
<title>Node1&#45;&gt;Node2</title>
<g id="a_edge1_Node000001_Node000002"><a xlink:title=" ">
<path fill="none" stroke="#63b8ff" d="M159.47,-49.97C169.8,-51.28 180.35,-52.62 190.64,-53.92"/>
<polygon fill="#63b8ff" stroke="#63b8ff" points="160.22,-46.54 149.86,-48.75 159.34,-53.48 160.22,-46.54"/>
</a>
</g>
</g>
<!-- Node3 -->
<g id="Node000003" class="node">
<title>Node3</title>
<g id="a_Node000003"><a xlink:href="classtesting_1_1internal_1_1ValuesInIteratorRangeGenerator.html" target="_top" xlink:title=" ">
<polygon fill="white" stroke="#bfbfbf" points="362,-30.5 184,-30.5 184,0 362,0 362,-30.5"/>
<text text-anchor="start" x="192" y="-17" font-family="Helvetica,sans-Serif" font-size="10.00">testing::internal::</text>
<text text-anchor="middle" x="273" y="-5.75" font-family="Helvetica,sans-Serif" font-size="10.00">ValuesInIteratorRangeGenerator&lt; T &gt;</text>
</a>
</g>
</g>
<!-- Node1&#45;&gt;Node3 -->
<g id="edge2_Node000001_Node000003" class="edge">
<title>Node1&#45;&gt;Node3</title>
<g id="a_edge2_Node000001_Node000003"><a xlink:title=" ">
<path fill="none" stroke="#63b8ff" d="M159.52,-28.95C167.49,-27.98 175.59,-27 183.6,-26.02"/>
<polygon fill="#63b8ff" stroke="#63b8ff" points="159.36,-25.45 149.86,-30.13 160.21,-32.4 159.36,-25.45"/>
</a>
</g>
</g>
</g>
</svg>
