<?xml version="1.0" encoding="UTF-8" standalone="no"?>
<!DOCTYPE svg PUBLIC "-//W3C//DTD SVG 1.1//EN"
 "http://www.w3.org/Graphics/SVG/1.1/DTD/svg11.dtd">
<!-- Generated by graphviz version 12.1.2 (20240928.0832)
 -->
<!-- Title: testing::internal::Derived Pages: 1 -->
<svg width="94pt" height="94pt"
 viewBox="0.00 0.00 93.75 93.75" xmlns="http://www.w3.org/2000/svg" xmlns:xlink="http://www.w3.org/1999/xlink">
<g id="graph0" class="graph" transform="scale(1 1) rotate(0) translate(4 89.75)">
<title>testing::internal::Derived</title>
<!-- Node1 -->
<g id="Node000001" class="node">
<title>Node1</title>
<g id="a_Node000001"><a xlink:title=" ">
<polygon fill="#999999" stroke="#666666" points="85.75,-30.5 0,-30.5 0,0 85.75,0 85.75,-30.5"/>
<text text-anchor="start" x="8" y="-17" font-family="Helvetica,sans-Serif" font-size="10.00">testing::internal::</text>
<text text-anchor="middle" x="42.88" y="-5.75" font-family="Helvetica,sans-Serif" font-size="10.00">Derived</text>
</a>
</g>
</g>
<!-- Node2 -->
<g id="Node000002" class="node">
<title>Node2</title>
<g id="a_Node000002"><a xlink:title=" ">
<polygon fill="white" stroke="#bfbfbf" points="76.75,-85.75 9,-85.75 9,-66.5 76.75,-66.5 76.75,-85.75"/>
<text text-anchor="middle" x="42.88" y="-72.25" font-family="Helvetica,sans-Serif" font-size="10.00">anonymous:</text>
</a>
</g>
</g>
<!-- Node2&#45;&gt;Node1 -->
<g id="edge1_Node000001_Node000002" class="edge">
<title>Node2&#45;&gt;Node1</title>
<g id="a_edge1_Node000001_Node000002"><a xlink:title=" ">
<path fill="none" stroke="#63b8ff" d="M36.43,-54.92C35.89,-46.99 36.07,-38.06 36.96,-30.78"/>
<polygon fill="#63b8ff" stroke="#63b8ff" points="32.94,-55.2 37.67,-64.68 39.88,-54.32 32.94,-55.2"/>
</a>
</g>
</g>
<!-- Node2&#45;&gt;Node1 -->
<g id="edge2_Node000001_Node000002" class="edge">
<title>Node2&#45;&gt;Node1</title>
<g id="a_edge2_Node000001_Node000002"><a xlink:title=" ">
<path fill="none" stroke="#63b8ff" d="M49.32,-54.92C49.86,-46.99 49.68,-38.06 48.79,-30.78"/>
<polygon fill="#63b8ff" stroke="#63b8ff" points="45.87,-54.32 48.08,-64.68 52.81,-55.2 45.87,-54.32"/>
</a>
</g>
</g>
</g>
</svg>
