<?xml version="1.0" encoding="UTF-8" standalone="no"?>
<!DOCTYPE svg PUBLIC "-//W3C//DTD SVG 1.1//EN"
 "http://www.w3.org/Graphics/SVG/1.1/DTD/svg11.dtd">
<!-- Generated by graphviz version 12.1.2 (20240928.0832)
 -->
<!-- Title: testing::internal::UnitTestRecordPropertyTestHelper Pages: 1 -->
<svg width="182pt" height="116pt"
 viewBox="0.00 0.00 182.25 116.25" xmlns="http://www.w3.org/2000/svg" xmlns:xlink="http://www.w3.org/1999/xlink">
<g id="graph0" class="graph" transform="scale(1 1) rotate(0) translate(4 112.25)">
<title>testing::internal::UnitTestRecordPropertyTestHelper</title>
<!-- Node1 -->
<g id="Node000001" class="node">
<title>Node1</title>
<g id="a_Node000001"><a xlink:title=" ">
<polygon fill="#999999" stroke="#666666" points="152.5,-41.75 12.75,-41.75 12.75,0 152.5,0 152.5,-41.75"/>
<text text-anchor="start" x="20.75" y="-28.25" font-family="Helvetica,sans-Serif" font-size="10.00">testing::internal::</text>
<text text-anchor="start" x="20.75" y="-17" font-family="Helvetica,sans-Serif" font-size="10.00">UnitTestRecordPropertyTest</text>
<text text-anchor="middle" x="82.62" y="-5.75" font-family="Helvetica,sans-Serif" font-size="10.00">Helper</text>
</a>
</g>
</g>
<!-- Node2 -->
<g id="Node000002" class="node">
<title>Node2</title>
<g id="a_Node000002"><a xlink:href="classtesting_1_1Test.html" target="_top" xlink:title=" ">
<polygon fill="white" stroke="#bfbfbf" points="69.25,-108.25 0,-108.25 0,-89 69.25,-89 69.25,-108.25"/>
<text text-anchor="middle" x="34.62" y="-94.75" font-family="Helvetica,sans-Serif" font-size="10.00">testing::Test</text>
</a>
</g>
</g>
<!-- Node2&#45;&gt;Node1 -->
<g id="edge1_Node000001_Node000002" class="edge">
<title>Node2&#45;&gt;Node1</title>
<g id="a_edge1_Node000001_Node000002"><a xlink:title=" ">
<path fill="none" stroke="#63b8ff" d="M46.38,-79.07C53.45,-67.91 62.46,-53.7 69.72,-42.24"/>
<polygon fill="#63b8ff" stroke="#63b8ff" points="43.53,-77.04 41.13,-87.36 49.44,-80.79 43.53,-77.04"/>
</a>
</g>
</g>
<!-- Node3 -->
<g id="Node000003" class="node">
<title>Node3</title>
<g id="a_Node000003"><a xlink:href="classtesting_1_1UnitTest.html" target="_top" xlink:title=" ">
<polygon fill="white" stroke="#bfbfbf" points="174.25,-108.25 87,-108.25 87,-89 174.25,-89 174.25,-108.25"/>
<text text-anchor="middle" x="130.62" y="-94.75" font-family="Helvetica,sans-Serif" font-size="10.00">testing::UnitTest</text>
</a>
</g>
</g>
<!-- Node3&#45;&gt;Node1 -->
<g id="edge2_Node000001_Node000003" class="edge">
<title>Node3&#45;&gt;Node1</title>
<g id="a_edge2_Node000001_Node000003"><a xlink:title=" ">
<path fill="none" stroke="#9a32cd" stroke-dasharray="5,2" d="M118.87,-79.07C111.8,-67.91 102.79,-53.7 95.53,-42.24"/>
<polygon fill="#9a32cd" stroke="#9a32cd" points="115.81,-80.79 124.12,-87.36 121.72,-77.04 115.81,-80.79"/>
</a>
</g>
<text text-anchor="middle" x="136.23" y="-61.5" font-family="Helvetica,sans-Serif" font-size="10.00" fill="grey"> unit_test_</text>
</g>
</g>
</svg>
