<?xml version="1.0" encoding="UTF-8" standalone="no"?>
<!DOCTYPE svg PUBLIC "-//W3C//DTD SVG 1.1//EN"
 "http://www.w3.org/Graphics/SVG/1.1/DTD/svg11.dtd">
<!-- Generated by graphviz version 12.1.2 (20240928.0832)
 -->
<!-- Title: Graphical Class Hierarchy Pages: 1 -->
<svg width="357pt" height="110pt"
 viewBox="0.00 0.00 357.25 109.75" xmlns="http://www.w3.org/2000/svg" xmlns:xlink="http://www.w3.org/1999/xlink">
<g id="graph0" class="graph" transform="scale(1 1) rotate(0) translate(4 105.75)">
<title>Graphical Class Hierarchy</title>
<!-- Node0 -->
<g id="Node000000" class="node">
<title>Node0</title>
<g id="a_Node000000"><a xlink:title=" ">
<polygon fill="#e0e0e0" stroke="#999999" points="156.25,-60.5 0,-60.5 0,-41.25 156.25,-41.25 156.25,-60.5"/>
<text text-anchor="middle" x="78.12" y="-47" font-family="Helvetica,sans-Serif" font-size="10.00">TestPartResultReporterInterface</text>
</a>
</g>
</g>
<!-- Node1 -->
<g id="Node000001" class="node">
<title>Node1</title>
<g id="a_Node000001"><a xlink:href="classtesting_1_1internal_1_1DefaultGlobalTestPartResultReporter.html" target="_top" xlink:title=" ">
<polygon fill="white" stroke="#666666" points="340.62,-101.75 200.88,-101.75 200.88,-60 340.62,-60 340.62,-101.75"/>
<text text-anchor="start" x="208.88" y="-88.25" font-family="Helvetica,sans-Serif" font-size="10.00">testing::internal::</text>
<text text-anchor="start" x="208.88" y="-77" font-family="Helvetica,sans-Serif" font-size="10.00">DefaultGlobalTestPartResult</text>
<text text-anchor="middle" x="270.75" y="-65.75" font-family="Helvetica,sans-Serif" font-size="10.00">Reporter</text>
</a>
</g>
</g>
<!-- Node0&#45;&gt;Node1 -->
<g id="edge220_Node000000_Node000001" class="edge">
<title>Node0&#45;&gt;Node1</title>
<g id="a_edge220_Node000000_Node000001"><a xlink:title=" ">
<path fill="none" stroke="#63b8ff" d="M154.34,-62.71C169.57,-65.11 185.52,-67.62 200.53,-69.98"/>
<polygon fill="#63b8ff" stroke="#63b8ff" points="155.31,-59.32 144.89,-61.23 154.23,-66.24 155.31,-59.32"/>
</a>
</g>
</g>
<!-- Node2 -->
<g id="Node000002" class="node">
<title>Node2</title>
<g id="a_Node000002"><a xlink:href="classtesting_1_1internal_1_1DefaultPerThreadTestPartResultReporter.html" target="_top" xlink:title=" ">
<polygon fill="white" stroke="#666666" points="349.25,-41.75 192.25,-41.75 192.25,0 349.25,0 349.25,-41.75"/>
<text text-anchor="start" x="200.25" y="-28.25" font-family="Helvetica,sans-Serif" font-size="10.00">testing::internal::</text>
<text text-anchor="start" x="200.25" y="-17" font-family="Helvetica,sans-Serif" font-size="10.00">DefaultPerThreadTestPartResult</text>
<text text-anchor="middle" x="270.75" y="-5.75" font-family="Helvetica,sans-Serif" font-size="10.00">Reporter</text>
</a>
</g>
</g>
<!-- Node0&#45;&gt;Node2 -->
<g id="edge221_Node000000_Node000002" class="edge">
<title>Node0&#45;&gt;Node2</title>
<g id="a_edge221_Node000000_Node000002"><a xlink:title=" ">
<path fill="none" stroke="#63b8ff" d="M154.52,-39.01C166.8,-37.08 179.54,-35.07 191.88,-33.13"/>
<polygon fill="#63b8ff" stroke="#63b8ff" points="154.23,-35.51 144.89,-40.52 155.31,-42.43 154.23,-35.51"/>
</a>
</g>
</g>
</g>
</svg>
