<?xml version="1.0" encoding="UTF-8" standalone="no"?>
<!DOCTYPE svg PUBLIC "-//W3C//DTD SVG 1.1//EN"
 "http://www.w3.org/Graphics/SVG/1.1/DTD/svg11.dtd">
<!-- Generated by graphviz version 12.1.2 (20240928.0832)
 -->
<!-- Title: Graphical Class Hierarchy Pages: 1 -->
<svg width="360pt" height="64pt"
 viewBox="0.00 0.00 360.25 64.25" xmlns="http://www.w3.org/2000/svg" xmlns:xlink="http://www.w3.org/1999/xlink">
<g id="graph0" class="graph" transform="scale(1 1) rotate(0) translate(4 60.25)">
<title>Graphical Class Hierarchy</title>
<!-- Node0 -->
<g id="Node000000" class="node">
<title>Node0</title>
<g id="a_Node000000"><a xlink:title=" ">
<polygon fill="#e0e0e0" stroke="#999999" points="134.5,-37.25 0,-37.25 0,-18 134.5,-18 134.5,-37.25"/>
<text text-anchor="middle" x="67.25" y="-23.75" font-family="Helvetica,sans-Serif" font-size="10.00">gmock_test_utils.TestCase</text>
</a>
</g>
</g>
<!-- Node1 -->
<g id="Node000001" class="node">
<title>Node1</title>
<g id="a_Node000001"><a xlink:href="classgmock__leak__test_1_1GMockLeakTest.html" target="_top" xlink:title=" ">
<polygon fill="white" stroke="#666666" points="344,-56.25 178.75,-56.25 178.75,-37 344,-37 344,-56.25"/>
<text text-anchor="middle" x="261.38" y="-42.75" font-family="Helvetica,sans-Serif" font-size="10.00">gmock_leak_test.GMockLeakTest</text>
</a>
</g>
</g>
<!-- Node0&#45;&gt;Node1 -->
<g id="edge4_Node000000_Node000001" class="edge">
<title>Node0&#45;&gt;Node1</title>
<g id="a_edge4_Node000000_Node000001"><a xlink:title=" ">
<path fill="none" stroke="#63b8ff" d="M146.22,-35.34C156.77,-36.38 167.63,-37.45 178.26,-38.5"/>
<polygon fill="#63b8ff" stroke="#63b8ff" points="146.71,-31.87 136.41,-34.37 146.02,-38.83 146.71,-31.87"/>
</a>
</g>
</g>
<!-- Node2 -->
<g id="Node000002" class="node">
<title>Node2</title>
<g id="a_Node000002"><a xlink:href="classgmock__output__test_1_1GMockOutputTest.html" target="_top" xlink:title=" ">
<polygon fill="white" stroke="#666666" points="352.25,-19.25 170.5,-19.25 170.5,0 352.25,0 352.25,-19.25"/>
<text text-anchor="middle" x="261.38" y="-5.75" font-family="Helvetica,sans-Serif" font-size="10.00">gmock_output_test.GMockOutputTest</text>
</a>
</g>
</g>
<!-- Node0&#45;&gt;Node2 -->
<g id="edge5_Node000000_Node000002" class="edge">
<title>Node0&#45;&gt;Node2</title>
<g id="a_edge5_Node000000_Node000002"><a xlink:title=" ">
<path fill="none" stroke="#63b8ff" d="M146.28,-20.31C154.14,-19.58 162.17,-18.83 170.15,-18.08"/>
<polygon fill="#63b8ff" stroke="#63b8ff" points="146.04,-16.82 136.41,-21.24 146.7,-23.79 146.04,-16.82"/>
</a>
</g>
</g>
</g>
</svg>
