<?xml version="1.0" encoding="UTF-8" standalone="no"?>
<!DOCTYPE svg PUBLIC "-//W3C//DTD SVG 1.1//EN"
 "http://www.w3.org/Graphics/SVG/1.1/DTD/svg11.dtd">
<!-- Generated by graphviz version 12.1.2 (20240928.0832)
 -->
<!-- Title: Graphical Class Hierarchy Pages: 1 -->
<svg width="288pt" height="137pt"
 viewBox="0.00 0.00 287.50 136.50" xmlns="http://www.w3.org/2000/svg" xmlns:xlink="http://www.w3.org/1999/xlink">
<g id="graph0" class="graph" transform="scale(1 1) rotate(0) translate(4 132.5)">
<title>Graphical Class Hierarchy</title>
<!-- Node0 -->
<g id="Node000000" class="node">
<title>Node0</title>
<g id="a_Node000000"><a xlink:href="structtesting_1_1internal_1_1FlatTupleBase.html" target="_top" xlink:title=" ">
<polygon fill="white" stroke="#666666" points="130,-90.75 0,-90.75 0,-37.75 130,-37.75 130,-90.75"/>
<text text-anchor="start" x="8" y="-77.25" font-family="Helvetica,sans-Serif" font-size="10.00">testing::internal::</text>
<text text-anchor="start" x="8" y="-66" font-family="Helvetica,sans-Serif" font-size="10.00">FlatTupleBase&lt; FlatTuple</text>
<text text-anchor="start" x="8" y="-54.75" font-family="Helvetica,sans-Serif" font-size="10.00">&lt; T... &gt;, std::make_index</text>
<text text-anchor="middle" x="65" y="-43.5" font-family="Helvetica,sans-Serif" font-size="10.00">_sequence&lt; sizeof...(T)&gt; &gt;</text>
</a>
</g>
</g>
<!-- Node1 -->
<g id="Node000001" class="node">
<title>Node1</title>
<g id="a_Node000001"><a xlink:href="classtesting_1_1internal_1_1FlatTuple.html" target="_top" xlink:title=" ">
<polygon fill="white" stroke="#666666" points="279.5,-128.5 166,-128.5 166,-98 279.5,-98 279.5,-128.5"/>
<text text-anchor="start" x="174" y="-115" font-family="Helvetica,sans-Serif" font-size="10.00">testing::internal::</text>
<text text-anchor="middle" x="222.75" y="-103.75" font-family="Helvetica,sans-Serif" font-size="10.00">FlatTuple&lt; Params... &gt;</text>
</a>
</g>
</g>
<!-- Node0&#45;&gt;Node1 -->
<g id="edge190_Node000000_Node000001" class="edge">
<title>Node0&#45;&gt;Node1</title>
<g id="a_edge190_Node000000_Node000001"><a xlink:title=" ">
<path fill="none" stroke="#8b1a1a" d="M141.09,-87.88C151.56,-91.17 162.09,-94.48 171.92,-97.57"/>
<polygon fill="#8b1a1a" stroke="#8b1a1a" points="142.28,-84.58 131.69,-84.92 140.18,-91.26 142.28,-84.58"/>
</a>
</g>
</g>
<!-- Node2 -->
<g id="Node000002" class="node">
<title>Node2</title>
<g id="a_Node000002"><a xlink:href="classtesting_1_1internal_1_1FlatTuple.html" target="_top" xlink:title=" ">
<polygon fill="white" stroke="#666666" points="268.25,-79.5 177.25,-79.5 177.25,-49 268.25,-49 268.25,-79.5"/>
<text text-anchor="start" x="185.25" y="-66" font-family="Helvetica,sans-Serif" font-size="10.00">testing::internal::</text>
<text text-anchor="middle" x="222.75" y="-54.75" font-family="Helvetica,sans-Serif" font-size="10.00">FlatTuple&lt; Ts... &gt;</text>
</a>
</g>
</g>
<!-- Node0&#45;&gt;Node2 -->
<g id="edge191_Node000000_Node000002" class="edge">
<title>Node0&#45;&gt;Node2</title>
<g id="a_edge191_Node000000_Node000002"><a xlink:title=" ">
<path fill="none" stroke="#8b1a1a" d="M141.42,-64.25C153.64,-64.25 165.95,-64.25 177.12,-64.25"/>
<polygon fill="#8b1a1a" stroke="#8b1a1a" points="141.76,-60.75 131.76,-64.25 141.76,-67.75 141.76,-60.75"/>
</a>
</g>
</g>
<!-- Node3 -->
<g id="Node000003" class="node">
<title>Node3</title>
<g id="a_Node000003"><a xlink:href="classtesting_1_1internal_1_1FlatTuple.html" target="_top" xlink:title=" ">
<polygon fill="white" stroke="#666666" points="265.62,-30.5 179.88,-30.5 179.88,0 265.62,0 265.62,-30.5"/>
<text text-anchor="start" x="187.88" y="-17" font-family="Helvetica,sans-Serif" font-size="10.00">testing::internal::</text>
<text text-anchor="middle" x="222.75" y="-5.75" font-family="Helvetica,sans-Serif" font-size="10.00">FlatTuple&lt; T &gt;</text>
</a>
</g>
</g>
<!-- Node0&#45;&gt;Node3 -->
<g id="edge192_Node000000_Node000003" class="edge">
<title>Node0&#45;&gt;Node3</title>
<g id="a_edge192_Node000000_Node000003"><a xlink:title=" ">
<path fill="none" stroke="#8b1a1a" d="M141.23,-40.58C154.36,-36.45 167.6,-32.29 179.44,-28.56"/>
<polygon fill="#8b1a1a" stroke="#8b1a1a" points="140.18,-37.24 131.69,-43.58 142.28,-43.92 140.18,-37.24"/>
</a>
</g>
</g>
</g>
</svg>
