<?xml version="1.0" encoding="UTF-8" standalone="no"?>
<!DOCTYPE svg PUBLIC "-//W3C//DTD SVG 1.1//EN"
 "http://www.w3.org/Graphics/SVG/1.1/DTD/svg11.dtd">
<!-- Generated by graphviz version 12.1.2 (20240928.0832)
 -->
<!-- Title: Graphical Class Hierarchy Pages: 1 -->
<svg width="520pt" height="1229pt"
 viewBox="0.00 0.00 519.50 1229.12" xmlns="http://www.w3.org/2000/svg" xmlns:xlink="http://www.w3.org/1999/xlink">
<g id="graph0" class="graph" transform="scale(1 1) rotate(0) translate(4 1225.12)">
<title>Graphical Class Hierarchy</title>
<!-- Node0 -->
<g id="Node000000" class="node">
<title>Node0</title>
<g id="a_Node000000"><a xlink:title=" ">
<polygon fill="#e0e0e0" stroke="#999999" points="127,-628.88 0,-628.88 0,-609.62 127,-609.62 127,-628.88"/>
<text text-anchor="middle" x="63.5" y="-615.38" font-family="Helvetica,sans-Serif" font-size="10.00">gtest_test_utils.TestCase</text>
</a>
</g>
</g>
<!-- Node1 -->
<g id="Node000001" class="node">
<title>Node1</title>
<g id="a_Node000001"><a xlink:href="classgoogletest-break-on-failure-unittest_1_1GTestBreakOnFailureUnitTest.html" target="_top" xlink:title=" ">
<polygon fill="white" stroke="#666666" points="314.75,-1221.12 179.5,-1221.12 179.5,-1179.38 314.75,-1179.38 314.75,-1221.12"/>
<text text-anchor="start" x="187.5" y="-1207.62" font-family="Helvetica,sans-Serif" font-size="10.00">googletest&#45;break&#45;on</text>
<text text-anchor="start" x="187.5" y="-1196.38" font-family="Helvetica,sans-Serif" font-size="10.00">&#45;failure&#45;unittest.GTestBreak</text>
<text text-anchor="middle" x="247.12" y="-1185.12" font-family="Helvetica,sans-Serif" font-size="10.00">OnFailureUnitTest</text>
</a>
</g>
</g>
<!-- Node0&#45;&gt;Node1 -->
<g id="edge6_Node000000_Node000001" class="edge">
<title>Node0&#45;&gt;Node1</title>
<g id="a_edge6_Node000000_Node000001"><a xlink:title=" ">
<path fill="none" stroke="#63b8ff" d="M65.52,-640.49C70.29,-731.49 93.21,-1087.51 163,-1170.25 167.55,-1175.64 173.15,-1180.07 179.27,-1183.7"/>
<polygon fill="#63b8ff" stroke="#63b8ff" points="69.03,-640.58 65.03,-630.77 62.04,-640.94 69.03,-640.58"/>
</a>
</g>
</g>
<!-- Node2 -->
<g id="Node000002" class="node">
<title>Node2</title>
<g id="a_Node000002"><a xlink:href="classgoogletest-catch-exceptions-test_1_1CatchCxxExceptionsTest.html" target="_top" xlink:title=" ">
<polygon fill="white" stroke="#666666" points="320,-1161.5 174.25,-1161.5 174.25,-1131 320,-1131 320,-1161.5"/>
<text text-anchor="start" x="182.25" y="-1148" font-family="Helvetica,sans-Serif" font-size="10.00">googletest&#45;catch&#45;exceptions</text>
<text text-anchor="middle" x="247.12" y="-1136.75" font-family="Helvetica,sans-Serif" font-size="10.00">&#45;test.CatchCxxExceptionsTest</text>
</a>
</g>
</g>
<!-- Node0&#45;&gt;Node2 -->
<g id="edge7_Node000000_Node000002" class="edge">
<title>Node0&#45;&gt;Node2</title>
<g id="a_edge7_Node000000_Node000002"><a xlink:title=" ">
<path fill="none" stroke="#63b8ff" d="M65.81,-640.58C71.54,-726.82 97.06,-1048.48 163,-1121.25 166.24,-1124.82 169.97,-1127.89 174.01,-1130.53"/>
<polygon fill="#63b8ff" stroke="#63b8ff" points="69.31,-640.5 65.18,-630.74 62.33,-640.94 69.31,-640.5"/>
</a>
</g>
</g>
<!-- Node3 -->
<g id="Node000003" class="node">
<title>Node3</title>
<g id="a_Node000003"><a xlink:href="classgoogletest-catch-exceptions-test_1_1CatchSehExceptionsTest.html" target="_top" xlink:title=" ">
<polygon fill="white" stroke="#666666" points="320.75,-1112.5 173.5,-1112.5 173.5,-1082 320.75,-1082 320.75,-1112.5"/>
<text text-anchor="start" x="181.5" y="-1099" font-family="Helvetica,sans-Serif" font-size="10.00">googletest&#45;catch&#45;exceptions</text>
<text text-anchor="middle" x="247.12" y="-1087.75" font-family="Helvetica,sans-Serif" font-size="10.00">&#45;test.CatchSehExceptionsTest</text>
</a>
</g>
</g>
<!-- Node0&#45;&gt;Node3 -->
<g id="edge8_Node000000_Node000003" class="edge">
<title>Node0&#45;&gt;Node3</title>
<g id="a_edge8_Node000000_Node000003"><a xlink:title=" ">
<path fill="none" stroke="#63b8ff" d="M66.25,-640.03C73.42,-720.09 102.96,-1007.33 163,-1072.25 166.38,-1075.9 170.26,-1079.03 174.47,-1081.7"/>
<polygon fill="#63b8ff" stroke="#63b8ff" points="69.78,-640.19 65.43,-630.53 62.81,-640.8 69.78,-640.19"/>
</a>
</g>
</g>
<!-- Node4 -->
<g id="Node000004" class="node">
<title>Node4</title>
<g id="a_Node000004"><a xlink:href="classgoogletest-color-test_1_1GTestColorTest.html" target="_top" xlink:title=" ">
<polygon fill="white" stroke="#666666" points="314,-1063.5 180.25,-1063.5 180.25,-1033 314,-1033 314,-1063.5"/>
<text text-anchor="start" x="188.25" y="-1050" font-family="Helvetica,sans-Serif" font-size="10.00">googletest&#45;color&#45;test.GTest</text>
<text text-anchor="middle" x="247.12" y="-1038.75" font-family="Helvetica,sans-Serif" font-size="10.00">ColorTest</text>
</a>
</g>
</g>
<!-- Node0&#45;&gt;Node4 -->
<g id="edge9_Node000000_Node000004" class="edge">
<title>Node0&#45;&gt;Node4</title>
<g id="a_edge9_Node000000_Node000004"><a xlink:title=" ">
<path fill="none" stroke="#63b8ff" d="M66.86,-640.13C75.67,-714.67 108.99,-966.3 163,-1023.25 167.87,-1028.39 173.76,-1032.48 180.12,-1035.74"/>
<polygon fill="#63b8ff" stroke="#63b8ff" points="70.37,-640.08 65.75,-630.54 63.42,-640.88 70.37,-640.08"/>
</a>
</g>
</g>
<!-- Node5 -->
<g id="Node000005" class="node">
<title>Node5</title>
<g id="a_Node000005"><a xlink:href="classgoogletest-env-var-test_1_1GTestEnvVarTest.html" target="_top" xlink:title=" ">
<polygon fill="white" stroke="#666666" points="305,-1014.5 189.25,-1014.5 189.25,-984 305,-984 305,-1014.5"/>
<text text-anchor="start" x="197.25" y="-1001" font-family="Helvetica,sans-Serif" font-size="10.00">googletest&#45;env&#45;var</text>
<text text-anchor="middle" x="247.12" y="-989.75" font-family="Helvetica,sans-Serif" font-size="10.00">&#45;test.GTestEnvVarTest</text>
</a>
</g>
</g>
<!-- Node0&#45;&gt;Node5 -->
<g id="edge10_Node000000_Node000005" class="edge">
<title>Node0&#45;&gt;Node5</title>
<g id="a_edge10_Node000000_Node000005"><a xlink:title=" ">
<path fill="none" stroke="#63b8ff" d="M63.79,-640.55C62.98,-701.51 69.22,-878.43 163,-974.25 170.17,-981.57 179.39,-986.77 189.08,-990.45"/>
<polygon fill="#63b8ff" stroke="#63b8ff" points="67.29,-640.67 64.02,-630.59 60.29,-640.51 67.29,-640.67"/>
</a>
</g>
</g>
<!-- Node6 -->
<g id="Node000006" class="node">
<title>Node6</title>
<g id="a_Node000006"><a xlink:href="classgoogletest-failfast-unittest_1_1GTestFailFastUnitTest.html" target="_top" xlink:title=" ">
<polygon fill="white" stroke="#666666" points="323.75,-965.5 170.5,-965.5 170.5,-935 323.75,-935 323.75,-965.5"/>
<text text-anchor="start" x="178.5" y="-952" font-family="Helvetica,sans-Serif" font-size="10.00">googletest&#45;failfast</text>
<text text-anchor="middle" x="247.12" y="-940.75" font-family="Helvetica,sans-Serif" font-size="10.00">&#45;unittest.GTestFailFastUnitTest</text>
</a>
</g>
</g>
<!-- Node0&#45;&gt;Node6 -->
<g id="edge11_Node000000_Node000006" class="edge">
<title>Node0&#45;&gt;Node6</title>
<g id="a_edge11_Node000000_Node000006"><a xlink:title=" ">
<path fill="none" stroke="#63b8ff" d="M64.91,-640.51C67.16,-695.68 80.93,-844.75 163,-925.25 166.66,-928.84 170.81,-931.91 175.26,-934.55"/>
<polygon fill="#63b8ff" stroke="#63b8ff" points="68.42,-640.53 64.61,-630.64 61.42,-640.75 68.42,-640.53"/>
</a>
</g>
</g>
<!-- Node7 -->
<g id="Node000007" class="node">
<title>Node7</title>
<g id="a_Node000007"><a xlink:href="classgoogletest-filter-unittest_1_1GTestFilterUnitTest.html" target="_top" xlink:title=" ">
<polygon fill="white" stroke="#666666" points="306.88,-916.5 187.38,-916.5 187.38,-886 306.88,-886 306.88,-916.5"/>
<text text-anchor="start" x="195.38" y="-903" font-family="Helvetica,sans-Serif" font-size="10.00">googletest&#45;filter&#45;unittest.</text>
<text text-anchor="middle" x="247.12" y="-891.75" font-family="Helvetica,sans-Serif" font-size="10.00">GTestFilterUnitTest</text>
</a>
</g>
</g>
<!-- Node0&#45;&gt;Node7 -->
<g id="edge12_Node000000_Node000007" class="edge">
<title>Node0&#45;&gt;Node7</title>
<g id="a_edge12_Node000000_Node000007"><a xlink:title=" ">
<path fill="none" stroke="#63b8ff" d="M66.32,-640.46C71.7,-689.57 91.89,-811.85 163,-877.25 169.85,-883.55 178.26,-888.21 187.08,-891.65"/>
<polygon fill="#63b8ff" stroke="#63b8ff" points="69.82,-640.26 65.36,-630.65 62.85,-640.94 69.82,-640.26"/>
</a>
</g>
</g>
<!-- Node8 -->
<g id="Node000008" class="node">
<title>Node8</title>
<g id="a_Node000008"><a xlink:href="classgoogletest-global-environment-unittest_1_1GTestGlobalEnvironmentUnitTest.html" target="_top" xlink:title=" ">
<polygon fill="white" stroke="#666666" points="328.25,-868.12 166,-868.12 166,-826.38 328.25,-826.38 328.25,-868.12"/>
<text text-anchor="start" x="174" y="-854.62" font-family="Helvetica,sans-Serif" font-size="10.00">googletest&#45;global&#45;environment</text>
<text text-anchor="start" x="174" y="-843.38" font-family="Helvetica,sans-Serif" font-size="10.00">&#45;unittest.GTestGlobalEnvironment</text>
<text text-anchor="middle" x="247.12" y="-832.12" font-family="Helvetica,sans-Serif" font-size="10.00">UnitTest</text>
</a>
</g>
</g>
<!-- Node0&#45;&gt;Node8 -->
<g id="edge13_Node000000_Node000008" class="edge">
<title>Node0&#45;&gt;Node8</title>
<g id="a_edge13_Node000000_Node000008"><a xlink:title=" ">
<path fill="none" stroke="#63b8ff" d="M69.32,-640.04C79.63,-679.98 107.52,-767.83 163,-817.25 166.67,-820.52 170.71,-823.43 174.99,-826.04"/>
<polygon fill="#63b8ff" stroke="#63b8ff" points="72.78,-639.42 66.99,-630.55 65.98,-641.09 72.78,-639.42"/>
</a>
</g>
</g>
<!-- Node9 -->
<g id="Node000009" class="node">
<title>Node9</title>
<g id="a_Node000009"><a xlink:href="classgoogletest-json-outfiles-test_1_1GTestJsonOutFilesTest.html" target="_top" xlink:title=" ">
<polygon fill="white" stroke="#666666" points="318.12,-808.5 176.12,-808.5 176.12,-778 318.12,-778 318.12,-808.5"/>
<text text-anchor="start" x="184.12" y="-795" font-family="Helvetica,sans-Serif" font-size="10.00">googletest&#45;json&#45;outfiles</text>
<text text-anchor="middle" x="247.12" y="-783.75" font-family="Helvetica,sans-Serif" font-size="10.00">&#45;test.GTestJsonOutFilesTest</text>
</a>
</g>
</g>
<!-- Node0&#45;&gt;Node9 -->
<g id="edge14_Node000000_Node000009" class="edge">
<title>Node0&#45;&gt;Node9</title>
<g id="a_edge14_Node000000_Node000009"><a xlink:title=" ">
<path fill="none" stroke="#63b8ff" d="M72.55,-639.71C86.24,-671.88 117.12,-734.14 163,-768.25 167.84,-771.85 173.19,-774.93 178.78,-777.57"/>
<polygon fill="#63b8ff" stroke="#63b8ff" points="75.89,-638.65 68.86,-630.73 69.42,-641.31 75.89,-638.65"/>
</a>
</g>
</g>
<!-- Node10 -->
<g id="Node000010" class="node">
<title>Node10</title>
<g id="a_Node000010"><a xlink:href="classgoogletest-json-output-unittest_1_1GTestJsonOutputUnitTest.html" target="_top" xlink:title=" ">
<polygon fill="white" stroke="#666666" points="331.25,-759.5 163,-759.5 163,-729 331.25,-729 331.25,-759.5"/>
<text text-anchor="start" x="171" y="-746" font-family="Helvetica,sans-Serif" font-size="10.00">googletest&#45;json&#45;output</text>
<text text-anchor="middle" x="247.12" y="-734.75" font-family="Helvetica,sans-Serif" font-size="10.00">&#45;unittest.GTestJsonOutputUnitTest</text>
</a>
</g>
</g>
<!-- Node0&#45;&gt;Node10 -->
<g id="edge15_Node000000_Node000010" class="edge">
<title>Node0&#45;&gt;Node10</title>
<g id="a_edge15_Node000000_Node000010"><a xlink:title=" ">
<path fill="none" stroke="#63b8ff" d="M78.14,-637.99C95.45,-660.46 127.37,-697.77 163,-719.25 168.94,-722.83 175.42,-725.93 182.07,-728.61"/>
<polygon fill="#63b8ff" stroke="#63b8ff" points="81.17,-636.19 72.36,-630.3 75.57,-640.4 81.17,-636.19"/>
</a>
</g>
</g>
<!-- Node11 -->
<g id="Node000011" class="node">
<title>Node11</title>
<g id="a_Node000011"><a xlink:href="classgoogletest-list-tests-unittest_1_1GTestListTestsUnitTest.html" target="_top" xlink:title=" ">
<polygon fill="white" stroke="#666666" points="326.75,-710.5 167.5,-710.5 167.5,-680 326.75,-680 326.75,-710.5"/>
<text text-anchor="start" x="175.5" y="-697" font-family="Helvetica,sans-Serif" font-size="10.00">googletest&#45;list&#45;tests</text>
<text text-anchor="middle" x="247.12" y="-685.75" font-family="Helvetica,sans-Serif" font-size="10.00">&#45;unittest.GTestListTestsUnitTest</text>
</a>
</g>
</g>
<!-- Node0&#45;&gt;Node11 -->
<g id="edge16_Node000000_Node000011" class="edge">
<title>Node0&#45;&gt;Node11</title>
<g id="a_edge16_Node000000_Node000011"><a xlink:title=" ">
<path fill="none" stroke="#63b8ff" d="M91.43,-634.92C110.87,-645.81 138,-660.12 163,-670.25 171.24,-673.59 180.1,-676.72 188.85,-679.55"/>
<polygon fill="#63b8ff" stroke="#63b8ff" points="93.22,-631.92 82.79,-630.02 89.76,-638 93.22,-631.92"/>
</a>
</g>
</g>
<!-- Node12 -->
<g id="Node000012" class="node">
<title>Node12</title>
<g id="a_Node000012"><a xlink:href="classgoogletest-output-test_1_1GTestOutputTest.html" target="_top" xlink:title=" ">
<polygon fill="white" stroke="#666666" points="317,-661.5 177.25,-661.5 177.25,-631 317,-631 317,-661.5"/>
<text text-anchor="start" x="185.25" y="-648" font-family="Helvetica,sans-Serif" font-size="10.00">googletest&#45;output&#45;test.GTest</text>
<text text-anchor="middle" x="247.12" y="-636.75" font-family="Helvetica,sans-Serif" font-size="10.00">OutputTest</text>
</a>
</g>
</g>
<!-- Node0&#45;&gt;Node12 -->
<g id="edge17_Node000000_Node000012" class="edge">
<title>Node0&#45;&gt;Node12</title>
<g id="a_edge17_Node000000_Node000012"><a xlink:title=" ">
<path fill="none" stroke="#63b8ff" d="M138.3,-630.22C151.04,-632.11 164.23,-634.08 176.84,-635.95"/>
<polygon fill="#63b8ff" stroke="#63b8ff" points="139.16,-626.81 128.76,-628.8 138.13,-633.73 139.16,-626.81"/>
</a>
</g>
</g>
<!-- Node13 -->
<g id="Node000013" class="node">
<title>Node13</title>
<g id="a_Node000013"><a xlink:href="classgoogletest-param-test-invalid-name1-test_1_1GTestParamTestInvalidName1Test.html" target="_top" xlink:title=" ">
<polygon fill="white" stroke="#666666" points="325.25,-613.12 169,-613.12 169,-571.38 325.25,-571.38 325.25,-613.12"/>
<text text-anchor="start" x="177" y="-599.62" font-family="Helvetica,sans-Serif" font-size="10.00">googletest&#45;param&#45;test</text>
<text text-anchor="start" x="177" y="-588.38" font-family="Helvetica,sans-Serif" font-size="10.00">&#45;invalid&#45;name1&#45;test.GTestParam</text>
<text text-anchor="middle" x="247.12" y="-577.12" font-family="Helvetica,sans-Serif" font-size="10.00">TestInvalidName1Test</text>
</a>
</g>
</g>
<!-- Node0&#45;&gt;Node13 -->
<g id="edge18_Node000000_Node000013" class="edge">
<title>Node0&#45;&gt;Node13</title>
<g id="a_edge18_Node000000_Node000013"><a xlink:title=" ">
<path fill="none" stroke="#63b8ff" d="M138.37,-608.27C148.34,-606.79 158.59,-605.26 168.62,-603.77"/>
<polygon fill="#63b8ff" stroke="#63b8ff" points="138.13,-604.77 128.76,-609.7 139.16,-611.69 138.13,-604.77"/>
</a>
</g>
</g>
<!-- Node14 -->
<g id="Node000014" class="node">
<title>Node14</title>
<g id="a_Node000014"><a xlink:href="classgoogletest-param-test-invalid-name2-test_1_1GTestParamTestInvalidName2Test.html" target="_top" xlink:title=" ">
<polygon fill="white" stroke="#666666" points="325.25,-553.12 169,-553.12 169,-511.38 325.25,-511.38 325.25,-553.12"/>
<text text-anchor="start" x="177" y="-539.62" font-family="Helvetica,sans-Serif" font-size="10.00">googletest&#45;param&#45;test</text>
<text text-anchor="start" x="177" y="-528.38" font-family="Helvetica,sans-Serif" font-size="10.00">&#45;invalid&#45;name2&#45;test.GTestParam</text>
<text text-anchor="middle" x="247.12" y="-517.12" font-family="Helvetica,sans-Serif" font-size="10.00">TestInvalidName2Test</text>
</a>
</g>
</g>
<!-- Node0&#45;&gt;Node14 -->
<g id="edge19_Node000000_Node000014" class="edge">
<title>Node0&#45;&gt;Node14</title>
<g id="a_edge19_Node000000_Node000014"><a xlink:title=" ">
<path fill="none" stroke="#63b8ff" d="M89.37,-603.2C108.89,-591 137.03,-574.33 163,-562.25 169.54,-559.21 176.48,-556.27 183.45,-553.51"/>
<polygon fill="#63b8ff" stroke="#63b8ff" points="87.6,-600.18 81.01,-608.48 91.34,-606.09 87.6,-600.18"/>
</a>
</g>
</g>
<!-- Node15 -->
<g id="Node000015" class="node">
<title>Node15</title>
<g id="a_Node000015"><a xlink:href="classgoogletest-setuptestsuite-test_1_1GTestSetUpTestSuiteTest.html" target="_top" xlink:title=" ">
<polygon fill="white" stroke="#666666" points="324.12,-493.5 170.12,-493.5 170.12,-463 324.12,-463 324.12,-493.5"/>
<text text-anchor="start" x="178.12" y="-480" font-family="Helvetica,sans-Serif" font-size="10.00">googletest&#45;setuptestsuite</text>
<text text-anchor="middle" x="247.12" y="-468.75" font-family="Helvetica,sans-Serif" font-size="10.00">&#45;test.GTestSetUpTestSuiteTest</text>
</a>
</g>
</g>
<!-- Node0&#45;&gt;Node15 -->
<g id="edge20_Node000000_Node000015" class="edge">
<title>Node0&#45;&gt;Node15</title>
<g id="a_edge20_Node000000_Node000015"><a xlink:title=" ">
<path fill="none" stroke="#63b8ff" d="M75.9,-599.52C91.99,-573.4 123.84,-527.69 163,-502.25 167.91,-499.06 173.26,-496.28 178.79,-493.87"/>
<polygon fill="#63b8ff" stroke="#63b8ff" points="72.9,-597.72 70.77,-608.1 78.9,-601.31 72.9,-597.72"/>
</a>
</g>
</g>
<!-- Node16 -->
<g id="Node000016" class="node">
<title>Node16</title>
<g id="a_Node000016"><a xlink:href="classgoogletest-shuffle-test_1_1GTestShuffleUnitTest.html" target="_top" xlink:title=" ">
<polygon fill="white" stroke="#666666" points="312.88,-444.5 181.38,-444.5 181.38,-414 312.88,-414 312.88,-444.5"/>
<text text-anchor="start" x="189.38" y="-431" font-family="Helvetica,sans-Serif" font-size="10.00">googletest&#45;shuffle</text>
<text text-anchor="middle" x="247.12" y="-419.75" font-family="Helvetica,sans-Serif" font-size="10.00">&#45;test.GTestShuffleUnitTest</text>
</a>
</g>
</g>
<!-- Node0&#45;&gt;Node16 -->
<g id="edge21_Node000000_Node000016" class="edge">
<title>Node0&#45;&gt;Node16</title>
<g id="a_edge21_Node000000_Node000016"><a xlink:title=" ">
<path fill="none" stroke="#63b8ff" d="M71.22,-598.59C83.65,-563.62 113.58,-492.79 163,-454.25 168.47,-449.99 174.65,-446.45 181.12,-443.51"/>
<polygon fill="#63b8ff" stroke="#63b8ff" points="67.95,-597.33 68.04,-607.92 74.58,-599.59 67.95,-597.33"/>
</a>
</g>
</g>
<!-- Node17 -->
<g id="Node000017" class="node">
<title>Node17</title>
<g id="a_Node000017"><a xlink:href="classgoogletest-throw-on-failure-test_1_1ThrowOnFailureTest.html" target="_top" xlink:title=" ">
<polygon fill="white" stroke="#666666" points="324.88,-395.5 169.38,-395.5 169.38,-365 324.88,-365 324.88,-395.5"/>
<text text-anchor="start" x="177.38" y="-382" font-family="Helvetica,sans-Serif" font-size="10.00">googletest&#45;throw&#45;on</text>
<text text-anchor="middle" x="247.12" y="-370.75" font-family="Helvetica,sans-Serif" font-size="10.00">&#45;failure&#45;test.ThrowOnFailureTest</text>
</a>
</g>
</g>
<!-- Node0&#45;&gt;Node17 -->
<g id="edge22_Node000000_Node000017" class="edge">
<title>Node0&#45;&gt;Node17</title>
<g id="a_edge22_Node000000_Node000017"><a xlink:title=" ">
<path fill="none" stroke="#63b8ff" d="M68.2,-598.28C76.86,-555.52 102.46,-457.9 163,-405.25 167.21,-401.59 171.94,-398.47 176.94,-395.8"/>
<polygon fill="#63b8ff" stroke="#63b8ff" points="64.79,-597.49 66.36,-607.97 71.67,-598.8 64.79,-597.49"/>
</a>
</g>
</g>
<!-- Node18 -->
<g id="Node000018" class="node">
<title>Node18</title>
<g id="a_Node000018"><a xlink:href="classgoogletest-uninitialized-test_1_1GTestUninitializedTest.html" target="_top" xlink:title=" ">
<polygon fill="white" stroke="#666666" points="315.5,-346.5 178.75,-346.5 178.75,-316 315.5,-316 315.5,-346.5"/>
<text text-anchor="start" x="186.75" y="-333" font-family="Helvetica,sans-Serif" font-size="10.00">googletest&#45;uninitialized</text>
<text text-anchor="middle" x="247.12" y="-321.75" font-family="Helvetica,sans-Serif" font-size="10.00">&#45;test.GTestUninitializedTest</text>
</a>
</g>
</g>
<!-- Node0&#45;&gt;Node18 -->
<g id="edge23_Node000000_Node000018" class="edge">
<title>Node0&#45;&gt;Node18</title>
<g id="a_edge23_Node000000_Node000018"><a xlink:title=" ">
<path fill="none" stroke="#63b8ff" d="M66.21,-598.01C71.35,-548.3 91.12,-423.52 163,-356.25 167.51,-352.03 172.71,-348.52 178.26,-345.6"/>
<polygon fill="#63b8ff" stroke="#63b8ff" points="62.75,-597.41 65.31,-607.69 69.72,-598.05 62.75,-597.41"/>
</a>
</g>
</g>
<!-- Node19 -->
<g id="Node000019" class="node">
<title>Node19</title>
<g id="a_Node000019"><a xlink:href="classgtest__help__test_1_1GTestHelpTest.html" target="_top" xlink:title=" ">
<polygon fill="white" stroke="#666666" points="323,-297.88 171.25,-297.88 171.25,-278.62 323,-278.62 323,-297.88"/>
<text text-anchor="middle" x="247.12" y="-284.38" font-family="Helvetica,sans-Serif" font-size="10.00">gtest_help_test.GTestHelpTest</text>
</a>
</g>
</g>
<!-- Node0&#45;&gt;Node19 -->
<g id="edge24_Node000000_Node000019" class="edge">
<title>Node0&#45;&gt;Node19</title>
<g id="a_edge24_Node000000_Node000019"><a xlink:title=" ">
<path fill="none" stroke="#63b8ff" d="M64.45,-598C65.52,-541.58 76.6,-386.91 163,-307.25 166.92,-303.64 171.38,-300.67 176.15,-298.22"/>
<polygon fill="#63b8ff" stroke="#63b8ff" points="60.95,-597.77 64.36,-607.8 67.95,-597.83 60.95,-597.77"/>
</a>
</g>
</g>
<!-- Node20 -->
<g id="Node000020" class="node">
<title>Node20</title>
<g id="a_Node000020"><a xlink:href="classgtest__list__output__unittest_1_1GTestListTestsOutputUnitTest.html" target="_top" xlink:title=" ">
<polygon fill="white" stroke="#666666" points="322.62,-260.5 171.62,-260.5 171.62,-230 322.62,-230 322.62,-260.5"/>
<text text-anchor="start" x="179.62" y="-247" font-family="Helvetica,sans-Serif" font-size="10.00">gtest_list_output_unittest.</text>
<text text-anchor="middle" x="247.12" y="-235.75" font-family="Helvetica,sans-Serif" font-size="10.00">GTestListTestsOutputUnitTest</text>
</a>
</g>
</g>
<!-- Node0&#45;&gt;Node20 -->
<g id="edge25_Node000000_Node000020" class="edge">
<title>Node0&#45;&gt;Node20</title>
<g id="a_edge25_Node000000_Node000020"><a xlink:title=" ">
<path fill="none" stroke="#63b8ff" d="M63.84,-597.79C63.2,-537.16 69.96,-362.92 163,-269.25 166.18,-266.05 169.75,-263.28 173.58,-260.86"/>
<polygon fill="#63b8ff" stroke="#63b8ff" points="60.34,-597.78 64.04,-607.71 67.34,-597.64 60.34,-597.78"/>
</a>
</g>
</g>
<!-- Node21 -->
<g id="Node000021" class="node">
<title>Node21</title>
<g id="a_Node000021"><a xlink:href="classgtest__skip__check__output__test_1_1SkipEntireEnvironmentTest.html" target="_top" xlink:title=" ">
<polygon fill="white" stroke="#666666" points="326,-211.5 168.25,-211.5 168.25,-181 326,-181 326,-211.5"/>
<text text-anchor="start" x="176.25" y="-198" font-family="Helvetica,sans-Serif" font-size="10.00">gtest_skip_check_output</text>
<text text-anchor="middle" x="247.12" y="-186.75" font-family="Helvetica,sans-Serif" font-size="10.00">_test.SkipEntireEnvironmentTest</text>
</a>
</g>
</g>
<!-- Node0&#45;&gt;Node21 -->
<g id="edge26_Node000000_Node000021" class="edge">
<title>Node0&#45;&gt;Node21</title>
<g id="a_edge26_Node000000_Node000021"><a xlink:title=" ">
<path fill="none" stroke="#63b8ff" d="M66.96,-598.2C76.02,-524.15 109.77,-277.18 163,-221.25 166.43,-217.65 170.35,-214.56 174.59,-211.91"/>
<polygon fill="#63b8ff" stroke="#63b8ff" points="63.53,-597.39 65.82,-607.74 70.48,-598.23 63.53,-597.39"/>
</a>
</g>
</g>
<!-- Node22 -->
<g id="Node000022" class="node">
<title>Node22</title>
<g id="a_Node000022"><a xlink:href="classgtest__skip__environment__check__output__test_1_1SkipEntireEnvironmentTest.html" target="_top" xlink:title=" ">
<polygon fill="white" stroke="#666666" points="321.12,-163.12 173.12,-163.12 173.12,-121.38 321.12,-121.38 321.12,-163.12"/>
<text text-anchor="start" x="181.12" y="-149.62" font-family="Helvetica,sans-Serif" font-size="10.00">gtest_skip_environment</text>
<text text-anchor="start" x="181.12" y="-138.38" font-family="Helvetica,sans-Serif" font-size="10.00">_check_output_test.SkipEntire</text>
<text text-anchor="middle" x="247.12" y="-127.12" font-family="Helvetica,sans-Serif" font-size="10.00">EnvironmentTest</text>
</a>
</g>
</g>
<!-- Node0&#45;&gt;Node22 -->
<g id="edge27_Node000000_Node000022" class="edge">
<title>Node0&#45;&gt;Node22</title>
<g id="a_edge27_Node000000_Node000022"><a xlink:title=" ">
<path fill="none" stroke="#63b8ff" d="M66.5,-597.83C74.37,-517.81 105.63,-237.58 163,-172.25 165.94,-168.91 169.27,-165.94 172.88,-163.3"/>
<polygon fill="#63b8ff" stroke="#63b8ff" points="63.02,-597.47 65.55,-607.76 69.99,-598.14 63.02,-597.47"/>
</a>
</g>
</g>
<!-- Node23 -->
<g id="Node000023" class="node">
<title>Node23</title>
<g id="a_Node000023"><a xlink:href="classgtest__testbridge__test_1_1GTestTestFilterTest.html" target="_top" xlink:title=" ">
<polygon fill="white" stroke="#666666" points="315.5,-103.5 178.75,-103.5 178.75,-73 315.5,-73 315.5,-103.5"/>
<text text-anchor="start" x="186.75" y="-90" font-family="Helvetica,sans-Serif" font-size="10.00">gtest_testbridge_test.GTest</text>
<text text-anchor="middle" x="247.12" y="-78.75" font-family="Helvetica,sans-Serif" font-size="10.00">TestFilterTest</text>
</a>
</g>
</g>
<!-- Node0&#45;&gt;Node23 -->
<g id="edge28_Node000000_Node000023" class="edge">
<title>Node0&#45;&gt;Node23</title>
<g id="a_edge28_Node000000_Node000023"><a xlink:title=" ">
<path fill="none" stroke="#63b8ff" d="M65.76,-597.69C71.28,-510.52 96.09,-185.41 163,-112.25 167.36,-107.48 172.6,-103.64 178.3,-100.55"/>
<polygon fill="#63b8ff" stroke="#63b8ff" points="62.27,-597.46 65.15,-607.65 69.25,-597.88 62.27,-597.46"/>
</a>
</g>
</g>
<!-- Node24 -->
<g id="Node000024" class="node">
<title>Node24</title>
<g id="a_Node000024"><a xlink:href="classgtest__xml__test__utils_1_1GTestXMLTestCase.html" target="_top" xlink:title=" ">
<polygon fill="white" stroke="#666666" points="313.25,-54.5 181,-54.5 181,-24 313.25,-24 313.25,-54.5"/>
<text text-anchor="start" x="189" y="-41" font-family="Helvetica,sans-Serif" font-size="10.00">gtest_xml_test_utils.GTest</text>
<text text-anchor="middle" x="247.12" y="-29.75" font-family="Helvetica,sans-Serif" font-size="10.00">XMLTestCase</text>
</a>
</g>
</g>
<!-- Node0&#45;&gt;Node24 -->
<g id="edge29_Node000000_Node000024" class="edge">
<title>Node0&#45;&gt;Node24</title>
<g id="a_edge29_Node000000_Node000024"><a xlink:title=" ">
<path fill="none" stroke="#63b8ff" d="M65.37,-598.06C69.55,-506.5 90.46,-145.78 163,-64.25 167.91,-58.73 173.98,-54.41 180.6,-51.03"/>
<polygon fill="#63b8ff" stroke="#63b8ff" points="61.87,-597.9 64.94,-608.04 68.87,-598.2 61.87,-597.9"/>
</a>
</g>
</g>
<!-- Node25 -->
<g id="Node000025" class="node">
<title>Node25</title>
<g id="a_Node000025"><a xlink:href="classgtest__xml__outfiles__test_1_1GTestXMLOutFilesTest.html" target="_top" xlink:title=" ">
<polygon fill="white" stroke="#666666" points="511.5,-79.5 367.25,-79.5 367.25,-49 511.5,-49 511.5,-79.5"/>
<text text-anchor="start" x="375.25" y="-66" font-family="Helvetica,sans-Serif" font-size="10.00">gtest_xml_outfiles</text>
<text text-anchor="middle" x="439.38" y="-54.75" font-family="Helvetica,sans-Serif" font-size="10.00">_test.GTestXMLOutFilesTest</text>
</a>
</g>
</g>
<!-- Node24&#45;&gt;Node25 -->
<g id="edge30_Node000024_Node000025" class="edge">
<title>Node24&#45;&gt;Node25</title>
<g id="a_edge30_Node000024_Node000025"><a xlink:title=" ">
<path fill="none" stroke="#63b8ff" d="M324.65,-49.31C338.61,-51.14 353.12,-53.05 366.92,-54.86"/>
<polygon fill="#63b8ff" stroke="#63b8ff" points="325.47,-45.88 315.1,-48.05 324.56,-52.82 325.47,-45.88"/>
</a>
</g>
</g>
<!-- Node26 -->
<g id="Node000026" class="node">
<title>Node26</title>
<g id="a_Node000026"><a xlink:href="classgtest__xml__output__unittest_1_1GTestXMLOutputUnitTest.html" target="_top" xlink:title=" ">
<polygon fill="white" stroke="#666666" points="504.75,-30.5 374,-30.5 374,0 504.75,0 504.75,-30.5"/>
<text text-anchor="start" x="382" y="-17" font-family="Helvetica,sans-Serif" font-size="10.00">gtest_xml_output_unittest.</text>
<text text-anchor="middle" x="439.38" y="-5.75" font-family="Helvetica,sans-Serif" font-size="10.00">GTestXMLOutputUnitTest</text>
</a>
</g>
</g>
<!-- Node24&#45;&gt;Node26 -->
<g id="edge31_Node000024_Node000026" class="edge">
<title>Node24&#45;&gt;Node26</title>
<g id="a_edge31_Node000024_Node000026"><a xlink:title=" ">
<path fill="none" stroke="#63b8ff" d="M324.71,-29.59C340.97,-27.54 357.98,-25.39 373.75,-23.4"/>
<polygon fill="#63b8ff" stroke="#63b8ff" points="324.58,-26.08 315.1,-30.8 325.46,-33.02 324.58,-26.08"/>
</a>
</g>
</g>
</g>
</svg>
