<?xml version="1.0" encoding="UTF-8" standalone="no"?>
<!DOCTYPE svg PUBLIC "-//W3C//DTD SVG 1.1//EN"
 "http://www.w3.org/Graphics/SVG/1.1/DTD/svg11.dtd">
<!-- Generated by graphviz version 12.1.2 (20240928.0832)
 -->
<!-- Title: Graphical Class Hierarchy Pages: 1 -->
<svg width="265pt" height="169pt"
 viewBox="0.00 0.00 265.00 169.38" xmlns="http://www.w3.org/2000/svg" xmlns:xlink="http://www.w3.org/1999/xlink">
<g id="graph0" class="graph" transform="scale(1 1) rotate(0) translate(4 165.38)">
<title>Graphical Class Hierarchy</title>
<!-- Node0 -->
<g id="Node000000" class="node">
<title>Node0</title>
<g id="a_Node000000"><a xlink:title=" ">
<polygon fill="#e0e0e0" stroke="#999999" points="103,-106.75 0,-106.75 0,-87.5 103,-87.5 103,-106.75"/>
<text text-anchor="middle" x="51.5" y="-93.25" font-family="Helvetica,sans-Serif" font-size="10.00">std::conditional::type</text>
</a>
</g>
</g>
<!-- Node1 -->
<g id="Node000001" class="node">
<title>Node1</title>
<g id="a_Node000001"><a xlink:href="structtesting_1_1internal_1_1conjunction_3_01P1_00_01Ps_8_8_8_01_4.html" target="_top" xlink:title=" ">
<polygon fill="white" stroke="#666666" points="257,-161.38 139,-161.38 139,-130.88 257,-130.88 257,-161.38"/>
<text text-anchor="start" x="147" y="-147.88" font-family="Helvetica,sans-Serif" font-size="10.00">testing::internal::</text>
<text text-anchor="middle" x="198" y="-136.62" font-family="Helvetica,sans-Serif" font-size="10.00">conjunction&lt; P1, Ps... &gt;</text>
</a>
</g>
</g>
<!-- Node0&#45;&gt;Node1 -->
<g id="edge43_Node000000_Node000001" class="edge">
<title>Node0&#45;&gt;Node1</title>
<g id="a_edge43_Node000000_Node000001"><a xlink:title=" ">
<path fill="none" stroke="#63b8ff" d="M92.8,-110.79C110.77,-116.88 132.04,-124.1 150.66,-130.41"/>
<polygon fill="#63b8ff" stroke="#63b8ff" points="94.12,-107.54 83.52,-107.65 91.87,-114.17 94.12,-107.54"/>
</a>
</g>
</g>
<!-- Node2 -->
<g id="Node000002" class="node">
<title>Node2</title>
<g id="a_Node000002"><a xlink:href="structtesting_1_1internal_1_1disjunction_3_01P1_00_01Ps_8_8_8_01_4.html" target="_top" xlink:title=" ">
<polygon fill="white" stroke="#666666" points="255.5,-112.38 140.5,-112.38 140.5,-81.88 255.5,-81.88 255.5,-112.38"/>
<text text-anchor="start" x="148.5" y="-98.88" font-family="Helvetica,sans-Serif" font-size="10.00">testing::internal::</text>
<text text-anchor="middle" x="198" y="-87.62" font-family="Helvetica,sans-Serif" font-size="10.00">disjunction&lt; P1, Ps... &gt;</text>
</a>
</g>
</g>
<!-- Node0&#45;&gt;Node2 -->
<g id="edge44_Node000000_Node000002" class="edge">
<title>Node0&#45;&gt;Node2</title>
<g id="a_edge44_Node000000_Node000002"><a xlink:title=" ">
<path fill="none" stroke="#63b8ff" d="M114.77,-97.12C123.19,-97.12 131.8,-97.12 140.12,-97.12"/>
<polygon fill="#63b8ff" stroke="#63b8ff" points="114.96,-93.63 104.96,-97.13 114.96,-100.63 114.96,-93.63"/>
</a>
</g>
</g>
<!-- Node3 -->
<g id="Node000003" class="node">
<title>Node3</title>
<g id="a_Node000003"><a xlink:href="structtesting_1_1internal_1_1is__callable__r__impl_3_01void__t_3_01call__result__t_3_01F_00_01Ar35069a5339cf615f2b8c2ed10280b42b.html" target="_top" xlink:title=" ">
<polygon fill="white" stroke="#666666" points="249.12,-64.25 146.88,-64.25 146.88,0 249.12,0 249.12,-64.25"/>
<text text-anchor="start" x="154.88" y="-50.75" font-family="Helvetica,sans-Serif" font-size="10.00">testing::internal::</text>
<text text-anchor="start" x="154.88" y="-39.5" font-family="Helvetica,sans-Serif" font-size="10.00">is_callable_r_impl&lt;</text>
<text text-anchor="start" x="154.88" y="-28.25" font-family="Helvetica,sans-Serif" font-size="10.00"> void_t&lt; call_result</text>
<text text-anchor="start" x="154.88" y="-17" font-family="Helvetica,sans-Serif" font-size="10.00">_t&lt; F, Args... &gt; &gt;, R,</text>
<text text-anchor="middle" x="198" y="-5.75" font-family="Helvetica,sans-Serif" font-size="10.00"> F, Args... &gt;</text>
</a>
</g>
</g>
<!-- Node0&#45;&gt;Node3 -->
<g id="edge45_Node000000_Node000003" class="edge">
<title>Node0&#45;&gt;Node3</title>
<g id="a_edge45_Node000000_Node000003"><a xlink:title=" ">
<path fill="none" stroke="#63b8ff" d="M85.09,-82.47C103.21,-74.31 126.16,-63.99 146.55,-54.82"/>
<polygon fill="#63b8ff" stroke="#63b8ff" points="83.83,-79.2 76.14,-86.49 86.7,-85.58 83.83,-79.2"/>
</a>
</g>
</g>
</g>
</svg>
