<?xml version="1.0" encoding="UTF-8" standalone="no"?>
<!DOCTYPE svg PUBLIC "-//W3C//DTD SVG 1.1//EN"
 "http://www.w3.org/Graphics/SVG/1.1/DTD/svg11.dtd">
<!-- Generated by graphviz version 12.1.2 (20240928.0832)
 -->
<!-- Title: Graphical Class Hierarchy Pages: 1 -->
<svg width="297pt" height="248pt"
 viewBox="0.00 0.00 296.50 247.88" xmlns="http://www.w3.org/2000/svg" xmlns:xlink="http://www.w3.org/1999/xlink">
<g id="graph0" class="graph" transform="scale(1 1) rotate(0) translate(4 243.88)">
<title>Graphical Class Hierarchy</title>
<!-- Node0 -->
<g id="Node000000" class="node">
<title>Node0</title>
<g id="a_Node000000"><a xlink:href="classtesting_1_1Environment.html" target="_top" xlink:title=" ">
<polygon fill="white" stroke="#666666" points="103.75,-143.88 0,-143.88 0,-124.62 103.75,-124.62 103.75,-143.88"/>
<text text-anchor="middle" x="51.88" y="-130.38" font-family="Helvetica,sans-Serif" font-size="10.00">testing::Environment</text>
</a>
</g>
</g>
<!-- Node1 -->
<g id="Node000001" class="node">
<title>Node1</title>
<g id="a_Node000001"><a xlink:href="classBarEnvironment.html" target="_top" xlink:title=" ">
<polygon fill="white" stroke="#666666" points="256.62,-239.88 171.62,-239.88 171.62,-220.62 256.62,-220.62 256.62,-239.88"/>
<text text-anchor="middle" x="214.12" y="-226.38" font-family="Helvetica,sans-Serif" font-size="10.00">BarEnvironment</text>
</a>
</g>
</g>
<!-- Node0&#45;&gt;Node1 -->
<g id="edge176_Node000000_Node000001" class="edge">
<title>Node0&#45;&gt;Node1</title>
<g id="a_edge176_Node000000_Node000001"><a xlink:title=" ">
<path fill="none" stroke="#63b8ff" d="M68.49,-152.79C84.56,-170.67 111.21,-197.17 139.75,-212.25 149.49,-217.4 160.74,-221.1 171.46,-223.76"/>
<polygon fill="#63b8ff" stroke="#63b8ff" points="71.31,-150.7 62.1,-145.48 66.04,-155.31 71.31,-150.7"/>
</a>
</g>
</g>
<!-- Node2 -->
<g id="Node000002" class="node">
<title>Node2</title>
<g id="a_Node000002"><a xlink:href="classFooEnvironment.html" target="_top" xlink:title=" ">
<polygon fill="white" stroke="#666666" points="257.38,-202.88 170.88,-202.88 170.88,-183.62 257.38,-183.62 257.38,-202.88"/>
<text text-anchor="middle" x="214.12" y="-189.38" font-family="Helvetica,sans-Serif" font-size="10.00">FooEnvironment</text>
</a>
</g>
</g>
<!-- Node0&#45;&gt;Node2 -->
<g id="edge177_Node000000_Node000002" class="edge">
<title>Node0&#45;&gt;Node2</title>
<g id="a_edge177_Node000000_Node000002"><a xlink:title=" ">
<path fill="none" stroke="#63b8ff" d="M81.56,-149.57C98.2,-158 119.76,-168.16 139.75,-175.25 149.52,-178.71 160.24,-181.75 170.41,-184.3"/>
<polygon fill="#63b8ff" stroke="#63b8ff" points="83.23,-146.49 72.74,-145.02 80.02,-152.72 83.23,-146.49"/>
</a>
</g>
</g>
<!-- Node3 -->
<g id="Node000003" class="node">
<title>Node3</title>
<g id="a_Node000003"><a xlink:href="classSetupEnvironment.html" target="_top" xlink:title=" ">
<polygon fill="white" stroke="#666666" points="261.88,-165.88 166.38,-165.88 166.38,-146.62 261.88,-146.62 261.88,-165.88"/>
<text text-anchor="middle" x="214.12" y="-152.38" font-family="Helvetica,sans-Serif" font-size="10.00">SetupEnvironment</text>
</a>
</g>
</g>
<!-- Node0&#45;&gt;Node3 -->
<g id="edge178_Node000000_Node000003" class="edge">
<title>Node0&#45;&gt;Node3</title>
<g id="a_edge178_Node000000_Node000003"><a xlink:title=" ">
<path fill="none" stroke="#63b8ff" d="M114.97,-142.77C131.93,-145.1 150.02,-147.59 166,-149.78"/>
<polygon fill="#63b8ff" stroke="#63b8ff" points="115.9,-139.37 105.52,-141.48 114.95,-146.3 115.9,-139.37"/>
</a>
</g>
</g>
<!-- Node4 -->
<g id="Node000004" class="node">
<title>Node4</title>
<g id="a_Node000004"><a xlink:href="classTestGenerationEnvironment.html" target="_top" xlink:title=" ">
<polygon fill="white" stroke="#666666" points="282.5,-128.5 145.75,-128.5 145.75,-98 282.5,-98 282.5,-128.5"/>
<text text-anchor="start" x="153.75" y="-115" font-family="Helvetica,sans-Serif" font-size="10.00">TestGenerationEnvironment</text>
<text text-anchor="middle" x="214.12" y="-103.75" font-family="Helvetica,sans-Serif" font-size="10.00">&lt; kExpectedCalls &gt;</text>
</a>
</g>
</g>
<!-- Node0&#45;&gt;Node4 -->
<g id="edge179_Node000000_Node000004" class="edge">
<title>Node0&#45;&gt;Node4</title>
<g id="a_edge179_Node000000_Node000004"><a xlink:title=" ">
<path fill="none" stroke="#63b8ff" d="M115.4,-126.06C125.27,-124.76 135.52,-123.42 145.5,-122.11"/>
<polygon fill="#63b8ff" stroke="#63b8ff" points="114.98,-122.58 105.52,-127.35 115.89,-129.52 114.98,-122.58"/>
</a>
</g>
</g>
<!-- Node5 -->
<g id="Node000005" class="node">
<title>Node5</title>
<g id="a_Node000005"><a xlink:href="classtesting_1_1internal_1_1EnvironmentInvocationCatcher.html" target="_top" xlink:title=" ">
<polygon fill="white" stroke="#666666" points="288.5,-79.5 139.75,-79.5 139.75,-49 288.5,-49 288.5,-79.5"/>
<text text-anchor="start" x="147.75" y="-66" font-family="Helvetica,sans-Serif" font-size="10.00">testing::internal::</text>
<text text-anchor="middle" x="214.12" y="-54.75" font-family="Helvetica,sans-Serif" font-size="10.00">EnvironmentInvocationCatcher</text>
</a>
</g>
</g>
<!-- Node0&#45;&gt;Node5 -->
<g id="edge180_Node000000_Node000005" class="edge">
<title>Node0&#45;&gt;Node5</title>
<g id="a_edge180_Node000000_Node000005"><a xlink:title=" ">
<path fill="none" stroke="#63b8ff" d="M80.21,-118.75C97.07,-109.53 119.31,-97.97 139.75,-89.25 147.42,-85.98 155.69,-82.82 163.8,-79.92"/>
<polygon fill="#63b8ff" stroke="#63b8ff" points="78.85,-115.5 71.79,-123.41 82.24,-121.63 78.85,-115.5"/>
</a>
</g>
</g>
<!-- Node6 -->
<g id="Node000006" class="node">
<title>Node6</title>
<g id="a_Node000006"><a xlink:href="classtesting_1_1internal_1_1FinalSuccessChecker.html" target="_top" xlink:title=" ">
<polygon fill="white" stroke="#666666" points="269.75,-30.5 158.5,-30.5 158.5,0 269.75,0 269.75,-30.5"/>
<text text-anchor="start" x="166.5" y="-17" font-family="Helvetica,sans-Serif" font-size="10.00">testing::internal::</text>
<text text-anchor="middle" x="214.12" y="-5.75" font-family="Helvetica,sans-Serif" font-size="10.00">FinalSuccessChecker</text>
</a>
</g>
</g>
<!-- Node0&#45;&gt;Node6 -->
<g id="edge181_Node000000_Node000006" class="edge">
<title>Node0&#45;&gt;Node6</title>
<g id="a_edge181_Node000000_Node000006"><a xlink:title=" ">
<path fill="none" stroke="#63b8ff" d="M66.11,-114.97C81.52,-93.86 108.85,-60.34 139.75,-40.25 145.39,-36.58 151.63,-33.39 158.01,-30.64"/>
<polygon fill="#63b8ff" stroke="#63b8ff" points="63.35,-112.81 60.41,-122.99 69.06,-116.86 63.35,-112.81"/>
</a>
</g>
</g>
</g>
</svg>
