<?xml version="1.0" encoding="UTF-8" standalone="no"?>
<!DOCTYPE svg PUBLIC "-//W3C//DTD SVG 1.1//EN"
 "http://www.w3.org/Graphics/SVG/1.1/DTD/svg11.dtd">
<!-- Generated by graphviz version 12.1.2 (20240928.0832)
 -->
<!-- Title: Graphical Class Hierarchy Pages: 1 -->
<svg width="227pt" height="88pt"
 viewBox="0.00 0.00 226.75 87.50" xmlns="http://www.w3.org/2000/svg" xmlns:xlink="http://www.w3.org/1999/xlink">
<g id="graph0" class="graph" transform="scale(1 1) rotate(0) translate(4 83.5)">
<title>Graphical Class Hierarchy</title>
<!-- Node0 -->
<g id="Node000000" class="node">
<title>Node0</title>
<g id="a_Node000000"><a xlink:href="classBase.html" target="_top" xlink:title=" ">
<polygon fill="white" stroke="#666666" points="38.5,-48.88 0,-48.88 0,-29.62 38.5,-29.62 38.5,-48.88"/>
<text text-anchor="middle" x="19.25" y="-35.38" font-family="Helvetica,sans-Serif" font-size="10.00">Base</text>
</a>
</g>
</g>
<!-- Node1 -->
<g id="Node000001" class="node">
<title>Node1</title>
<g id="a_Node000001"><a xlink:href="classnamespace1_1_1MyTypeInNameSpace1.html" target="_top" xlink:title=" ">
<polygon fill="white" stroke="#666666" points="218.75,-79.5 74.5,-79.5 74.5,-49 218.75,-49 218.75,-79.5"/>
<text text-anchor="start" x="82.5" y="-66" font-family="Helvetica,sans-Serif" font-size="10.00">namespace1::MyTypeInName</text>
<text text-anchor="middle" x="146.62" y="-54.75" font-family="Helvetica,sans-Serif" font-size="10.00">Space1</text>
</a>
</g>
</g>
<!-- Node0&#45;&gt;Node1 -->
<g id="edge1_Node000000_Node000001" class="edge">
<title>Node0&#45;&gt;Node1</title>
<g id="a_edge1_Node000000_Node000001"><a xlink:title=" ">
<path fill="none" stroke="#63b8ff" d="M49.91,-45.16C57.3,-46.64 65.54,-48.28 74.01,-49.97"/>
<polygon fill="#63b8ff" stroke="#63b8ff" points="50.73,-41.76 40.23,-43.23 49.36,-48.62 50.73,-41.76"/>
</a>
</g>
</g>
<!-- Node2 -->
<g id="Node000002" class="node">
<title>Node2</title>
<g id="a_Node000002"><a xlink:href="classnamespace2_1_1MyTypeInNameSpace2.html" target="_top" xlink:title=" ">
<polygon fill="white" stroke="#666666" points="218.75,-30.5 74.5,-30.5 74.5,0 218.75,0 218.75,-30.5"/>
<text text-anchor="start" x="82.5" y="-17" font-family="Helvetica,sans-Serif" font-size="10.00">namespace2::MyTypeInName</text>
<text text-anchor="middle" x="146.62" y="-5.75" font-family="Helvetica,sans-Serif" font-size="10.00">Space2</text>
</a>
</g>
</g>
<!-- Node0&#45;&gt;Node2 -->
<g id="edge2_Node000000_Node000002" class="edge">
<title>Node0&#45;&gt;Node2</title>
<g id="a_edge2_Node000000_Node000002"><a xlink:title=" ">
<path fill="none" stroke="#63b8ff" d="M49.91,-33.57C57.3,-32.16 65.54,-30.58 74.01,-28.96"/>
<polygon fill="#63b8ff" stroke="#63b8ff" points="49.4,-30.11 40.24,-35.42 50.72,-36.98 49.4,-30.11"/>
</a>
</g>
</g>
</g>
</svg>
