<?xml version="1.0" encoding="UTF-8" standalone="no"?>
<!DOCTYPE svg PUBLIC "-//W3C//DTD SVG 1.1//EN"
 "http://www.w3.org/Graphics/SVG/1.1/DTD/svg11.dtd">
<!-- Generated by graphviz version 12.1.2 (20240928.0832)
 -->
<!-- Title: Graphical Class Hierarchy Pages: 1 -->
<svg width="167pt" height="88pt"
 viewBox="0.00 0.00 166.80 87.50" xmlns="http://www.w3.org/2000/svg" xmlns:xlink="http://www.w3.org/1999/xlink">
<g id="graph0" class="graph" transform="scale(1 1) rotate(0) translate(4 83.5)">
<title>Graphical Class Hierarchy</title>
<!-- Node0 -->
<g id="Node000000" class="node">
<title>Node0</title>
<g id="a_Node000000"><a xlink:title=" ">
<polygon fill="#e0e0e0" stroke="#999999" points="28.8,-48.88 0,-48.88 0,-29.62 28.8,-29.62 28.8,-48.88"/>
<text text-anchor="middle" x="14.4" y="-35.38" font-family="Helvetica,sans-Serif" font-size="10.00">P1</text>
</a>
</g>
</g>
<!-- Node1 -->
<g id="Node000001" class="node">
<title>Node1</title>
<g id="a_Node000001"><a xlink:href="structtesting_1_1internal_1_1conjunction_3_01P1_01_4.html" target="_top" xlink:title=" ">
<polygon fill="white" stroke="#666666" points="158.8,-79.5 64.8,-79.5 64.8,-49 158.8,-49 158.8,-79.5"/>
<text text-anchor="start" x="72.8" y="-66" font-family="Helvetica,sans-Serif" font-size="10.00">testing::internal::</text>
<text text-anchor="middle" x="111.8" y="-54.75" font-family="Helvetica,sans-Serif" font-size="10.00">conjunction&lt; P1 &gt;</text>
</a>
</g>
</g>
<!-- Node0&#45;&gt;Node1 -->
<g id="edge37_Node000000_Node000001" class="edge">
<title>Node0&#45;&gt;Node1</title>
<g id="a_edge37_Node000000_Node000001"><a xlink:title=" ">
<path fill="none" stroke="#63b8ff" d="M40.15,-45.74C47.6,-47.69 56.02,-49.9 64.39,-52.09"/>
<polygon fill="#63b8ff" stroke="#63b8ff" points="41.09,-42.36 30.53,-43.22 39.32,-49.14 41.09,-42.36"/>
</a>
</g>
</g>
<!-- Node2 -->
<g id="Node000002" class="node">
<title>Node2</title>
<g id="a_Node000002"><a xlink:href="structtesting_1_1internal_1_1disjunction_3_01P1_01_4.html" target="_top" xlink:title=" ">
<polygon fill="white" stroke="#666666" points="157.3,-30.5 66.3,-30.5 66.3,0 157.3,0 157.3,-30.5"/>
<text text-anchor="start" x="74.3" y="-17" font-family="Helvetica,sans-Serif" font-size="10.00">testing::internal::</text>
<text text-anchor="middle" x="111.8" y="-5.75" font-family="Helvetica,sans-Serif" font-size="10.00">disjunction&lt; P1 &gt;</text>
</a>
</g>
</g>
<!-- Node0&#45;&gt;Node2 -->
<g id="edge38_Node000000_Node000002" class="edge">
<title>Node0&#45;&gt;Node2</title>
<g id="a_edge38_Node000000_Node000002"><a xlink:title=" ">
<path fill="none" stroke="#63b8ff" d="M40.12,-33.03C48.08,-31.03 57.16,-28.74 66.1,-26.5"/>
<polygon fill="#63b8ff" stroke="#63b8ff" points="39.38,-29.61 30.54,-35.44 41.09,-36.4 39.38,-29.61"/>
</a>
</g>
</g>
</g>
</svg>
