<?xml version="1.0" encoding="UTF-8" standalone="no"?>
<!DOCTYPE svg PUBLIC "-//W3C//DTD SVG 1.1//EN"
 "http://www.w3.org/Graphics/SVG/1.1/DTD/svg11.dtd">
<!-- Generated by graphviz version 12.1.2 (20240928.0832)
 -->
<!-- Title: Graphical Class Hierarchy Pages: 1 -->
<svg width="240pt" height="98pt"
 viewBox="0.00 0.00 240.25 98.12" xmlns="http://www.w3.org/2000/svg" xmlns:xlink="http://www.w3.org/1999/xlink">
<g id="graph0" class="graph" transform="scale(1 1) rotate(0) translate(4 94.12)">
<title>Graphical Class Hierarchy</title>
<!-- Node0 -->
<g id="Node000000" class="node">
<title>Node0</title>
<g id="a_Node000000"><a xlink:title=" ">
<polygon fill="#e0e0e0" stroke="#999999" points="73.75,-57.5 0,-57.5 0,-38.25 73.75,-38.25 73.75,-57.5"/>
<text text-anchor="middle" x="36.88" y="-44" font-family="Helvetica,sans-Serif" font-size="10.00">std::true_type</text>
</a>
</g>
</g>
<!-- Node1 -->
<g id="Node000001" class="node">
<title>Node1</title>
<g id="a_Node000001"><a xlink:href="structtesting_1_1internal_1_1conjunction.html" target="_top" xlink:title=" ">
<polygon fill="white" stroke="#666666" points="214.25,-90.12 127.75,-90.12 127.75,-59.62 214.25,-59.62 214.25,-90.12"/>
<text text-anchor="start" x="135.75" y="-76.62" font-family="Helvetica,sans-Serif" font-size="10.00">testing::internal::</text>
<text text-anchor="middle" x="171" y="-65.38" font-family="Helvetica,sans-Serif" font-size="10.00">conjunction&lt;... &gt;</text>
</a>
</g>
</g>
<!-- Node0&#45;&gt;Node1 -->
<g id="edge52_Node000000_Node000001" class="edge">
<title>Node0&#45;&gt;Node1</title>
<g id="a_edge52_Node000000_Node000001"><a xlink:title=" ">
<path fill="none" stroke="#63b8ff" d="M85.2,-57.55C98.97,-60.36 113.92,-63.41 127.38,-66.16"/>
<polygon fill="#63b8ff" stroke="#63b8ff" points="85.96,-54.13 75.46,-55.56 84.56,-60.99 85.96,-54.13"/>
</a>
</g>
</g>
<!-- Node2 -->
<g id="Node000002" class="node">
<title>Node2</title>
<g id="a_Node000002"><a xlink:href="structtesting_1_1internal_1_1is__proxy__type__list_3_01ProxyTypeList_3_01Ts_8_8_8_01_4_01_4.html" target="_top" xlink:title=" ">
<polygon fill="white" stroke="#666666" points="232.25,-41.75 109.75,-41.75 109.75,0 232.25,0 232.25,-41.75"/>
<text text-anchor="start" x="117.75" y="-28.25" font-family="Helvetica,sans-Serif" font-size="10.00">testing::internal::</text>
<text text-anchor="start" x="117.75" y="-17" font-family="Helvetica,sans-Serif" font-size="10.00">is_proxy_type_list&lt;</text>
<text text-anchor="middle" x="171" y="-5.75" font-family="Helvetica,sans-Serif" font-size="10.00"> ProxyTypeList&lt; Ts... &gt; &gt;</text>
</a>
</g>
</g>
<!-- Node0&#45;&gt;Node2 -->
<g id="edge53_Node000000_Node000002" class="edge">
<title>Node0&#45;&gt;Node2</title>
<g id="a_edge53_Node000000_Node000002"><a xlink:title=" ">
<path fill="none" stroke="#63b8ff" d="M85.12,-38.22C92.96,-36.62 101.18,-34.94 109.29,-33.28"/>
<polygon fill="#63b8ff" stroke="#63b8ff" points="84.56,-34.76 75.46,-40.19 85.96,-41.62 84.56,-34.76"/>
</a>
</g>
</g>
</g>
</svg>
