<?xml version="1.0" encoding="UTF-8" standalone="no"?>
<!DOCTYPE svg PUBLIC "-//W3C//DTD SVG 1.1//EN"
 "http://www.w3.org/Graphics/SVG/1.1/DTD/svg11.dtd">
<!-- Generated by graphviz version 12.1.2 (20240928.0832)
 -->
<!-- Title: Graphical Class Hierarchy Pages: 1 -->
<svg width="236pt" height="64pt"
 viewBox="0.00 0.00 235.75 64.25" xmlns="http://www.w3.org/2000/svg" xmlns:xlink="http://www.w3.org/1999/xlink">
<g id="graph0" class="graph" transform="scale(1 1) rotate(0) translate(4 60.25)">
<title>Graphical Class Hierarchy</title>
<!-- Node0 -->
<g id="Node000000" class="node">
<title>Node0</title>
<g id="a_Node000000"><a xlink:href="classPrimeTable.html" target="_top" xlink:title=" ">
<polygon fill="white" stroke="#666666" points="65.5,-37.25 0,-37.25 0,-18 65.5,-18 65.5,-37.25"/>
<text text-anchor="middle" x="32.75" y="-23.75" font-family="Helvetica,sans-Serif" font-size="10.00">PrimeTable</text>
</a>
</g>
</g>
<!-- Node1 -->
<g id="Node000001" class="node">
<title>Node1</title>
<g id="a_Node000001"><a xlink:href="classOnTheFlyPrimeTable.html" target="_top" xlink:title=" ">
<polygon fill="white" stroke="#666666" points="218.38,-56.25 110.88,-56.25 110.88,-37 218.38,-37 218.38,-56.25"/>
<text text-anchor="middle" x="164.62" y="-42.75" font-family="Helvetica,sans-Serif" font-size="10.00">OnTheFlyPrimeTable</text>
</a>
</g>
</g>
<!-- Node0&#45;&gt;Node1 -->
<g id="edge41_Node000000_Node000001" class="edge">
<title>Node0&#45;&gt;Node1</title>
<g id="a_edge41_Node000000_Node000001"><a xlink:title=" ">
<path fill="none" stroke="#63b8ff" d="M77.04,-33.96C87.74,-35.52 99.31,-37.22 110.41,-38.84"/>
<polygon fill="#63b8ff" stroke="#63b8ff" points="77.75,-30.53 67.35,-32.54 76.74,-37.45 77.75,-30.53"/>
</a>
</g>
</g>
<!-- Node2 -->
<g id="Node000002" class="node">
<title>Node2</title>
<g id="a_Node000002"><a xlink:href="classPreCalculatedPrimeTable.html" target="_top" xlink:title=" ">
<polygon fill="white" stroke="#666666" points="227.75,-19.25 101.5,-19.25 101.5,0 227.75,0 227.75,-19.25"/>
<text text-anchor="middle" x="164.62" y="-5.75" font-family="Helvetica,sans-Serif" font-size="10.00">PreCalculatedPrimeTable</text>
</a>
</g>
</g>
<!-- Node0&#45;&gt;Node2 -->
<g id="edge42_Node000000_Node000002" class="edge">
<title>Node0&#45;&gt;Node2</title>
<g id="a_edge42_Node000000_Node000002"><a xlink:title=" ">
<path fill="none" stroke="#63b8ff" d="M77.16,-21.61C84.89,-20.54 93.08,-19.4 101.21,-18.28"/>
<polygon fill="#63b8ff" stroke="#63b8ff" points="76.78,-18.13 67.35,-22.97 77.74,-25.06 76.78,-18.13"/>
</a>
</g>
</g>
</g>
</svg>
