<?xml version="1.0" encoding="UTF-8" standalone="no"?>
<!DOCTYPE svg PUBLIC "-//W3C//DTD SVG 1.1//EN"
 "http://www.w3.org/Graphics/SVG/1.1/DTD/svg11.dtd">
<!-- Generated by graphviz version 12.1.2 (20240928.0832)
 -->
<!-- Title: Graphical Class Hierarchy Pages: 1 -->
<svg width="393pt" height="88pt"
 viewBox="0.00 0.00 393.25 87.50" xmlns="http://www.w3.org/2000/svg" xmlns:xlink="http://www.w3.org/1999/xlink">
<g id="graph0" class="graph" transform="scale(1 1) rotate(0) translate(4 83.5)">
<title>Graphical Class Hierarchy</title>
<!-- Node0 -->
<g id="Node000000" class="node">
<title>Node0</title>
<g id="a_Node000000"><a xlink:href="classtesting_1_1gmock__function__mocker__test_1_1StackInterface.html" target="_top" xlink:title=" ">
<polygon fill="white" stroke="#666666" points="166,-54.5 0,-54.5 0,-24 166,-24 166,-54.5"/>
<text text-anchor="start" x="8" y="-41" font-family="Helvetica,sans-Serif" font-size="10.00">testing::gmock_function</text>
<text text-anchor="middle" x="83" y="-29.75" font-family="Helvetica,sans-Serif" font-size="10.00">_mocker_test::StackInterface&lt; T &gt;</text>
</a>
</g>
</g>
<!-- Node1 -->
<g id="Node000001" class="node">
<title>Node1</title>
<g id="a_Node000001"><a xlink:href="classtesting_1_1gmock__function__mocker__test_1_1LegacyMockStack.html" target="_top" xlink:title=" ">
<polygon fill="white" stroke="#666666" points="385.25,-79.5 202,-79.5 202,-49 385.25,-49 385.25,-79.5"/>
<text text-anchor="start" x="210" y="-66" font-family="Helvetica,sans-Serif" font-size="10.00">testing::gmock_function</text>
<text text-anchor="middle" x="293.62" y="-54.75" font-family="Helvetica,sans-Serif" font-size="10.00">_mocker_test::LegacyMockStack&lt; T &gt;</text>
</a>
</g>
</g>
<!-- Node0&#45;&gt;Node1 -->
<g id="edge184_Node000000_Node000001" class="edge">
<title>Node0&#45;&gt;Node1</title>
<g id="a_edge184_Node000000_Node000001"><a xlink:title=" ">
<path fill="none" stroke="#63b8ff" d="M177.71,-50.48C185.73,-51.44 193.84,-52.41 201.83,-53.37"/>
<polygon fill="#63b8ff" stroke="#63b8ff" points="178.3,-47.03 167.96,-49.31 177.47,-53.98 178.3,-47.03"/>
</a>
</g>
</g>
<!-- Node2 -->
<g id="Node000002" class="node">
<title>Node2</title>
<g id="a_Node000002"><a xlink:href="classtesting_1_1gmock__function__mocker__test_1_1MockStack.html" target="_top" xlink:title=" ">
<polygon fill="white" stroke="#666666" points="369.5,-30.5 217.75,-30.5 217.75,0 369.5,0 369.5,-30.5"/>
<text text-anchor="start" x="225.75" y="-17" font-family="Helvetica,sans-Serif" font-size="10.00">testing::gmock_function</text>
<text text-anchor="middle" x="293.62" y="-5.75" font-family="Helvetica,sans-Serif" font-size="10.00">_mocker_test::MockStack&lt; T &gt;</text>
</a>
</g>
</g>
<!-- Node0&#45;&gt;Node2 -->
<g id="edge185_Node000000_Node000002" class="edge">
<title>Node0&#45;&gt;Node2</title>
<g id="a_edge185_Node000000_Node000002"><a xlink:title=" ">
<path fill="none" stroke="#63b8ff" d="M177.61,-28.48C190.98,-26.94 204.59,-25.38 217.55,-23.89"/>
<polygon fill="#63b8ff" stroke="#63b8ff" points="177.49,-24.97 167.96,-29.59 178.29,-31.93 177.49,-24.97"/>
</a>
</g>
</g>
</g>
</svg>
