<?xml version="1.0" encoding="UTF-8" standalone="no"?>
<!DOCTYPE svg PUBLIC "-//W3C//DTD SVG 1.1//EN"
 "http://www.w3.org/Graphics/SVG/1.1/DTD/svg11.dtd">
<!-- Generated by graphviz version 12.1.2 (20240928.0832)
 -->
<!-- Title: Graphical Class Hierarchy Pages: 1 -->
<svg width="267pt" height="98pt"
 viewBox="0.00 0.00 267.25 98.12" xmlns="http://www.w3.org/2000/svg" xmlns:xlink="http://www.w3.org/1999/xlink">
<g id="graph0" class="graph" transform="scale(1 1) rotate(0) translate(4 94.12)">
<title>Graphical Class Hierarchy</title>
<!-- Node0 -->
<g id="Node000000" class="node">
<title>Node0</title>
<g id="a_Node000000"><a xlink:title=" ">
<polygon fill="#e0e0e0" stroke="#999999" points="108.25,-51.88 0,-51.88 0,-32.62 108.25,-32.62 108.25,-51.88"/>
<text text-anchor="middle" x="54.12" y="-38.38" font-family="Helvetica,sans-Serif" font-size="10.00">std::integral_constant</text>
</a>
</g>
</g>
<!-- Node1 -->
<g id="Node000001" class="node">
<title>Node1</title>
<g id="a_Node000001"><a xlink:href="structstd_1_1tuple__size_3_01testing_1_1internal_1_1FlatTuple_3_01Ts_8_8_8_01_4_01_4.html" target="_top" xlink:title=" ">
<polygon fill="white" stroke="#666666" points="259.25,-90.12 144.25,-90.12 144.25,-48.38 259.25,-48.38 259.25,-90.12"/>
<text text-anchor="start" x="152.25" y="-76.62" font-family="Helvetica,sans-Serif" font-size="10.00">std::tuple_size&lt; testing</text>
<text text-anchor="start" x="152.25" y="-65.38" font-family="Helvetica,sans-Serif" font-size="10.00">::internal::FlatTuple&lt;</text>
<text text-anchor="middle" x="201.75" y="-54.12" font-family="Helvetica,sans-Serif" font-size="10.00"> Ts... &gt; &gt;</text>
</a>
</g>
</g>
<!-- Node0&#45;&gt;Node1 -->
<g id="edge50_Node000000_Node000001" class="edge">
<title>Node0&#45;&gt;Node1</title>
<g id="a_edge50_Node000000_Node000001"><a xlink:title=" ">
<path fill="none" stroke="#63b8ff" d="M119.77,-54.24C127.82,-55.73 136.01,-57.25 143.93,-58.72"/>
<polygon fill="#63b8ff" stroke="#63b8ff" points="120.48,-50.81 110.01,-52.43 119.21,-57.69 120.48,-50.81"/>
</a>
</g>
</g>
<!-- Node2 -->
<g id="Node000002" class="node">
<title>Node2</title>
<g id="a_Node000002"><a xlink:href="structtesting_1_1internal_1_1negation.html" target="_top" xlink:title=" ">
<polygon fill="white" stroke="#666666" points="244.62,-30.5 158.88,-30.5 158.88,0 244.62,0 244.62,-30.5"/>
<text text-anchor="start" x="166.88" y="-17" font-family="Helvetica,sans-Serif" font-size="10.00">testing::internal::</text>
<text text-anchor="middle" x="201.75" y="-5.75" font-family="Helvetica,sans-Serif" font-size="10.00">negation&lt; P &gt;</text>
</a>
</g>
</g>
<!-- Node0&#45;&gt;Node2 -->
<g id="edge51_Node000000_Node000002" class="edge">
<title>Node0&#45;&gt;Node2</title>
<g id="a_edge51_Node000000_Node000002"><a xlink:title=" ">
<path fill="none" stroke="#63b8ff" d="M119.56,-30.3C132.85,-27.84 146.52,-25.31 158.76,-23.04"/>
<polygon fill="#63b8ff" stroke="#63b8ff" points="119.21,-26.81 110.01,-32.07 120.48,-33.69 119.21,-26.81"/>
</a>
</g>
</g>
</g>
</svg>
