<?xml version="1.0" encoding="UTF-8" standalone="no"?>
<!DOCTYPE svg PUBLIC "-//W3C//DTD SVG 1.1//EN"
 "http://www.w3.org/Graphics/SVG/1.1/DTD/svg11.dtd">
<!-- Generated by graphviz version 12.1.2 (20240928.0832)
 -->
<!-- Title: Graphical Class Hierarchy Pages: 1 -->
<svg width="278pt" height="64pt"
 viewBox="0.00 0.00 277.75 64.25" xmlns="http://www.w3.org/2000/svg" xmlns:xlink="http://www.w3.org/1999/xlink">
<g id="graph0" class="graph" transform="scale(1 1) rotate(0) translate(4 60.25)">
<title>Graphical Class Hierarchy</title>
<!-- Node0 -->
<g id="Node000000" class="node">
<title>Node0</title>
<g id="a_Node000000"><a xlink:href="classParentClass.html" target="_top" xlink:title=" ">
<polygon fill="white" stroke="#666666" points="69.25,-37.25 0,-37.25 0,-18 69.25,-18 69.25,-37.25"/>
<text text-anchor="middle" x="34.62" y="-23.75" font-family="Helvetica,sans-Serif" font-size="10.00">ParentClass</text>
</a>
</g>
</g>
<!-- Node1 -->
<g id="Node000001" class="node">
<title>Node1</title>
<g id="a_Node000001"><a xlink:href="classChildClassWithStreamOperator.html" target="_top" xlink:title=" ">
<polygon fill="white" stroke="#666666" points="263,-56.25 112,-56.25 112,-37 263,-37 263,-56.25"/>
<text text-anchor="middle" x="187.5" y="-42.75" font-family="Helvetica,sans-Serif" font-size="10.00">ChildClassWithStreamOperator</text>
</a>
</g>
</g>
<!-- Node0&#45;&gt;Node1 -->
<g id="edge39_Node000000_Node000001" class="edge">
<title>Node0&#45;&gt;Node1</title>
<g id="a_edge39_Node000000_Node000001"><a xlink:title=" ">
<path fill="none" stroke="#63b8ff" d="M80.6,-33.29C90.43,-34.53 101.1,-35.87 111.74,-37.21"/>
<polygon fill="#63b8ff" stroke="#63b8ff" points="81.34,-29.86 70.99,-32.08 80.47,-36.8 81.34,-29.86"/>
</a>
</g>
</g>
<!-- Node2 -->
<g id="Node000002" class="node">
<title>Node2</title>
<g id="a_Node000002"><a xlink:href="classChildClassWithoutStreamOperator.html" target="_top" xlink:title=" ">
<polygon fill="white" stroke="#666666" points="269.75,-19.25 105.25,-19.25 105.25,0 269.75,0 269.75,-19.25"/>
<text text-anchor="middle" x="187.5" y="-5.75" font-family="Helvetica,sans-Serif" font-size="10.00">ChildClassWithoutStreamOperator</text>
</a>
</g>
</g>
<!-- Node0&#45;&gt;Node2 -->
<g id="edge40_Node000000_Node000002" class="edge">
<title>Node0&#45;&gt;Node2</title>
<g id="a_edge40_Node000000_Node000002"><a xlink:title=" ">
<path fill="none" stroke="#63b8ff" d="M80.75,-22.24C88.46,-21.32 96.68,-20.34 105.01,-19.35"/>
<polygon fill="#63b8ff" stroke="#63b8ff" points="80.5,-18.75 70.99,-23.41 81.33,-25.7 80.5,-18.75"/>
</a>
</g>
</g>
</g>
</svg>
