<?xml version="1.0" encoding="UTF-8" standalone="no"?>
<!DOCTYPE svg PUBLIC "-//W3C//DTD SVG 1.1//EN"
 "http://www.w3.org/Graphics/SVG/1.1/DTD/svg11.dtd">
<!-- Generated by graphviz version 12.1.2 (20240928.0832)
 -->
<!-- Title: Graphical Class Hierarchy Pages: 1 -->
<svg width="250pt" height="218pt"
 viewBox="0.00 0.00 250.00 217.75" xmlns="http://www.w3.org/2000/svg" xmlns:xlink="http://www.w3.org/1999/xlink">
<g id="graph0" class="graph" transform="scale(1 1) rotate(0) translate(4 213.75)">
<title>Graphical Class Hierarchy</title>
<!-- Node0 -->
<g id="Node000000" class="node">
<title>Node0</title>
<g id="a_Node000000"><a xlink:title=" ">
<polygon fill="#e0e0e0" stroke="#999999" points="78.25,-117.5 0,-117.5 0,-98.25 78.25,-98.25 78.25,-117.5"/>
<text text-anchor="middle" x="39.12" y="-104" font-family="Helvetica,sans-Serif" font-size="10.00">std::false_type</text>
</a>
</g>
</g>
<!-- Node1 -->
<g id="Node000001" class="node">
<title>Node1</title>
<g id="a_Node000001"><a xlink:href="structtesting_1_1internal_1_1IsRecursiveContainerImpl_3_01C_00_01false_01_4.html" target="_top" xlink:title=" ">
<polygon fill="white" stroke="#666666" points="242,-209.75 114.25,-209.75 114.25,-168 242,-168 242,-209.75"/>
<text text-anchor="start" x="122.25" y="-196.25" font-family="Helvetica,sans-Serif" font-size="10.00">testing::internal::</text>
<text text-anchor="start" x="122.25" y="-185" font-family="Helvetica,sans-Serif" font-size="10.00">IsRecursiveContainerImpl</text>
<text text-anchor="middle" x="178.12" y="-173.75" font-family="Helvetica,sans-Serif" font-size="10.00">&lt; C, false &gt;</text>
</a>
</g>
</g>
<!-- Node0&#45;&gt;Node1 -->
<g id="edge46_Node000000_Node000001" class="edge">
<title>Node0&#45;&gt;Node1</title>
<g id="a_edge46_Node000000_Node000001"><a xlink:title=" ">
<path fill="none" stroke="#63b8ff" d="M62.48,-124.62C76.88,-135.07 96.23,-148.46 114.25,-158.88 119.38,-161.84 124.85,-164.77 130.34,-167.57"/>
<polygon fill="#63b8ff" stroke="#63b8ff" points="64.72,-121.93 54.59,-118.83 60.58,-127.57 64.72,-121.93"/>
</a>
</g>
</g>
<!-- Node2 -->
<g id="Node000002" class="node">
<title>Node2</title>
<g id="a_Node000002"><a xlink:href="structtesting_1_1internal_1_1disjunction.html" target="_top" xlink:title=" ">
<polygon fill="white" stroke="#666666" points="221,-150.12 135.25,-150.12 135.25,-119.62 221,-119.62 221,-150.12"/>
<text text-anchor="start" x="143.25" y="-136.62" font-family="Helvetica,sans-Serif" font-size="10.00">testing::internal::</text>
<text text-anchor="middle" x="178.12" y="-125.38" font-family="Helvetica,sans-Serif" font-size="10.00">disjunction&lt;... &gt;</text>
</a>
</g>
</g>
<!-- Node0&#45;&gt;Node2 -->
<g id="edge47_Node000000_Node000002" class="edge">
<title>Node0&#45;&gt;Node2</title>
<g id="a_edge47_Node000000_Node000002"><a xlink:title=" ">
<path fill="none" stroke="#63b8ff" d="M89.71,-117.65C104.57,-120.58 120.72,-123.76 135.05,-126.58"/>
<polygon fill="#63b8ff" stroke="#63b8ff" points="90.62,-114.26 80.14,-115.76 89.27,-121.13 90.62,-114.26"/>
</a>
</g>
</g>
<!-- Node3 -->
<g id="Node000003" class="node">
<title>Node3</title>
<g id="a_Node000003"><a xlink:href="structtesting_1_1internal_1_1is__callable__r__impl.html" target="_top" xlink:title=" ">
<polygon fill="white" stroke="#666666" points="227.75,-101.75 128.5,-101.75 128.5,-60 227.75,-60 227.75,-101.75"/>
<text text-anchor="start" x="136.5" y="-88.25" font-family="Helvetica,sans-Serif" font-size="10.00">testing::internal::</text>
<text text-anchor="start" x="136.5" y="-77" font-family="Helvetica,sans-Serif" font-size="10.00">is_callable_r_impl&lt;</text>
<text text-anchor="middle" x="178.12" y="-65.75" font-family="Helvetica,sans-Serif" font-size="10.00"> Void, R, F, Args &gt;</text>
</a>
</g>
</g>
<!-- Node0&#45;&gt;Node3 -->
<g id="edge48_Node000000_Node000003" class="edge">
<title>Node0&#45;&gt;Node3</title>
<g id="a_edge48_Node000000_Node000003"><a xlink:title=" ">
<path fill="none" stroke="#63b8ff" d="M89.81,-98.08C102.29,-95.62 115.67,-92.99 128.12,-90.53"/>
<polygon fill="#63b8ff" stroke="#63b8ff" points="89.27,-94.62 80.14,-99.99 90.62,-101.49 89.27,-94.62"/>
</a>
</g>
</g>
<!-- Node4 -->
<g id="Node000004" class="node">
<title>Node4</title>
<g id="a_Node000004"><a xlink:href="structtesting_1_1internal_1_1is__proxy__type__list.html" target="_top" xlink:title=" ">
<polygon fill="white" stroke="#666666" points="227.38,-41.75 128.88,-41.75 128.88,0 227.38,0 227.38,-41.75"/>
<text text-anchor="start" x="136.88" y="-28.25" font-family="Helvetica,sans-Serif" font-size="10.00">testing::internal::</text>
<text text-anchor="start" x="136.88" y="-17" font-family="Helvetica,sans-Serif" font-size="10.00">is_proxy_type_list&lt;</text>
<text text-anchor="middle" x="178.12" y="-5.75" font-family="Helvetica,sans-Serif" font-size="10.00"> typename &gt;</text>
</a>
</g>
</g>
<!-- Node0&#45;&gt;Node4 -->
<g id="edge49_Node000000_Node000004" class="edge">
<title>Node0&#45;&gt;Node4</title>
<g id="a_edge49_Node000000_Node000004"><a xlink:title=" ">
<path fill="none" stroke="#63b8ff" d="M60.23,-90.55C74.69,-78.57 94.95,-62.71 114.25,-50.88 119.2,-47.84 124.5,-44.89 129.85,-42.09"/>
<polygon fill="#63b8ff" stroke="#63b8ff" points="58.19,-87.69 52.79,-96.81 62.7,-93.05 58.19,-87.69"/>
</a>
</g>
</g>
</g>
</svg>
