<?xml version="1.0" encoding="UTF-8" standalone="no"?>
<!DOCTYPE svg PUBLIC "-//W3C//DTD SVG 1.1//EN"
 "http://www.w3.org/Graphics/SVG/1.1/DTD/svg11.dtd">
<!-- Generated by graphviz version 12.1.2 (20240928.0832)
 -->
<!-- Title: src/merge_sorter/merge_sorter.cpp Pages: 1 -->
<svg width="150pt" height="149pt"
 viewBox="0.00 0.00 150.25 149.00" xmlns="http://www.w3.org/2000/svg" xmlns:xlink="http://www.w3.org/1999/xlink">
<g id="graph0" class="graph" transform="scale(1 1) rotate(0) translate(4 145)">
<title>src/merge_sorter/merge_sorter.cpp</title>
<!-- Node1 -->
<g id="Node000001" class="node">
<title>Node1</title>
<g id="a_Node000001"><a xlink:title="Implementacja klasy MergeSorter do sortowania tablicy liczb całkowitych za pomocą algorytmu merge sor...">
<polygon fill="#999999" stroke="#666666" points="119.5,-141 0,-141 0,-110.5 119.5,-110.5 119.5,-141"/>
<text text-anchor="start" x="8" y="-127.5" font-family="Helvetica,sans-Serif" font-size="10.00">src/merge_sorter/merge</text>
<text text-anchor="middle" x="59.75" y="-116.25" font-family="Helvetica,sans-Serif" font-size="10.00">_sorter.cpp</text>
</a>
</g>
</g>
<!-- Node2 -->
<g id="Node000002" class="node">
<title>Node2</title>
<g id="a_Node000002"><a xlink:title=" ">
<polygon fill="#e0e0e0" stroke="#999999" points="81.25,-19.25 38.25,-19.25 38.25,0 81.25,0 81.25,-19.25"/>
<text text-anchor="middle" x="59.75" y="-5.75" font-family="Helvetica,sans-Serif" font-size="10.00">vector</text>
</a>
</g>
</g>
<!-- Node1&#45;&gt;Node2 -->
<g id="edge1_Node000001_Node000002" class="edge">
<title>Node1&#45;&gt;Node2</title>
<g id="a_edge1_Node000001_Node000002"><a xlink:title=" ">
<path fill="none" stroke="#63b8ff" d="M52.08,-110.23C45.64,-96.25 38.02,-74.46 41.75,-55.25 43.42,-46.65 46.74,-37.6 50.09,-29.92"/>
<polygon fill="#63b8ff" stroke="#63b8ff" points="53.23,-31.45 54.32,-20.91 46.9,-28.47 53.23,-31.45"/>
</a>
</g>
</g>
<!-- Node3 -->
<g id="Node000003" class="node">
<title>Node3</title>
<g id="a_Node000003"><a xlink:href="merge__sorter_8hpp.html" target="_top" xlink:title="Deklaracja klasy MergeSorter do sortowania tablicy za pomocą algorytmu merge sort.">
<polygon fill="white" stroke="#666666" points="142.25,-74.5 51.25,-74.5 51.25,-55.25 142.25,-55.25 142.25,-74.5"/>
<text text-anchor="middle" x="96.75" y="-61" font-family="Helvetica,sans-Serif" font-size="10.00">merge_sorter.hpp</text>
</a>
</g>
</g>
<!-- Node1&#45;&gt;Node3 -->
<g id="edge2_Node000001_Node000003" class="edge">
<title>Node1&#45;&gt;Node3</title>
<g id="a_edge2_Node000001_Node000003"><a xlink:title=" ">
<path fill="none" stroke="#63b8ff" d="M68.9,-110.2C73.77,-102.44 79.82,-92.81 85.04,-84.51"/>
<polygon fill="#63b8ff" stroke="#63b8ff" points="87.88,-86.56 90.24,-76.23 81.96,-82.84 87.88,-86.56"/>
</a>
</g>
</g>
<!-- Node3&#45;&gt;Node2 -->
<g id="edge3_Node000003_Node000002" class="edge">
<title>Node3&#45;&gt;Node2</title>
<g id="a_edge3_Node000003_Node000002"><a xlink:title=" ">
<path fill="none" stroke="#63b8ff" d="M90.64,-55.08C85.69,-47.96 78.55,-37.68 72.38,-28.8"/>
<polygon fill="#63b8ff" stroke="#63b8ff" points="75.44,-27.07 66.86,-20.85 69.69,-31.06 75.44,-27.07"/>
</a>
</g>
</g>
</g>
</svg>
