<?xml version="1.0" encoding="UTF-8" standalone="no"?>
<!DOCTYPE svg PUBLIC "-//W3C//DTD SVG 1.1//EN"
 "http://www.w3.org/Graphics/SVG/1.1/DTD/svg11.dtd">
<!-- Generated by graphviz version 12.1.2 (20240928.0832)
 -->
<!-- Title: src/merge_sorter/merge_sorter.hpp Pages: 1 -->
<svg width="346pt" height="105pt"
 viewBox="0.00 0.00 346.38 105.00" xmlns="http://www.w3.org/2000/svg" xmlns:xlink="http://www.w3.org/1999/xlink">
<g id="graph0" class="graph" transform="scale(1 1) rotate(0) translate(4 101)">
<title>src/merge_sorter/merge_sorter.hpp</title>
<!-- Node1 -->
<g id="Node000001" class="node">
<title>Node1</title>
<g id="a_Node000001"><a xlink:title="Deklaracja klasy MergeSorter do sortowania tablicy za pomocą algorytmu merge sort.">
<polygon fill="#999999" stroke="#666666" points="222.25,-97 102.75,-97 102.75,-66.5 222.25,-66.5 222.25,-97"/>
<text text-anchor="start" x="110.75" y="-83.5" font-family="Helvetica,sans-Serif" font-size="10.00">src/merge_sorter/merge</text>
<text text-anchor="middle" x="162.5" y="-72.25" font-family="Helvetica,sans-Serif" font-size="10.00">_sorter.hpp</text>
</a>
</g>
</g>
<!-- Node2 -->
<g id="Node000002" class="node">
<title>Node2</title>
<g id="a_Node000002"><a xlink:href="app_8cpp.html" target="_top" xlink:title="Implementacja klasy App obsługującej operacje na liście liczb całkowitych poprzez interaktywne menu.">
<polygon fill="white" stroke="#666666" points="85,-24.88 0,-24.88 0,-5.63 85,-5.63 85,-24.88"/>
<text text-anchor="middle" x="42.5" y="-11.38" font-family="Helvetica,sans-Serif" font-size="10.00">src/app/app.cpp</text>
</a>
</g>
</g>
<!-- Node1&#45;&gt;Node2 -->
<g id="edge1_Node000001_Node000002" class="edge">
<title>Node1&#45;&gt;Node2</title>
<g id="a_edge1_Node000001_Node000002"><a xlink:title=" ">
<path fill="none" stroke="#63b8ff" d="M125.21,-60.7C103.14,-48.84 76.26,-34.4 59.26,-25.26"/>
<polygon fill="#63b8ff" stroke="#63b8ff" points="123.47,-63.75 133.94,-65.4 126.79,-57.58 123.47,-63.75"/>
</a>
</g>
</g>
<!-- Node3 -->
<g id="Node000003" class="node">
<title>Node3</title>
<g id="a_Node000003"><a xlink:href="merge__sorter_8cpp.html" target="_top" xlink:title="Implementacja klasy MergeSorter do sortowania tablicy liczb całkowitych za pomocą algorytmu merge sor...">
<polygon fill="white" stroke="#666666" points="222.25,-30.5 102.75,-30.5 102.75,0 222.25,0 222.25,-30.5"/>
<text text-anchor="start" x="110.75" y="-17" font-family="Helvetica,sans-Serif" font-size="10.00">src/merge_sorter/merge</text>
<text text-anchor="middle" x="162.5" y="-5.75" font-family="Helvetica,sans-Serif" font-size="10.00">_sorter.cpp</text>
</a>
</g>
</g>
<!-- Node1&#45;&gt;Node3 -->
<g id="edge2_Node000001_Node000003" class="edge">
<title>Node1&#45;&gt;Node3</title>
<g id="a_edge2_Node000001_Node000003"><a xlink:title=" ">
<path fill="none" stroke="#63b8ff" d="M162.5,-54.81C162.5,-46.64 162.5,-37.91 162.5,-30.83"/>
<polygon fill="#63b8ff" stroke="#63b8ff" points="159,-54.6 162.5,-64.6 166,-54.6 159,-54.6"/>
</a>
</g>
</g>
<!-- Node4 -->
<g id="Node000004" class="node">
<title>Node4</title>
<g id="a_Node000004"><a xlink:href="merge__sorter__test_8cpp.html" target="_top" xlink:title="Zbiór testów jednostkowych dla klasy MergeSorter.">
<polygon fill="white" stroke="#666666" points="338.38,-30.5 240.62,-30.5 240.62,0 338.38,0 338.38,-30.5"/>
<text text-anchor="start" x="248.62" y="-17" font-family="Helvetica,sans-Serif" font-size="10.00">tests/merge_sorter</text>
<text text-anchor="middle" x="289.5" y="-5.75" font-family="Helvetica,sans-Serif" font-size="10.00">_test.cpp</text>
</a>
</g>
</g>
<!-- Node1&#45;&gt;Node4 -->
<g id="edge3_Node000001_Node000004" class="edge">
<title>Node1&#45;&gt;Node4</title>
<g id="a_edge3_Node000001_Node000004"><a xlink:title=" ">
<path fill="none" stroke="#63b8ff" d="M201.53,-60.93C220.66,-51.21 243.28,-39.72 260.8,-30.83"/>
<polygon fill="#63b8ff" stroke="#63b8ff" points="200,-57.78 192.67,-65.43 203.17,-64.02 200,-57.78"/>
</a>
</g>
</g>
</g>
</svg>
