<?xml version="1.0" encoding="UTF-8" standalone="no"?>
<!DOCTYPE svg PUBLIC "-//W3C//DTD SVG 1.1//EN"
 "http://www.w3.org/Graphics/SVG/1.1/DTD/svg11.dtd">
<!-- Generated by graphviz version 12.1.2 (20240928.0832)
 -->
<!-- Title: src/merge_sorter/merge_sorter.hpp Pages: 1 -->
<svg width="230pt" height="105pt"
 viewBox="0.00 0.00 230.25 105.00" xmlns="http://www.w3.org/2000/svg" xmlns:xlink="http://www.w3.org/1999/xlink">
<g id="graph0" class="graph" transform="scale(1 1) rotate(0) translate(4 101)">
<title>src/merge_sorter/merge_sorter.hpp</title>
<!-- Node1 -->
<g id="Node000001" class="node">
<title>Node1</title>
<g id="a_Node000001"><a xlink:title="Deklaracja klasy MergeSorter do sortowania tablicy za pomocą algorytmu merge sort.">
<polygon fill="#999999" stroke="#666666" points="162.25,-97 42.75,-97 42.75,-66.5 162.25,-66.5 162.25,-97"/>
<text text-anchor="start" x="50.75" y="-83.5" font-family="Helvetica,sans-Serif" font-size="10.00">src/merge_sorter/merge</text>
<text text-anchor="middle" x="102.5" y="-72.25" font-family="Helvetica,sans-Serif" font-size="10.00">_sorter.hpp</text>
</a>
</g>
</g>
<!-- Node2 -->
<g id="Node000002" class="node">
<title>Node2</title>
<g id="a_Node000002"><a xlink:href="app_8cpp.html" target="_top" xlink:title="Implementacja klasy App obsługującej operacje na liście liczb całkowitych poprzez interaktywne menu.">
<polygon fill="white" stroke="#666666" points="85,-24.88 0,-24.88 0,-5.63 85,-5.63 85,-24.88"/>
<text text-anchor="middle" x="42.5" y="-11.38" font-family="Helvetica,sans-Serif" font-size="10.00">src/app/app.cpp</text>
</a>
</g>
</g>
<!-- Node1&#45;&gt;Node2 -->
<g id="edge1_Node000001_Node000002" class="edge">
<title>Node1&#45;&gt;Node2</title>
<g id="a_edge1_Node000001_Node000002"><a xlink:title=" ">
<path fill="none" stroke="#63b8ff" d="M81.22,-57.87C70.67,-46.53 58.54,-33.49 50.71,-25.07"/>
<polygon fill="#63b8ff" stroke="#63b8ff" points="78.48,-60.07 87.85,-65.01 83.61,-55.3 78.48,-60.07"/>
</a>
</g>
</g>
<!-- Node3 -->
<g id="Node000003" class="node">
<title>Node3</title>
<g id="a_Node000003"><a xlink:href="merge__sorter_8cpp.html" target="_top" xlink:title="Implementacja klasy MergeSorter do sortowania tablicy liczb całkowitych za pomocą algorytmu merge sor...">
<polygon fill="white" stroke="#666666" points="222.25,-30.5 102.75,-30.5 102.75,0 222.25,0 222.25,-30.5"/>
<text text-anchor="start" x="110.75" y="-17" font-family="Helvetica,sans-Serif" font-size="10.00">src/merge_sorter/merge</text>
<text text-anchor="middle" x="162.5" y="-5.75" font-family="Helvetica,sans-Serif" font-size="10.00">_sorter.cpp</text>
</a>
</g>
</g>
<!-- Node1&#45;&gt;Node3 -->
<g id="edge2_Node000001_Node000003" class="edge">
<title>Node1&#45;&gt;Node3</title>
<g id="a_edge2_Node000001_Node000003"><a xlink:title=" ">
<path fill="none" stroke="#63b8ff" d="M123.75,-57.91C132.13,-48.9 141.51,-38.82 148.94,-30.83"/>
<polygon fill="#63b8ff" stroke="#63b8ff" points="121.39,-55.3 117.15,-65.01 126.52,-60.07 121.39,-55.3"/>
</a>
</g>
</g>
</g>
</svg>
