<?xml version="1.0" encoding="UTF-8" standalone="no"?>
<!DOCTYPE svg PUBLIC "-//W3C//DTD SVG 1.1//EN"
 "http://www.w3.org/Graphics/SVG/1.1/DTD/svg11.dtd">
<!-- Generated by graphviz version 12.1.2 (20240928.0832)
 -->
<!-- Title: src/utils/random_number_generator/random_number_generator.hpp Pages: 1 -->
<svg width="361pt" height="128pt"
 viewBox="0.00 0.00 361.38 127.50" xmlns="http://www.w3.org/2000/svg" xmlns:xlink="http://www.w3.org/1999/xlink">
<g id="graph0" class="graph" transform="scale(1 1) rotate(0) translate(4 123.5)">
<title>src/utils/random_number_generator/random_number_generator.hpp</title>
<!-- Node1 -->
<g id="Node000001" class="node">
<title>Node1</title>
<g id="a_Node000001"><a xlink:title="Deklaracja klasy RandomNumberGenerator do generowania liczb losowych.">
<polygon fill="#999999" stroke="#666666" points="237.75,-119.5 103.25,-119.5 103.25,-77.75 237.75,-77.75 237.75,-119.5"/>
<text text-anchor="start" x="111.25" y="-106" font-family="Helvetica,sans-Serif" font-size="10.00">src/utils/random_number</text>
<text text-anchor="start" x="111.25" y="-94.75" font-family="Helvetica,sans-Serif" font-size="10.00">_generator/random_number</text>
<text text-anchor="middle" x="170.5" y="-83.5" font-family="Helvetica,sans-Serif" font-size="10.00">_generator.hpp</text>
</a>
</g>
</g>
<!-- Node2 -->
<g id="Node000002" class="node">
<title>Node2</title>
<g id="a_Node000002"><a xlink:href="app_8cpp.html" target="_top" xlink:title="Implementacja klasy App obsługującej operacje na liście liczb całkowitych poprzez interaktywne menu.">
<polygon fill="white" stroke="#666666" points="85,-30.5 0,-30.5 0,-11.25 85,-11.25 85,-30.5"/>
<text text-anchor="middle" x="42.5" y="-17" font-family="Helvetica,sans-Serif" font-size="10.00">src/app/app.cpp</text>
</a>
</g>
</g>
<!-- Node1&#45;&gt;Node2 -->
<g id="edge1_Node000001_Node000002" class="edge">
<title>Node1&#45;&gt;Node2</title>
<g id="a_edge1_Node000001_Node000002"><a xlink:title=" ">
<path fill="none" stroke="#63b8ff" d="M126.31,-71.47C102.56,-57.42 74.78,-40.98 57.92,-31"/>
<polygon fill="#63b8ff" stroke="#63b8ff" points="124.51,-74.47 134.9,-76.55 128.07,-68.45 124.51,-74.47"/>
</a>
</g>
</g>
<!-- Node3 -->
<g id="Node000003" class="node">
<title>Node3</title>
<g id="a_Node000003"><a xlink:href="random__number__generator_8cpp.html" target="_top" xlink:title="Implementacja generatora liczb losowych.">
<polygon fill="white" stroke="#666666" points="237.75,-41.75 103.25,-41.75 103.25,0 237.75,0 237.75,-41.75"/>
<text text-anchor="start" x="111.25" y="-28.25" font-family="Helvetica,sans-Serif" font-size="10.00">src/utils/random_number</text>
<text text-anchor="start" x="111.25" y="-17" font-family="Helvetica,sans-Serif" font-size="10.00">_generator/random_number</text>
<text text-anchor="middle" x="170.5" y="-5.75" font-family="Helvetica,sans-Serif" font-size="10.00">_generator.cpp</text>
</a>
</g>
</g>
<!-- Node1&#45;&gt;Node3 -->
<g id="edge2_Node000001_Node000003" class="edge">
<title>Node1&#45;&gt;Node3</title>
<g id="a_edge2_Node000001_Node000003"><a xlink:title=" ">
<path fill="none" stroke="#63b8ff" d="M170.5,-66C170.5,-57.96 170.5,-49.54 170.5,-42.23"/>
<polygon fill="#63b8ff" stroke="#63b8ff" points="167,-65.81 170.5,-75.81 174,-65.81 167,-65.81"/>
</a>
</g>
</g>
<!-- Node4 -->
<g id="Node000004" class="node">
<title>Node4</title>
<g id="a_Node000004"><a xlink:href="merge__sorter__test_8cpp.html" target="_top" xlink:title="Zbiór testów jednostkowych dla klasy MergeSorter.">
<polygon fill="white" stroke="#666666" points="353.38,-36.12 255.62,-36.12 255.62,-5.62 353.38,-5.62 353.38,-36.12"/>
<text text-anchor="start" x="263.62" y="-22.62" font-family="Helvetica,sans-Serif" font-size="10.00">tests/merge_sorter</text>
<text text-anchor="middle" x="304.5" y="-11.38" font-family="Helvetica,sans-Serif" font-size="10.00">_test.cpp</text>
</a>
</g>
</g>
<!-- Node1&#45;&gt;Node4 -->
<g id="edge3_Node000001_Node000004" class="edge">
<title>Node1&#45;&gt;Node4</title>
<g id="a_edge3_Node000001_Node000004"><a xlink:title=" ">
<path fill="none" stroke="#63b8ff" d="M216.35,-71.71C237.18,-59.93 261.05,-46.44 278.69,-36.46"/>
<polygon fill="#63b8ff" stroke="#63b8ff" points="214.71,-68.61 207.73,-76.58 218.15,-74.71 214.71,-68.61"/>
</a>
</g>
</g>
</g>
</svg>
