<?xml version="1.0" encoding="UTF-8" standalone="no"?>
<!DOCTYPE svg PUBLIC "-//W3C//DTD SVG 1.1//EN"
 "http://www.w3.org/Graphics/SVG/1.1/DTD/svg11.dtd">
<!-- Generated by graphviz version 12.1.2 (20240928.0832)
 -->
<!-- Title: src/utils/random_number_generator/random_number_generator.cpp Pages: 1 -->
<svg width="281pt" height="116pt"
 viewBox="0.00 0.00 280.50 116.25" xmlns="http://www.w3.org/2000/svg" xmlns:xlink="http://www.w3.org/1999/xlink">
<g id="graph0" class="graph" transform="scale(1 1) rotate(0) translate(4 112.25)">
<title>src/utils/random_number_generator/random_number_generator.cpp</title>
<!-- Node1 -->
<g id="Node000001" class="node">
<title>Node1</title>
<g id="a_Node000001"><a xlink:title="Implementacja generatora liczb losowych.">
<polygon fill="#999999" stroke="#666666" points="149.5,-108.25 15,-108.25 15,-66.5 149.5,-66.5 149.5,-108.25"/>
<text text-anchor="start" x="23" y="-94.75" font-family="Helvetica,sans-Serif" font-size="10.00">src/utils/random_number</text>
<text text-anchor="start" x="23" y="-83.5" font-family="Helvetica,sans-Serif" font-size="10.00">_generator/random_number</text>
<text text-anchor="middle" x="82.25" y="-72.25" font-family="Helvetica,sans-Serif" font-size="10.00">_generator.cpp</text>
</a>
</g>
</g>
<!-- Node2 -->
<g id="Node000002" class="node">
<title>Node2</title>
<g id="a_Node000002"><a xlink:title=" ">
<polygon fill="#e0e0e0" stroke="#999999" points="44.5,-24.88 0,-24.88 0,-5.63 44.5,-5.63 44.5,-24.88"/>
<text text-anchor="middle" x="22.25" y="-11.38" font-family="Helvetica,sans-Serif" font-size="10.00">cstdlib</text>
</a>
</g>
</g>
<!-- Node1&#45;&gt;Node2 -->
<g id="edge1_Node000001_Node000002" class="edge">
<title>Node1&#45;&gt;Node2</title>
<g id="a_edge1_Node000001_Node000002"><a xlink:title=" ">
<path fill="none" stroke="#63b8ff" d="M64.9,-66.09C56.08,-55.79 45.49,-43.41 37.06,-33.56"/>
<polygon fill="#63b8ff" stroke="#63b8ff" points="39.93,-31.52 30.76,-26.2 34.61,-36.08 39.93,-31.52"/>
</a>
</g>
</g>
<!-- Node3 -->
<g id="Node000003" class="node">
<title>Node3</title>
<g id="a_Node000003"><a xlink:title=" ">
<polygon fill="#e0e0e0" stroke="#999999" points="102.25,-24.88 62.25,-24.88 62.25,-5.63 102.25,-5.63 102.25,-24.88"/>
<text text-anchor="middle" x="82.25" y="-11.38" font-family="Helvetica,sans-Serif" font-size="10.00">ctime</text>
</a>
</g>
</g>
<!-- Node1&#45;&gt;Node3 -->
<g id="edge2_Node000001_Node000003" class="edge">
<title>Node1&#45;&gt;Node3</title>
<g id="a_edge2_Node000001_Node000003"><a xlink:title=" ">
<path fill="none" stroke="#63b8ff" d="M82.25,-66.09C82.25,-56.75 82.25,-45.69 82.25,-36.37"/>
<polygon fill="#63b8ff" stroke="#63b8ff" points="85.75,-36.57 82.25,-26.57 78.75,-36.57 85.75,-36.57"/>
</a>
</g>
</g>
<!-- Node4 -->
<g id="Node000004" class="node">
<title>Node4</title>
<g id="a_Node000004"><a xlink:href="random__number__generator_8hpp.html" target="_top" xlink:title="Deklaracja klasy RandomNumberGenerator do generowania liczb losowych.">
<polygon fill="white" stroke="#666666" points="272.5,-30.5 120,-30.5 120,0 272.5,0 272.5,-30.5"/>
<text text-anchor="start" x="128" y="-17" font-family="Helvetica,sans-Serif" font-size="10.00">random_number_generator</text>
<text text-anchor="middle" x="196.25" y="-5.75" font-family="Helvetica,sans-Serif" font-size="10.00">/random_number_generator.hpp</text>
</a>
</g>
</g>
<!-- Node1&#45;&gt;Node4 -->
<g id="edge3_Node000001_Node000004" class="edge">
<title>Node1&#45;&gt;Node4</title>
<g id="a_edge3_Node000001_Node000004"><a xlink:title=" ">
<path fill="none" stroke="#63b8ff" d="M115.22,-66.09C130.22,-56.87 147.93,-45.97 162.96,-36.72"/>
<polygon fill="#63b8ff" stroke="#63b8ff" points="164.43,-39.93 171.11,-31.71 160.76,-33.97 164.43,-39.93"/>
</a>
</g>
</g>
</g>
</svg>
