<?xml version="1.0" encoding="UTF-8" standalone="no"?>
<!DOCTYPE svg PUBLIC "-//W3C//DTD SVG 1.1//EN"
 "http://www.w3.org/Graphics/SVG/1.1/DTD/svg11.dtd">
<!-- Generated by graphviz version 12.1.2 (20240928.0832)
 -->
<!-- Title: testing::internal::InvokeArgumentAction&lt; index, Params &gt; Pages: 1 -->
<svg width="474pt" height="61pt"
 viewBox="0.00 0.00 474.00 61.00" xmlns="http://www.w3.org/2000/svg" xmlns:xlink="http://www.w3.org/1999/xlink">
<g id="graph0" class="graph" transform="scale(1 1) rotate(0) translate(4 57)">
<title>testing::internal::InvokeArgumentAction&lt; index, Params &gt;</title>
<!-- Node1 -->
<g id="Node000001" class="node">
<title>Node1</title>
<g id="a_Node000001"><a xlink:title=" ">
<polygon fill="#999999" stroke="#666666" points="466,-47.38 351,-47.38 351,-5.62 466,-5.62 466,-47.38"/>
<text text-anchor="start" x="359" y="-33.88" font-family="Helvetica,sans-Serif" font-size="10.00">testing::internal::</text>
<text text-anchor="start" x="359" y="-22.62" font-family="Helvetica,sans-Serif" font-size="10.00">InvokeArgumentAction</text>
<text text-anchor="middle" x="408.5" y="-11.38" font-family="Helvetica,sans-Serif" font-size="10.00">&lt; index, Params &gt;</text>
</a>
</g>
</g>
<!-- Node2 -->
<g id="Node000002" class="node">
<title>Node2</title>
<g id="a_Node000002"><a xlink:href="classtesting_1_1internal_1_1FlatTuple.html" target="_top" xlink:title=" ">
<polygon fill="white" stroke="#bfbfbf" points="280.5,-41.75 167,-41.75 167,-11.25 280.5,-11.25 280.5,-41.75"/>
<text text-anchor="start" x="175" y="-28.25" font-family="Helvetica,sans-Serif" font-size="10.00">testing::internal::</text>
<text text-anchor="middle" x="223.75" y="-17" font-family="Helvetica,sans-Serif" font-size="10.00">FlatTuple&lt; Params... &gt;</text>
</a>
</g>
</g>
<!-- Node2&#45;&gt;Node1 -->
<g id="edge1_Node000001_Node000002" class="edge">
<title>Node2&#45;&gt;Node1</title>
<g id="a_edge1_Node000001_Node000002"><a xlink:title=" ">
<path fill="none" stroke="#9a32cd" stroke-dasharray="5,2" d="M292.04,-26.5C311.33,-26.5 332.17,-26.5 350.76,-26.5"/>
<polygon fill="#9a32cd" stroke="#9a32cd" points="292.09,-23 282.09,-26.5 292.09,-30 292.09,-23"/>
</a>
</g>
<text text-anchor="middle" x="315.75" y="-28.25" font-family="Helvetica,sans-Serif" font-size="10.00" fill="grey"> params</text>
</g>
<!-- Node3 -->
<g id="Node000003" class="node">
<title>Node3</title>
<g id="a_Node000003"><a xlink:href="structtesting_1_1internal_1_1FlatTupleBase.html" target="_top" xlink:title=" ">
<polygon fill="white" stroke="#bfbfbf" points="130,-53 0,-53 0,0 130,0 130,-53"/>
<text text-anchor="start" x="8" y="-39.5" font-family="Helvetica,sans-Serif" font-size="10.00">testing::internal::</text>
<text text-anchor="start" x="8" y="-28.25" font-family="Helvetica,sans-Serif" font-size="10.00">FlatTupleBase&lt; FlatTuple</text>
<text text-anchor="start" x="8" y="-17" font-family="Helvetica,sans-Serif" font-size="10.00">&lt; T... &gt;, std::make_index</text>
<text text-anchor="middle" x="65" y="-5.75" font-family="Helvetica,sans-Serif" font-size="10.00">_sequence&lt; sizeof...(T)&gt; &gt;</text>
</a>
</g>
</g>
<!-- Node3&#45;&gt;Node2 -->
<g id="edge2_Node000002_Node000003" class="edge">
<title>Node3&#45;&gt;Node2</title>
<g id="a_edge2_Node000002_Node000003"><a xlink:title=" ">
<path fill="none" stroke="#8b1a1a" d="M141.43,-26.5C150.02,-26.5 158.65,-26.5 166.92,-26.5"/>
<polygon fill="#8b1a1a" stroke="#8b1a1a" points="141.72,-23 131.72,-26.5 141.72,-30 141.72,-23"/>
</a>
</g>
</g>
</g>
</svg>
